<svg width="133" height="37" viewBox="0 0 133 37" fill="none" xmlns="http://www.w3.org/2000/svg">
<g clip-path="url(#clip0_182_766)">
<path d="M9.99357 33.6867C9.36266 33.2669 8.80349 32.7483 8.33757 32.1507C7.82505 31.5338 7.35019 30.8867 6.91557 30.2127C5.89565 28.7185 5.0958 27.0854 4.54057 25.3637C3.87357 23.3637 3.55057 21.4467 3.55057 19.5717C3.55057 17.4777 4.00357 15.6497 4.88957 14.1137C5.54635 12.9131 6.51198 11.9098 7.68657 11.2077C8.82488 10.5006 10.1328 10.1137 11.4726 10.0877C11.9416 10.0877 12.4466 10.1557 12.9826 10.2857C13.3676 10.3947 13.8366 10.5667 14.4096 10.7807C15.1386 11.0617 15.5396 11.2337 15.6756 11.2757C16.1026 11.4317 16.4616 11.4997 16.7436 11.4997C16.9576 11.4997 17.2596 11.4317 17.6026 11.3277C17.7956 11.2597 18.1596 11.1397 18.6806 10.9167C19.1966 10.7287 19.6026 10.5677 19.9256 10.4477C20.4206 10.3017 20.8996 10.1667 21.3266 10.0987C21.8328 10.0189 22.3465 9.99772 22.8576 10.0357C23.7432 10.0936 24.6155 10.2812 25.4466 10.5927C26.8056 11.1397 27.9046 11.9937 28.7226 13.2077C28.3768 13.4208 28.0523 13.6666 27.7536 13.9417C27.1032 14.5182 26.5492 15.1951 26.1126 15.9467C25.5419 16.9737 25.246 18.1307 25.2536 19.3057C25.2746 20.7487 25.6446 22.0197 26.3736 23.1187C26.9095 23.9332 27.6061 24.6297 28.4206 25.1657C28.8376 25.4467 29.1966 25.6397 29.5406 25.7697C29.3796 26.2697 29.2076 26.7537 29.0046 27.2337C28.5442 28.3101 27.9862 29.342 27.3376 30.3167C26.7596 31.1557 26.3066 31.7807 25.9626 32.1967C25.4266 32.8317 24.9106 33.3167 24.3896 33.6547C23.8166 34.0347 23.1396 34.2377 22.4516 34.2377C21.9856 34.2556 21.5198 34.1992 21.0716 34.0707C20.6866 33.9407 20.3056 33.7997 19.9306 33.6387C19.5407 33.4596 19.1387 33.3082 18.7276 33.1857C17.7113 32.9246 16.6457 32.9229 15.6286 33.1807C15.2116 33.3007 14.8106 33.4407 14.4146 33.6127C13.8576 33.8467 13.4876 34.0037 13.2736 34.0707C12.8466 34.1957 12.4036 34.2737 11.9556 34.2997C11.2626 34.2997 10.6166 34.1017 9.97657 33.7007L9.99357 33.6867ZM19.1336 9.07167C18.2276 9.52467 17.3626 9.71767 16.5036 9.65467C16.3686 8.78967 16.5036 7.90467 16.8626 6.93567C17.1682 6.11473 17.6198 5.35585 18.1956 4.69567C18.8036 4.00069 19.5414 3.43104 20.3676 3.01867C21.2476 2.56567 22.0866 2.32067 22.8886 2.28467C22.9926 3.19067 22.8886 4.08167 22.5556 5.04467C22.2474 5.89595 21.7966 6.6886 21.2226 7.38867C20.6366 8.0846 19.9176 8.65645 19.1076 9.07067L19.1336 9.07167Z" fill="#1B1D4D"/>
</g>
<path d="M48.6333 11.2856H46.9115L46.9228 10.3964H48.6333C49.2224 10.3964 49.7133 10.2737 50.106 10.0282C50.4987 9.779 50.7932 9.43161 50.9896 8.98604C51.1897 8.53669 51.2898 8.01182 51.2898 7.41143V6.90732C51.2898 6.43532 51.2331 6.01618 51.1198 5.6499C51.0066 5.27985 50.8404 4.96833 50.6214 4.71533C50.4024 4.45856 50.1343 4.26409 49.8171 4.13193C49.5037 3.99977 49.1431 3.93369 48.7353 3.93369H46.8775V3.03877H48.7353C49.2753 3.03877 49.768 3.12939 50.2136 3.31064C50.6592 3.48812 51.0424 3.74678 51.3634 4.08662C51.6881 4.42269 51.9374 4.8305 52.1111 5.31006C52.2848 5.78584 52.3716 6.32204 52.3716 6.91865V7.41143C52.3716 8.00804 52.2848 8.54613 52.1111 9.02568C51.9374 9.50146 51.6863 9.90739 51.3577 10.2435C51.033 10.5795 50.6403 10.8382 50.1796 11.0194C49.7227 11.1969 49.2073 11.2856 48.6333 11.2856ZM47.4948 3.03877V11.2856H46.4017V3.03877H47.4948ZM53.5781 8.28936V8.15908C53.5781 7.71729 53.6422 7.30758 53.7706 6.92998C53.899 6.5486 54.084 6.2182 54.3257 5.93877C54.5674 5.65557 54.86 5.43656 55.2036 5.28174C55.5473 5.12314 55.9324 5.04385 56.3591 5.04385C56.7896 5.04385 57.1766 5.12314 57.5202 5.28174C57.8676 5.43656 58.1622 5.65557 58.4038 5.93877C58.6493 6.2182 58.8362 6.5486 58.9646 6.92998C59.093 7.30758 59.1572 7.71729 59.1572 8.15908V8.28936C59.1572 8.73115 59.093 9.14085 58.9646 9.51846C58.8362 9.89606 58.6493 10.2265 58.4038 10.5097C58.1622 10.7891 57.8695 11.0081 57.5259 11.1667C57.1861 11.3215 56.8009 11.3989 56.3704 11.3989C55.94 11.3989 55.5529 11.3215 55.2093 11.1667C54.8657 11.0081 54.5712 10.7891 54.3257 10.5097C54.084 10.2265 53.899 9.89606 53.7706 9.51846C53.6422 9.14085 53.5781 8.73115 53.5781 8.28936ZM54.6259 8.15908V8.28936C54.6259 8.59521 54.6618 8.88408 54.7335 9.15596C54.8053 9.42406 54.9129 9.66195 55.0564 9.86963C55.2036 10.0773 55.3868 10.2416 55.6058 10.3624C55.8248 10.4795 56.0797 10.538 56.3704 10.538C56.6574 10.538 56.9085 10.4795 57.1238 10.3624C57.3428 10.2416 57.524 10.0773 57.6675 9.86963C57.811 9.66195 57.9186 9.42406 57.9904 9.15596C58.0659 8.88408 58.1036 8.59521 58.1036 8.28936V8.15908C58.1036 7.857 58.0659 7.57191 57.9904 7.30381C57.9186 7.03193 57.8091 6.79215 57.6618 6.58447C57.5184 6.37301 57.3371 6.20687 57.1181 6.08603C56.9029 5.9652 56.6499 5.90478 56.3591 5.90478C56.0721 5.90478 55.8191 5.9652 55.6001 6.08603C55.3849 6.20687 55.2036 6.37301 55.0564 6.58447C54.9129 6.79215 54.8053 7.03193 54.7335 7.30381C54.6618 7.57191 54.6259 7.857 54.6259 8.15908ZM61.5191 6.46553V11.2856H60.4712V5.15713H61.4624L61.5191 6.46553ZM61.2698 7.98916L60.8337 7.97217C60.8375 7.55303 60.8998 7.16598 61.0206 6.81104C61.1415 6.45231 61.3114 6.14079 61.5304 5.87646C61.7494 5.61214 62.01 5.40824 62.312 5.26475C62.6179 5.11748 62.9559 5.04385 63.3259 5.04385C63.628 5.04385 63.8999 5.08538 64.1415 5.16846C64.3832 5.24775 64.589 5.37614 64.7589 5.55361C64.9326 5.73109 65.0648 5.96143 65.1554 6.24463C65.246 6.52406 65.2913 6.86579 65.2913 7.26982V11.2856H64.2378V7.2585C64.2378 6.93753 64.1906 6.68076 64.0962 6.48818C64.0018 6.29183 63.864 6.15023 63.6827 6.06338C63.5015 5.97275 63.2787 5.92744 63.0144 5.92744C62.7538 5.92744 62.5159 5.98219 62.3007 6.0917C62.0893 6.2012 61.9061 6.35225 61.7513 6.54482C61.6003 6.7374 61.4813 6.9583 61.3945 7.20752C61.3114 7.45296 61.2698 7.71351 61.2698 7.98916ZM68.4349 10.1981L70.0095 5.15713H70.7005L70.5646 6.15967L68.9616 11.2856H68.2876L68.4349 10.1981ZM67.3757 5.15713L68.7181 10.2548L68.8144 11.2856H68.1064L66.3279 5.15713H67.3757ZM72.2072 10.2151L73.4872 5.15713H74.5294L72.7509 11.2856H72.0486L72.2072 10.2151ZM70.8534 5.15713L72.3941 10.1132L72.5697 11.2856H71.9013L70.2531 6.14834L70.1171 5.15713H70.8534ZM76.7441 2.58564V11.2856H75.6906V2.58564H76.7441ZM78.1488 8.28936V8.15908C78.1488 7.71729 78.2129 7.30758 78.3413 6.92998C78.4697 6.5486 78.6547 6.2182 78.8964 5.93877C79.1381 5.65557 79.4307 5.43656 79.7743 5.28174C80.118 5.12314 80.5031 5.04385 80.9298 5.04385C81.3603 5.04385 81.7473 5.12314 82.0909 5.28174C82.4383 5.43656 82.7329 5.65557 82.9745 5.93877C83.22 6.2182 83.4069 6.5486 83.5353 6.92998C83.6637 7.30758 83.7279 7.71729 83.7279 8.15908V8.28936C83.7279 8.73115 83.6637 9.14085 83.5353 9.51846C83.4069 9.89606 83.22 10.2265 82.9745 10.5097C82.7329 10.7891 82.4402 11.0081 82.0966 11.1667C81.7568 11.3215 81.3716 11.3989 80.9411 11.3989C80.5107 11.3989 80.1236 11.3215 79.78 11.1667C79.4364 11.0081 79.1419 10.7891 78.8964 10.5097C78.6547 10.2265 78.4697 9.89606 78.3413 9.51846C78.2129 9.14085 78.1488 8.73115 78.1488 8.28936ZM79.1966 8.15908V8.28936C79.1966 8.59521 79.2325 8.88408 79.3042 9.15596C79.376 9.42406 79.4836 9.66195 79.6271 9.86963C79.7743 10.0773 79.9575 10.2416 80.1765 10.3624C80.3955 10.4795 80.6504 10.538 80.9411 10.538C81.2281 10.538 81.4792 10.4795 81.6945 10.3624C81.9135 10.2416 82.0947 10.0773 82.2382 9.86963C82.3817 9.66195 82.4893 9.42406 82.5611 9.15596C82.6366 8.88408 82.6743 8.59521 82.6743 8.28936V8.15908C82.6743 7.857 82.6366 7.57191 82.5611 7.30381C82.4893 7.03193 82.3798 6.79215 82.2325 6.58447C82.0891 6.37301 81.9078 6.20687 81.6888 6.08603C81.4736 5.9652 81.2206 5.90478 80.9298 5.90478C80.6428 5.90478 80.3898 5.9652 80.1708 6.08603C79.9556 6.20687 79.7743 6.37301 79.6271 6.58447C79.4836 6.79215 79.376 7.03193 79.3042 7.30381C79.2325 7.57191 79.1966 7.857 79.1966 8.15908ZM88.6556 10.2378V7.08291C88.6556 6.84124 88.6065 6.63167 88.5083 6.4542C88.4139 6.27295 88.2704 6.13324 88.0779 6.03506C87.8853 5.93688 87.6474 5.88779 87.3642 5.88779C87.0999 5.88779 86.8676 5.93311 86.6675 6.02373C86.4712 6.11436 86.3163 6.2333 86.2031 6.38057C86.0935 6.52783 86.0388 6.68643 86.0388 6.85635H84.9909C84.9909 6.63734 85.0476 6.42021 85.1609 6.20498C85.2741 5.98975 85.4365 5.79528 85.648 5.62158C85.8632 5.44411 86.12 5.30439 86.4183 5.20244C86.7204 5.09671 87.0564 5.04385 87.4265 5.04385C87.8721 5.04385 88.2648 5.11937 88.6046 5.27041C88.9482 5.42145 89.2163 5.6499 89.4089 5.95576C89.6053 6.25784 89.7034 6.63734 89.7034 7.09424V9.94893C89.7034 10.1528 89.7204 10.37 89.7544 10.6003C89.7922 10.8306 89.8469 11.0289 89.9187 11.195V11.2856H88.8255C88.7726 11.1648 88.7311 11.0043 88.7009 10.8042C88.6707 10.6003 88.6556 10.4115 88.6556 10.2378ZM88.8368 7.57002L88.8482 8.30635H87.789C87.4907 8.30635 87.2245 8.33089 86.9904 8.37998C86.7562 8.42529 86.5599 8.49515 86.4013 8.58955C86.2427 8.68395 86.1219 8.8029 86.0388 8.94639C85.9557 9.0861 85.9142 9.25036 85.9142 9.43916C85.9142 9.63174 85.9576 9.80732 86.0445 9.96592C86.1313 10.1245 86.2616 10.251 86.4353 10.3454C86.6128 10.436 86.8299 10.4813 87.0866 10.4813C87.4076 10.4813 87.6908 10.4134 87.9363 10.2774C88.1817 10.1415 88.3762 9.97536 88.5197 9.779C88.6669 9.58265 88.7462 9.39196 88.7575 9.20693L89.205 9.71104C89.1786 9.86963 89.1068 10.0452 88.9898 10.2378C88.8727 10.4304 88.716 10.6154 88.5197 10.7929C88.3271 10.9666 88.0967 11.1119 87.8286 11.229C87.5643 11.3423 87.266 11.3989 86.9337 11.3989C86.5184 11.3989 86.154 11.3177 85.8406 11.1554C85.5309 10.993 85.2892 10.7759 85.1156 10.504C84.9456 10.2284 84.8607 9.92061 84.8607 9.58076C84.8607 9.25225 84.9249 8.96338 85.0532 8.71416C85.1816 8.46117 85.3667 8.25159 85.6083 8.08545C85.85 7.91553 86.1407 7.78714 86.4806 7.70029C86.8204 7.61344 87.1999 7.57002 87.6191 7.57002H88.8368ZM95.2146 10.0962V2.58564H96.2681V11.2856H95.3052L95.2146 10.0962ZM91.0911 8.28936V8.17041C91.0911 7.70218 91.1478 7.27738 91.2611 6.896C91.3781 6.51084 91.5424 6.18044 91.7538 5.90478C91.9691 5.62913 92.224 5.41768 92.5185 5.27041C92.8168 5.11937 93.1491 5.04385 93.5154 5.04385C93.9005 5.04385 94.2366 5.11182 94.5236 5.24775C94.8143 5.37992 95.0598 5.57438 95.2599 5.83115C95.4638 6.08415 95.6243 6.39001 95.7413 6.74873C95.8584 7.10745 95.9396 7.51338 95.9849 7.9665V8.4876C95.9434 8.93695 95.8622 9.34098 95.7413 9.69971C95.6243 10.0584 95.4638 10.3643 95.2599 10.6173C95.0598 10.8703 94.8143 11.0647 94.5236 11.2007C94.2328 11.3328 93.893 11.3989 93.504 11.3989C93.1453 11.3989 92.8168 11.3215 92.5185 11.1667C92.224 11.0119 91.9691 10.7948 91.7538 10.5153C91.5424 10.2359 91.3781 9.90739 91.2611 9.52979C91.1478 9.1484 91.0911 8.73493 91.0911 8.28936ZM92.1447 8.17041V8.28936C92.1447 8.59521 92.1749 8.88219 92.2353 9.15029C92.2995 9.41839 92.3977 9.65439 92.5298 9.8583C92.662 10.0622 92.83 10.2227 93.0339 10.3397C93.2378 10.453 93.4814 10.5097 93.7646 10.5097C94.112 10.5097 94.3971 10.436 94.6199 10.2888C94.8464 10.1415 95.0277 9.94704 95.1636 9.70537C95.2995 9.4637 95.4053 9.20127 95.4808 8.91807V7.55303C95.4355 7.34534 95.3694 7.14521 95.2825 6.95264C95.1995 6.75628 95.09 6.58258 94.954 6.43154C94.8219 6.27673 94.6576 6.154 94.4613 6.06338C94.2687 5.97275 94.0402 5.92744 93.7759 5.92744C93.4889 5.92744 93.2416 5.98786 93.0339 6.10869C92.83 6.22575 92.662 6.38812 92.5298 6.5958C92.3977 6.79971 92.2995 7.0376 92.2353 7.30947C92.1749 7.57757 92.1447 7.86455 92.1447 8.17041ZM100.499 8.28936V8.15908C100.499 7.71729 100.563 7.30758 100.692 6.92998C100.82 6.5486 101.005 6.2182 101.247 5.93877C101.488 5.65557 101.781 5.43656 102.125 5.28174C102.468 5.12314 102.854 5.04385 103.28 5.04385C103.711 5.04385 104.098 5.12314 104.441 5.28174C104.789 5.43656 105.083 5.65557 105.325 5.93877C105.57 6.2182 105.757 6.5486 105.886 6.92998C106.014 7.30758 106.078 7.71729 106.078 8.15908V8.28936C106.078 8.73115 106.014 9.14085 105.886 9.51846C105.757 9.89606 105.57 10.2265 105.325 10.5097C105.083 10.7891 104.791 11.0081 104.447 11.1667C104.107 11.3215 103.722 11.3989 103.292 11.3989C102.861 11.3989 102.474 11.3215 102.13 11.1667C101.787 11.0081 101.492 10.7891 101.247 10.5097C101.005 10.2265 100.82 9.89606 100.692 9.51846C100.563 9.14085 100.499 8.73115 100.499 8.28936ZM101.547 8.15908V8.28936C101.547 8.59521 101.583 8.88408 101.655 9.15596C101.726 9.42406 101.834 9.66195 101.977 9.86963C102.125 10.0773 102.308 10.2416 102.527 10.3624C102.746 10.4795 103.001 10.538 103.292 10.538C103.579 10.538 103.83 10.4795 104.045 10.3624C104.264 10.2416 104.445 10.0773 104.589 9.86963C104.732 9.66195 104.84 9.42406 104.911 9.15596C104.987 8.88408 105.025 8.59521 105.025 8.28936V8.15908C105.025 7.857 104.987 7.57191 104.911 7.30381C104.84 7.03193 104.73 6.79215 104.583 6.58447C104.439 6.37301 104.258 6.20687 104.039 6.08603C103.824 5.9652 103.571 5.90478 103.28 5.90478C102.993 5.90478 102.74 5.9652 102.521 6.08603C102.306 6.20687 102.125 6.37301 101.977 6.58447C101.834 6.79215 101.726 7.03193 101.655 7.30381C101.583 7.57191 101.547 7.857 101.547 8.15908ZM108.44 6.46553V11.2856H107.392V5.15713H108.384L108.44 6.46553ZM108.191 7.98916L107.755 7.97217C107.759 7.55303 107.821 7.16598 107.942 6.81104C108.063 6.45231 108.232 6.14079 108.451 5.87646C108.671 5.61214 108.931 5.40824 109.233 5.26475C109.539 5.11748 109.877 5.04385 110.247 5.04385C110.549 5.04385 110.821 5.08538 111.063 5.16846C111.304 5.24775 111.51 5.37614 111.68 5.55361C111.854 5.73109 111.986 5.96143 112.076 6.24463C112.167 6.52406 112.212 6.86579 112.212 7.26982V11.2856H111.159V7.2585C111.159 6.93753 111.112 6.68076 111.017 6.48818C110.923 6.29183 110.785 6.15023 110.604 6.06338C110.423 5.97275 110.2 5.92744 109.935 5.92744C109.675 5.92744 109.437 5.98219 109.222 6.0917C109.01 6.2012 108.827 6.35225 108.672 6.54482C108.521 6.7374 108.402 6.9583 108.316 7.20752C108.232 7.45296 108.191 7.71351 108.191 7.98916ZM119.247 5.15713V5.96143H115.934V5.15713H119.247ZM117.055 3.66748H118.103V9.76768C118.103 9.97536 118.135 10.1321 118.199 10.2378C118.264 10.3435 118.347 10.4134 118.449 10.4474C118.551 10.4813 118.66 10.4983 118.777 10.4983C118.864 10.4983 118.955 10.4908 119.049 10.4757C119.147 10.4568 119.221 10.4417 119.27 10.4304L119.276 11.2856C119.192 11.3121 119.083 11.3366 118.947 11.3593C118.815 11.3857 118.654 11.3989 118.466 11.3989C118.209 11.3989 117.973 11.3479 117.758 11.246C117.542 11.144 117.371 10.9741 117.242 10.7362C117.118 10.4946 117.055 10.1698 117.055 9.76201V3.66748ZM121.524 2.58564V11.2856H120.476V2.58564H121.524ZM121.275 7.98916L120.839 7.97217C120.843 7.55303 120.905 7.16598 121.026 6.81104C121.147 6.45231 121.316 6.14079 121.535 5.87646C121.754 5.61214 122.015 5.40824 122.317 5.26475C122.623 5.11748 122.961 5.04385 123.331 5.04385C123.633 5.04385 123.905 5.08538 124.147 5.16846C124.388 5.24775 124.594 5.37614 124.764 5.55361C124.938 5.73109 125.07 5.96143 125.16 6.24463C125.251 6.52406 125.296 6.86579 125.296 7.26982V11.2856H124.243V7.2585C124.243 6.93753 124.196 6.68076 124.101 6.48818C124.007 6.29183 123.869 6.15023 123.688 6.06338C123.507 5.97275 123.284 5.92744 123.019 5.92744C122.759 5.92744 122.521 5.98219 122.306 6.0917C122.094 6.2012 121.911 6.35225 121.756 6.54482C121.605 6.7374 121.486 6.9583 121.4 7.20752C121.316 7.45296 121.275 7.71351 121.275 7.98916ZM129.409 11.3989C128.982 11.3989 128.595 11.3272 128.247 11.1837C127.904 11.0364 127.607 10.8306 127.358 10.5663C127.113 10.302 126.924 9.98857 126.792 9.62607C126.66 9.26357 126.593 8.86709 126.593 8.43662V8.19873C126.593 7.70029 126.667 7.25661 126.814 6.86768C126.962 6.47497 127.162 6.14268 127.415 5.8708C127.668 5.59893 127.955 5.39313 128.276 5.25342C128.597 5.1137 128.929 5.04385 129.273 5.04385C129.711 5.04385 130.088 5.11937 130.405 5.27041C130.726 5.42145 130.989 5.63291 131.193 5.90478C131.397 6.17288 131.548 6.49007 131.646 6.85635C131.744 7.21885 131.793 7.61533 131.793 8.0458V8.51592H127.217V7.66064H130.745V7.58135C130.73 7.30947 130.673 7.04515 130.575 6.78838C130.481 6.53161 130.33 6.32015 130.122 6.154C129.915 5.98786 129.631 5.90478 129.273 5.90478C129.035 5.90478 128.816 5.95576 128.616 6.05771C128.415 6.15589 128.244 6.30316 128.1 6.49951C127.957 6.69587 127.845 6.93564 127.766 7.21885C127.687 7.50205 127.647 7.82868 127.647 8.19873V8.43662C127.647 8.72738 127.687 9.00114 127.766 9.25791C127.849 9.5109 127.968 9.73369 128.123 9.92627C128.281 10.1188 128.472 10.2699 128.695 10.3794C128.921 10.4889 129.178 10.5437 129.465 10.5437C129.835 10.5437 130.149 10.4681 130.405 10.3171C130.662 10.166 130.887 9.96403 131.079 9.71104L131.714 10.2151C131.582 10.4153 131.414 10.606 131.21 10.7872C131.006 10.9685 130.755 11.1157 130.456 11.229C130.162 11.3423 129.813 11.3989 129.409 11.3989ZM51.0851 21.856L47.9913 31.2856H45.4991L49.7257 19.9106H51.3116L51.0851 21.856ZM53.6554 31.2856L50.5538 21.856L50.3038 19.9106H51.9054L56.1554 31.2856H53.6554ZM53.5148 27.0513V28.8872H47.507V27.0513H53.5148ZM59.0695 24.4575V34.5356H56.8195V22.8325H58.9054L59.0695 24.4575ZM64.421 26.9653V27.1294C64.421 27.744 64.3481 28.3143 64.2023 28.8403C64.0616 29.3664 63.8533 29.8247 63.5773 30.2153C63.3012 30.6007 62.9575 30.9028 62.546 31.1216C62.1398 31.3351 61.671 31.4419 61.1398 31.4419C60.6241 31.4419 60.1762 31.3377 59.796 31.1294C59.4158 30.9211 59.0955 30.6294 58.8351 30.2544C58.5799 29.8742 58.3741 29.4341 58.2179 28.9341C58.0616 28.4341 57.9419 27.8976 57.8585 27.3247V26.895C57.9419 26.2804 58.0616 25.7179 58.2179 25.2075C58.3741 24.6919 58.5799 24.2466 58.8351 23.8716C59.0955 23.4914 59.4132 23.1971 59.7882 22.9888C60.1684 22.7804 60.6137 22.6763 61.1241 22.6763C61.6606 22.6763 62.132 22.7778 62.5382 22.981C62.9497 23.1841 63.2934 23.4757 63.5695 23.856C63.8507 24.2362 64.0616 24.6893 64.2023 25.2153C64.3481 25.7414 64.421 26.3247 64.421 26.9653ZM62.1632 27.1294V26.9653C62.1632 26.606 62.132 26.2752 62.0695 25.9731C62.0122 25.6659 61.9184 25.3976 61.7882 25.1685C61.6632 24.9393 61.4965 24.7622 61.2882 24.6372C61.0851 24.507 60.8377 24.4419 60.546 24.4419C60.2387 24.4419 59.9757 24.4914 59.757 24.5903C59.5434 24.6893 59.3689 24.8325 59.2335 25.02C59.0981 25.2075 58.9965 25.4315 58.9288 25.6919C58.8611 25.9523 58.8195 26.2466 58.8038 26.5747V27.6606C58.8299 28.0461 58.9028 28.3924 59.0226 28.6997C59.1424 29.0018 59.3273 29.2414 59.5773 29.4185C59.8273 29.5955 60.1554 29.6841 60.5616 29.6841C60.8585 29.6841 61.1085 29.619 61.3116 29.4888C61.5148 29.3534 61.6788 29.1685 61.8038 28.9341C61.934 28.6997 62.0252 28.4289 62.0773 28.1216C62.1346 27.8143 62.1632 27.4836 62.1632 27.1294ZM68.0695 24.4575V34.5356H65.8195V22.8325H67.9054L68.0695 24.4575ZM73.421 26.9653V27.1294C73.421 27.744 73.3481 28.3143 73.2023 28.8403C73.0616 29.3664 72.8533 29.8247 72.5773 30.2153C72.3012 30.6007 71.9575 30.9028 71.546 31.1216C71.1398 31.3351 70.671 31.4419 70.1398 31.4419C69.6241 31.4419 69.1762 31.3377 68.796 31.1294C68.4158 30.9211 68.0955 30.6294 67.8351 30.2544C67.5799 29.8742 67.3741 29.4341 67.2179 28.9341C67.0616 28.4341 66.9419 27.8976 66.8585 27.3247V26.895C66.9419 26.2804 67.0616 25.7179 67.2179 25.2075C67.3741 24.6919 67.5799 24.2466 67.8351 23.8716C68.0955 23.4914 68.4132 23.1971 68.7882 22.9888C69.1684 22.7804 69.6137 22.6763 70.1241 22.6763C70.6606 22.6763 71.132 22.7778 71.5382 22.981C71.9497 23.1841 72.2934 23.4757 72.5695 23.856C72.8507 24.2362 73.0616 24.6893 73.2023 25.2153C73.3481 25.7414 73.421 26.3247 73.421 26.9653ZM71.1632 27.1294V26.9653C71.1632 26.606 71.132 26.2752 71.0695 25.9731C71.0122 25.6659 70.9184 25.3976 70.7882 25.1685C70.6632 24.9393 70.4965 24.7622 70.2882 24.6372C70.0851 24.507 69.8377 24.4419 69.546 24.4419C69.2387 24.4419 68.9757 24.4914 68.757 24.5903C68.5434 24.6893 68.3689 24.8325 68.2335 25.02C68.0981 25.2075 67.9965 25.4315 67.9288 25.6919C67.8611 25.9523 67.8195 26.2466 67.8038 26.5747V27.6606C67.8299 28.0461 67.9028 28.3924 68.0226 28.6997C68.1424 29.0018 68.3273 29.2414 68.5773 29.4185C68.8273 29.5955 69.1554 29.6841 69.5616 29.6841C69.8585 29.6841 70.1085 29.619 70.3116 29.4888C70.5148 29.3534 70.6788 29.1685 70.8038 28.9341C70.934 28.6997 71.0252 28.4289 71.0773 28.1216C71.1346 27.8143 71.1632 27.4836 71.1632 27.1294ZM84.8663 28.3091C84.8663 28.106 84.8351 27.9237 84.7726 27.7622C84.7153 27.5955 84.6059 27.4445 84.4445 27.3091C84.283 27.1685 84.0564 27.0304 83.7648 26.895C83.4731 26.7596 83.0955 26.619 82.632 26.4731C82.1163 26.3065 81.6267 26.119 81.1632 25.9106C80.7049 25.7023 80.2986 25.4601 79.9445 25.1841C79.5955 24.9028 79.3195 24.5773 79.1163 24.2075C78.9184 23.8377 78.8195 23.408 78.8195 22.9185C78.8195 22.4445 78.9236 22.0148 79.132 21.6294C79.3403 21.2388 79.632 20.9054 80.007 20.6294C80.382 20.3481 80.8247 20.132 81.3351 19.981C81.8507 19.8299 82.4158 19.7544 83.0304 19.7544C83.8689 19.7544 84.6007 19.9054 85.2257 20.2075C85.8507 20.5096 86.3351 20.9237 86.6788 21.4497C87.0278 21.9757 87.2023 22.5773 87.2023 23.2544H84.8741C84.8741 22.9211 84.8038 22.6294 84.6632 22.3794C84.5278 22.1242 84.3195 21.9237 84.0382 21.7778C83.7622 21.632 83.4132 21.5591 82.9913 21.5591C82.5851 21.5591 82.2465 21.6216 81.9757 21.7466C81.7049 21.8664 81.5017 22.0304 81.3663 22.2388C81.2309 22.4419 81.1632 22.6711 81.1632 22.9263C81.1632 23.119 81.2101 23.2935 81.3038 23.4497C81.4028 23.606 81.5486 23.7518 81.7413 23.8872C81.934 24.0226 82.171 24.1502 82.4523 24.27C82.7335 24.3898 83.059 24.507 83.4288 24.6216C84.0486 24.8091 84.5929 25.02 85.0616 25.2544C85.5356 25.4888 85.9314 25.7518 86.2491 26.0435C86.5669 26.3351 86.8064 26.6659 86.9679 27.0356C87.1294 27.4054 87.2101 27.8247 87.2101 28.2935C87.2101 28.7882 87.1137 29.231 86.921 29.6216C86.7283 30.0122 86.4497 30.3429 86.0851 30.6138C85.7205 30.8846 85.2856 31.0903 84.7804 31.231C84.2752 31.3716 83.7101 31.4419 83.0851 31.4419C82.5226 31.4419 81.9679 31.369 81.421 31.2231C80.8741 31.0721 80.3767 30.8455 79.9288 30.5435C79.4861 30.2414 79.132 29.856 78.8663 29.3872C78.6007 28.9185 78.4679 28.3638 78.4679 27.7231H80.8195C80.8195 28.0773 80.8741 28.3768 80.9835 28.6216C81.0929 28.8664 81.2465 29.0643 81.4445 29.2153C81.6476 29.3664 81.8872 29.4757 82.1632 29.5435C82.4445 29.6112 82.7517 29.645 83.0851 29.645C83.4913 29.645 83.8247 29.5877 84.0851 29.4731C84.3507 29.3586 84.546 29.1997 84.671 28.9966C84.8012 28.7935 84.8663 28.5643 84.8663 28.3091ZM92.8038 22.8325V24.4263H87.882V22.8325H92.8038ZM89.1007 20.7466H91.3507V28.7388C91.3507 28.9836 91.382 29.1711 91.4445 29.3013C91.5122 29.4315 91.6111 29.5226 91.7413 29.5747C91.8715 29.6216 92.0356 29.645 92.2335 29.645C92.3741 29.645 92.4991 29.6398 92.6085 29.6294C92.7231 29.6138 92.8195 29.5981 92.8976 29.5825L92.9054 31.2388C92.7127 31.3013 92.5044 31.3507 92.2804 31.3872C92.0564 31.4237 91.809 31.4419 91.5382 31.4419C91.0434 31.4419 90.6111 31.3612 90.2413 31.1997C89.8767 31.033 89.5955 30.7674 89.3976 30.4028C89.1997 30.0382 89.1007 29.5591 89.1007 28.9653V20.7466ZM93.5226 27.145V26.981C93.5226 26.3612 93.6111 25.7909 93.7882 25.27C93.9653 24.744 94.2231 24.2882 94.5616 23.9028C94.9002 23.5174 95.3169 23.2179 95.8116 23.0044C96.3064 22.7856 96.8741 22.6763 97.5148 22.6763C98.1554 22.6763 98.7257 22.7856 99.2257 23.0044C99.7257 23.2179 100.145 23.5174 100.484 23.9028C100.827 24.2882 101.088 24.744 101.265 25.27C101.442 25.7909 101.53 26.3612 101.53 26.981V27.145C101.53 27.7596 101.442 28.3299 101.265 28.856C101.088 29.3768 100.827 29.8325 100.484 30.2231C100.145 30.6086 99.7283 30.908 99.2335 31.1216C98.7387 31.3351 98.171 31.4419 97.5304 31.4419C96.8898 31.4419 96.3195 31.3351 95.8195 31.1216C95.3247 30.908 94.9054 30.6086 94.5616 30.2231C94.2231 29.8325 93.9653 29.3768 93.7882 28.856C93.6111 28.3299 93.5226 27.7596 93.5226 27.145ZM95.7726 26.981V27.145C95.7726 27.4992 95.8038 27.8299 95.8663 28.1372C95.9288 28.4445 96.0278 28.7153 96.1632 28.9497C96.3038 29.1789 96.4861 29.3586 96.7101 29.4888C96.934 29.619 97.2075 29.6841 97.5304 29.6841C97.8429 29.6841 98.1111 29.619 98.3351 29.4888C98.559 29.3586 98.7387 29.1789 98.8741 28.9497C99.0096 28.7153 99.1085 28.4445 99.171 28.1372C99.2387 27.8299 99.2726 27.4992 99.2726 27.145V26.981C99.2726 26.6372 99.2387 26.3143 99.171 26.0122C99.1085 25.7049 99.007 25.4341 98.8663 25.1997C98.7309 24.9601 98.5512 24.7726 98.3273 24.6372C98.1033 24.5018 97.8325 24.4341 97.5148 24.4341C97.1971 24.4341 96.9262 24.5018 96.7023 24.6372C96.4835 24.7726 96.3038 24.9601 96.1632 25.1997C96.0278 25.4341 95.9288 25.7049 95.8663 26.0122C95.8038 26.3143 95.7726 26.6372 95.7726 26.981ZM105.163 24.6763V31.2856H102.913V22.8325H105.03L105.163 24.6763ZM107.71 22.7778L107.671 24.8638C107.562 24.8481 107.429 24.8351 107.273 24.8247C107.122 24.8091 106.984 24.8013 106.859 24.8013C106.541 24.8013 106.265 24.8429 106.03 24.9263C105.801 25.0044 105.609 25.1216 105.452 25.2778C105.301 25.4341 105.187 25.6242 105.109 25.8481C105.036 26.0721 104.994 26.3273 104.984 26.6138L104.53 26.4731C104.53 25.9263 104.585 25.4237 104.694 24.9653C104.804 24.5018 104.963 24.0981 105.171 23.7544C105.385 23.4106 105.645 23.145 105.952 22.9575C106.26 22.77 106.611 22.6763 107.007 22.6763C107.132 22.6763 107.26 22.6867 107.39 22.7075C107.52 22.7231 107.627 22.7466 107.71 22.7778ZM112.507 31.4419C111.851 31.4419 111.262 31.3377 110.741 31.1294C110.22 30.9159 109.778 30.6216 109.413 30.2466C109.054 29.8716 108.778 29.4367 108.585 28.9419C108.392 28.4419 108.296 27.9106 108.296 27.3481V27.0356C108.296 26.395 108.387 25.8091 108.569 25.2778C108.752 24.7466 109.012 24.2856 109.351 23.895C109.694 23.5044 110.111 23.2049 110.601 22.9966C111.09 22.783 111.642 22.6763 112.257 22.6763C112.856 22.6763 113.387 22.7752 113.851 22.9731C114.314 23.1711 114.702 23.4523 115.015 23.8169C115.332 24.1815 115.572 24.619 115.734 25.1294C115.895 25.6346 115.976 26.1971 115.976 26.8169V27.7544H109.257V26.2544H113.765V26.0825C113.765 25.77 113.707 25.4914 113.593 25.2466C113.484 24.9966 113.317 24.7987 113.093 24.6528C112.869 24.507 112.582 24.4341 112.234 24.4341C111.937 24.4341 111.681 24.4992 111.468 24.6294C111.254 24.7596 111.08 24.9419 110.944 25.1763C110.814 25.4106 110.715 25.6867 110.648 26.0044C110.585 26.3169 110.554 26.6606 110.554 27.0356V27.3481C110.554 27.6867 110.601 27.9992 110.694 28.2856C110.793 28.5721 110.931 28.8195 111.109 29.0278C111.291 29.2362 111.51 29.3976 111.765 29.5122C112.025 29.6268 112.319 29.6841 112.648 29.6841C113.054 29.6841 113.431 29.606 113.78 29.4497C114.135 29.2882 114.439 29.0461 114.694 28.7231L115.788 29.9106C115.611 30.1659 115.369 30.4106 115.062 30.645C114.76 30.8794 114.395 31.0721 113.968 31.2231C113.541 31.369 113.054 31.4419 112.507 31.4419Z" fill="#1B1D4D"/>
<defs>
<clipPath id="clip0_182_766">
<rect width="32" height="32" fill="white" transform="translate(0.555573 2.28564)"/>
</clipPath>
</defs>
</svg>
