<svg width="32" height="32" viewBox="0 0 32 32" fill="none" xmlns="http://www.w3.org/2000/svg">
<rect width="32" height="32" rx="16" fill="#FCBA06" fill-opacity="0.1"/>
<g clip-path="url(#clip0_333_18633)">
<path fill-rule="evenodd" clip-rule="evenodd" d="M16 26C14.0222 26 12.0888 25.4135 10.4443 24.3147C8.79981 23.2159 7.51809 21.6541 6.76121 19.8268C6.00433 17.9996 5.8063 15.9889 6.19215 14.0491C6.578 12.1093 7.53041 10.3275 8.92894 8.92893C10.3275 7.5304 12.1093 6.57801 14.0491 6.19215C15.9889 5.8063 17.9996 6.00432 19.8268 6.7612C21.6541 7.51808 23.2159 8.7998 24.3147 10.4443C25.4135 12.0888 26 14.0222 26 16C26 17.3132 25.7413 18.6136 25.2388 19.8268C24.7363 21.0401 23.9997 22.1425 23.0711 23.0711C22.1425 23.9997 21.0401 24.7363 19.8268 25.2388C18.6136 25.7413 17.3132 26 16 26ZM15 17V11H17V17H15ZM15 19V21H17V19H15Z" fill="#FCBA06"/>
</g>
<defs>
<clipPath id="clip0_333_18633">
<rect width="24" height="24" fill="white" transform="translate(4 4)"/>
</clipPath>
</defs>
</svg>
