<svg width="151" height="40" viewBox="0 0 151 40" fill="none" xmlns="http://www.w3.org/2000/svg">
<path d="M26.2985 13.9836L23.59 9.31509H20.4931L23.2033 13.9836L22.0773 15.9238H18.6448V9.31509H10.9299L8.21967 13.9836L10.1378 17.288L8.21967 20.5923L10.9299 25.2608H15.875V28.5347C13.3147 29.1532 11.4136 31.4476 11.4136 34.1843C11.4136 37.3955 14.0319 40 17.2599 40C20.488 40 23.1062 37.3972 23.1062 34.1843C23.1062 31.4476 21.2051 29.1532 18.6465 28.5347V25.2608V24.8795V18.6521H22.079L23.205 20.5923L23.1079 25.2608H26.2048L26.3019 20.5923L24.3838 17.288L26.2985 13.9836ZM19.7964 32.5084C19.0724 32.7253 18.5443 33.3947 18.5443 34.1843C18.5443 34.9757 19.0724 35.6433 19.7964 35.8619C19.2512 36.6787 18.3178 37.2159 17.2582 37.2159C16.1987 37.2159 15.2669 36.677 14.7201 35.8619C15.444 35.645 15.9721 34.9757 15.9721 34.1843C15.9721 33.393 15.444 32.7253 14.7201 32.5084C15.2669 31.6916 16.1987 31.1545 17.2582 31.1545C18.3178 31.1528 19.2512 31.6916 19.7964 32.5084ZM12.4766 11.9823H15.8733V15.9238H12.4408L11.3148 13.9836L12.4766 11.9823ZM11.3148 20.5923L12.4408 18.6521H15.8733V22.5936H12.4766L11.3148 20.5923Z" fill="#19255B"/>
<path d="M17.2603 0C7.72795 0 0 7.70408 0 17.207C0 24.6961 4.80154 31.0615 11.5035 33.4247C11.7292 30.949 13.5252 28.9285 15.8906 28.3558V28.0736C14.4164 28.4146 13.1461 29.2913 12.3021 30.4871C10.0361 29.6457 7.9992 28.2281 6.41385 26.3638C4.2422 23.8126 3.04603 20.561 3.04603 17.2086C3.04603 9.39538 9.42281 3.0383 17.2603 3.0383C25.0977 3.0383 31.4745 9.39538 31.4745 17.2086C31.4745 20.561 30.2783 23.8126 28.1067 26.3638C26.5197 28.2281 24.4828 29.6457 22.2185 30.4871C21.3744 29.2913 20.1041 28.4146 18.63 28.0736V28.3558C20.9954 28.9285 22.7913 30.9507 23.0171 33.4247C29.7173 31.0615 34.5205 24.6977 34.5205 17.207C34.5205 7.7024 26.7926 0 17.2603 0Z" fill="#C4A140"/>
<path d="M137.882 10.0031L140.109 15.2281H140.321C140.427 14.9099 140.527 14.5916 140.627 14.2734C140.724 13.9552 140.843 13.646 140.985 13.346L142.419 10.0031H150.587L143.746 21.3805V30H136.639V21.3805L129.665 10.0031H137.882Z" fill="#19255B"/>
<path d="M62.3513 30H54.6592L61.6088 10.0031H69.6433L76.7777 30H69.0857L68.4219 27.5087H62.9332L62.3513 30ZM67.149 22.7595L66.3004 19.2317C66.1943 18.8074 66.1064 18.3801 66.0337 17.9467C65.964 17.5133 65.8912 17.0859 65.8215 16.6616H65.5548L64.2274 22.7595H67.149Z" fill="#19255B"/>
<path d="M57.0782 21.2961C56.4629 20.6112 55.6568 20.0899 54.6566 19.7353V19.5777C55.5416 19.2958 56.1993 18.7745 56.6327 18.0138C57.0661 17.2531 57.2812 16.4318 57.2812 15.5468C57.2812 14.3981 57.057 13.4616 56.6054 12.7342C56.1538 12.0099 55.5628 11.4431 54.8294 11.037C54.0959 10.6309 53.2594 10.3581 52.3229 10.2157C51.3864 10.0732 50.4317 10.0035 49.4589 10.0035H41V29.9974H50.8924H54.0565L57.0782 21.2961ZM47.7343 14.8315H48.2375C48.5042 14.8315 48.7769 14.8376 49.0588 14.8436C49.3407 14.8527 49.6013 14.8982 49.8407 14.977C50.0802 15.0558 50.2741 15.1891 50.4226 15.374C50.5742 15.5589 50.6469 15.8377 50.6469 16.2105C50.6469 16.5651 50.5802 16.8379 50.4469 17.0318C50.3135 17.2258 50.1377 17.3713 49.9165 17.4683C49.6953 17.5653 49.4528 17.6259 49.1861 17.6532C48.9224 17.6804 48.6557 17.6926 48.392 17.6926H47.7283V14.8315H47.7343ZM51.1834 24.5087C50.9894 24.7391 50.7469 24.9058 50.4529 25.0118C50.162 25.1179 49.8468 25.1816 49.5104 25.1967C49.174 25.2149 48.8557 25.224 48.5557 25.224H47.7343V21.9083H48.4496C48.7315 21.9083 49.0497 21.9174 49.4043 21.9356C49.7589 21.9538 50.0893 22.0114 50.3984 22.1084C50.7075 22.2053 50.9651 22.366 51.1682 22.5842C51.3713 22.8054 51.4743 23.1267 51.4743 23.551C51.4743 23.9632 51.3773 24.2814 51.1834 24.5087Z" fill="#19255B"/>
<path d="M98.3295 29.997V10.0031H96.4777V30H98.3295V29.997Z" fill="#19255B"/>
<path d="M106.51 16.0949L109.835 10.0031H108.068L106.571 12.7459L106.51 16.0949Z" fill="#19255B"/>
<path d="M106.704 24.2415C106.64 24.1264 106.574 24.0082 106.507 23.893L106.568 27.0874L108.228 30H109.986L106.704 24.2415Z" fill="#19255B"/>
<path d="M119.639 10.0031H128.437L131.771 15.4645H126.958V17.3769H132.553V22.5716H126.958V24.5355H133.295V29.997H119.639V21.1108V10.0031Z" fill="#19255B"/>
<path d="M87.8134 10.003V15.9979C87.8134 16.8465 87.8801 17.6951 88.0135 18.5437C88.1468 19.3923 88.2832 20.2409 88.4256 21.0896H88.2135L81.6883 10.003H74.7145V22.3685L77.624 29.9969H81.661V23.499C81.661 22.8262 81.6155 22.1655 81.5276 21.5108C81.4397 20.8562 81.3337 20.1833 81.2094 19.4954H81.4215L87.8134 29.9969H94.7599V10H87.8134V10.003Z" fill="#19255B"/>
<path d="M98.9364 10.0031H106.016L105.859 18.6741H106.016C106.104 18.2679 106.247 17.88 106.441 17.5072C106.635 17.1375 106.829 16.7738 107.023 16.4192L110.523 10.0031H118.452L112.193 19.7348L119.115 29.997H110.684L107.235 23.9506C107.023 23.5627 106.789 23.1778 106.532 22.7959C106.274 22.4171 106.104 22.023 106.013 21.6169H105.856L106.013 29.997H98.9334V10.0031H98.9364Z" fill="#19255B"/>
</svg>
