<svg width="286" height="76" viewBox="0 0 286 76" fill="none" xmlns="http://www.w3.org/2000/svg">
<path d="M49.7792 26.7548L44.6524 17.918H38.7905L43.9205 26.7548L41.7892 30.4274H35.292V17.918H20.6887L15.5587 26.7548L19.1893 33.0095L15.5587 39.2642L20.6887 48.101H30.0491V54.298C25.2028 55.4687 21.6044 59.8117 21.6044 64.9919C21.6044 71.0702 26.5603 76.0002 32.6706 76.0002C38.7808 76.0002 43.7367 71.0734 43.7367 64.9919C43.7367 59.8117 40.1383 55.4687 35.2952 54.298V48.101V47.3793V35.5916H41.7924L43.9237 39.2642L43.7399 48.101H49.6019L49.7857 39.2642L46.155 33.0095L49.7792 26.7548ZM37.4717 61.8197C36.1013 62.2302 35.1018 63.4972 35.1018 64.9919C35.1018 66.4898 36.1013 67.7536 37.4717 68.1674C36.4399 69.7134 34.6729 70.7302 32.6673 70.7302C30.6618 70.7302 28.898 69.7102 27.863 68.1674C29.2333 67.7568 30.2329 66.4898 30.2329 64.9919C30.2329 63.494 29.2333 62.2302 27.863 61.8197C28.898 60.2736 30.6618 59.2568 32.6673 59.2568C34.6729 59.2536 36.4399 60.2736 37.4717 61.8197ZM23.6164 22.9666H30.0459V30.4274H23.5487L21.4174 26.7548L23.6164 22.9666ZM21.4174 39.2642L23.5487 35.5916H30.0459V43.0523H23.6164L21.4174 39.2642Z" fill="#19255B"/>
<path d="M32.6713 0.285645C14.6279 0.285645 0 14.8684 0 32.856C0 47.0318 9.08864 59.0808 21.7745 63.5538C22.2018 58.8677 25.6013 55.0432 30.0786 53.9591V53.425C27.2882 54.0704 24.8837 55.7299 23.2861 57.9935C18.9969 56.4007 15.1414 53.7175 12.1405 50.1887C8.02989 45.3596 5.76571 39.2047 5.76571 32.8592C5.76571 18.0698 17.8361 6.03672 32.6713 6.03672C47.5065 6.03672 59.5768 18.0698 59.5768 32.8592C59.5768 39.2047 57.3126 45.3596 53.202 50.1887C50.198 53.7175 46.3425 56.4007 42.0565 57.9935C40.4588 55.7299 38.0543 54.0704 35.2639 53.425V53.9591C39.7413 55.0432 43.1407 58.8709 43.5681 63.5538C56.2507 59.0808 65.3425 47.035 65.3425 32.856C65.3425 14.8652 50.7146 0.285645 32.6713 0.285645Z" fill="#C4A140"/>
<path d="M260.99 19.2202L265.207 29.1105H265.608C265.809 28.5081 265.998 27.9057 266.188 27.3034C266.371 26.701 266.595 26.1158 266.865 25.5479L269.578 19.2202H285.039L272.091 40.7562V57.0716H258.638V40.7562L245.438 19.2202H260.99Z" fill="#19255B"/>
<path d="M118.022 57.0716H103.462L116.617 19.2202H131.825L145.329 57.0716H130.769L129.513 52.356H119.124L118.022 57.0716ZM127.103 43.3664L125.497 36.6888C125.296 35.8856 125.13 35.0767 124.992 34.2564C124.86 33.436 124.723 32.6271 124.591 31.824H124.086L121.573 43.3664H127.103Z" fill="#19255B"/>
<path d="M108.041 40.5965C106.876 39.3 105.35 38.3133 103.457 37.6421V37.3438C105.132 36.8102 106.377 35.8235 107.198 34.3836C108.018 32.9436 108.425 31.389 108.425 29.7138C108.425 27.5396 108.001 25.7669 107.146 24.3901C106.291 23.019 105.173 21.9462 103.784 21.1774C102.396 20.4087 100.813 19.8924 99.0399 19.6228C97.2672 19.3531 95.4601 19.2212 93.6186 19.2212H77.6072V57.0669H96.3321H102.321L108.041 40.5965ZM90.3544 28.3599H91.3067C91.8115 28.3599 92.3278 28.3714 92.8613 28.3829C93.3949 28.4001 93.8882 28.4861 94.3414 28.6353C94.7946 28.7844 95.1618 29.0369 95.4429 29.3868C95.7297 29.7367 95.8674 30.2645 95.8674 30.9702C95.8674 31.6414 95.7412 32.1577 95.4888 32.5248C95.2364 32.892 94.9036 33.1674 94.4848 33.3509C94.0661 33.5345 93.6071 33.6493 93.1023 33.7009C92.6032 33.7525 92.0983 33.7755 91.5992 33.7755H90.3429V28.3599H90.3544ZM96.8828 46.6775C96.5157 47.1135 96.0567 47.4291 95.5003 47.6298C94.9495 47.8306 94.3529 47.9511 93.7161 47.9798C93.0793 48.0142 92.477 48.0314 91.909 48.0314H90.3544V41.7553H91.7082C92.2418 41.7553 92.8441 41.7726 93.5153 41.807C94.1865 41.8414 94.8118 41.9504 95.397 42.134C95.9822 42.3176 96.4698 42.6216 96.8541 43.0347C97.2385 43.4534 97.4336 44.0615 97.4336 44.8647C97.4336 45.6449 97.25 46.2473 96.8828 46.6775Z" fill="#19255B"/>
<path d="M186.124 57.0659V19.2202H182.618V57.0716H186.124V57.0659Z" fill="#19255B"/>
<path d="M201.608 30.7512L207.901 19.2202H204.557L201.723 24.412L201.608 30.7512Z" fill="#19255B"/>
<path d="M201.975 46.1719C201.855 45.9539 201.729 45.7302 201.602 45.5122L201.717 51.5588L204.861 57.0719H208.188L201.975 46.1719Z" fill="#19255B"/>
<path d="M226.459 19.2202H243.113L249.424 29.5579H240.313V33.1779H250.904V43.0107H240.313V46.7282H252.309V57.0659H226.459V40.2456V19.2202Z" fill="#19255B"/>
<path d="M166.218 19.2201V30.5675C166.218 32.1738 166.344 33.7801 166.597 35.3864C166.849 36.9927 167.107 38.599 167.377 40.2053H166.975L154.624 19.2201H141.424V42.6262L146.931 57.0658H154.572V44.7661C154.572 43.4925 154.486 42.2419 154.32 41.0027C154.154 39.7636 153.953 38.49 153.718 37.1877H154.119L166.218 57.0658H179.367V19.2144H166.218V19.2201Z" fill="#19255B"/>
<path d="M187.273 19.2202H200.674L200.376 35.6332H200.674C200.841 34.8645 201.11 34.1302 201.477 33.4245C201.845 32.7247 202.212 32.0362 202.579 31.365L209.205 19.2202H224.212L212.366 37.6411L225.469 57.0659H209.509L202.98 45.621C202.579 44.8867 202.137 44.1581 201.649 43.4353C201.162 42.7182 200.841 41.9724 200.669 41.2036H200.37L200.669 57.0659H187.267V19.2202H187.273Z" fill="#19255B"/>
</svg>
