<svg width="138" height="89" viewBox="0 0 138 89" fill="none" xmlns="http://www.w3.org/2000/svg">
<g clip-path="url(#clip0_32_4234)">
<g opacity="0.05">
<g opacity="0.05">
<g opacity="0.05">
<g opacity="0.05">
<path opacity="0.05" d="M12.1107 36.2166C12.1107 29.8646 16.3577 23.5089 24.8628 18.6623C33.3679 13.8157 44.5109 11.3887 55.654 11.3887C66.7971 11.3887 77.9383 13.8157 86.4406 18.6623C94.9429 23.5089 99.1945 29.8609 99.1945 36.2166C99.1945 42.5723 94.9475 48.9225 86.4406 53.7692C77.9336 58.6158 66.7989 61.041 55.6559 61.041C44.5128 61.041 33.3697 58.6204 24.8665 53.7692C16.3633 48.9179 12.1107 42.5668 12.1107 36.2166Z" fill="#9C9EB9"/>
<path opacity="0.05" d="M86.4406 53.7692C77.9401 58.6195 66.7989 61.0409 55.6559 61.0409C44.5128 61.0409 33.3697 58.6204 24.8665 53.7692C16.3633 48.9179 12.1107 42.5668 12.1107 36.2166V48.4709C12.1107 54.823 16.3614 61.1768 24.8665 66.0253C33.3716 70.8737 44.5128 73.297 55.6559 73.297C66.7989 73.297 77.9401 70.8737 86.4406 66.0253C94.941 61.1768 99.1991 54.8266 99.1945 48.4691V36.2166C99.1991 42.5668 94.9475 48.9225 86.4406 53.7692Z" fill="#9C9EB9"/>
<path opacity="0.05" d="M30.6509 50.4729C37.5563 54.4062 46.6042 56.3788 55.6549 56.3788C64.7056 56.3788 73.7526 54.4053 80.659 50.4729C87.0336 46.8398 90.457 42.1666 90.9459 37.4109C90.457 32.657 87.0336 27.9856 80.659 24.3488C73.7536 20.41 64.7038 18.4448 55.6549 18.4448C46.6061 18.4448 37.5572 20.41 30.6509 24.3488C24.2809 27.9856 20.8593 32.6542 20.3639 37.409C20.8575 42.1648 24.2762 46.8379 30.6509 50.4729Z" fill="#9C9EB9"/>
<path opacity="0.05" d="M30.6462 24.3489C37.5544 20.4101 46.6014 18.4448 55.6503 18.4448C64.6991 18.4448 73.7498 20.4101 80.6543 24.3489C87.0289 27.9857 90.4524 32.657 90.9413 37.4109C90.9885 37.0148 91.0133 36.6165 91.0156 36.2176C91.0156 31.0562 87.5634 25.8983 80.6552 21.9614C73.7471 18.0244 64.7001 16.0536 55.6512 16.0536C46.6023 16.0536 37.5535 18.0235 30.6472 21.9614C23.7408 25.8993 20.2905 31.0562 20.2905 36.2176C20.2923 36.6164 20.3155 37.0147 20.3602 37.4109C20.8547 32.6543 24.2762 27.9848 30.6462 24.3489Z" fill="#9C9EB9"/>
</g>
<g opacity="0.05">
<path opacity="0.05" d="M73.0732 31.0854L76.4194 29.1799V26.7933L73.0732 28.6952V31.0854Z" fill="#9C9EB9"/>
<path opacity="0.05" d="M57.645 35.0793C57.0807 34.8917 56.5902 34.5338 56.2428 34.0563C55.8953 33.5787 55.7084 33.0055 55.7084 32.4174C55.7084 31.8293 55.8953 31.2561 56.2428 30.7785C56.5902 30.3009 57.0807 29.9431 57.645 29.7554C59.0925 29.0323 60.6919 28.6556 62.314 28.6556C63.9361 28.6556 65.5355 29.0323 66.983 29.7554C69.5596 31.2241 69.5596 33.6107 66.983 35.0793L71.2225 37.4944C75.4053 35.1143 76.0133 31.4581 73.0723 28.6961L76.4185 26.7942L72.1808 24.3727L68.8346 26.282C63.9955 24.6086 57.5874 24.9565 53.4046 27.3431C51.0231 28.6952 49.7162 30.4971 49.7162 32.4146C49.7162 34.3322 51.0231 36.1395 53.4046 37.4935C55.9793 38.9622 55.9831 41.3488 53.4046 42.8175C51.9569 43.5421 50.3568 43.9197 48.7337 43.9197C47.1107 43.9197 45.5106 43.5421 44.0629 42.8175C41.4882 41.3488 41.4882 38.9622 44.0629 37.4935L39.8271 35.0784C35.6443 37.465 35.0364 41.1156 37.9681 43.8776L34.883 45.6355L39.1225 48.0542L42.2095 46.2927C47.0522 47.9651 53.4566 47.6237 57.6395 45.2399C62.5575 42.4356 62.5575 37.8827 57.645 35.0793Z" fill="#9C9EB9"/>
<path opacity="0.05" d="M34.8895 48.0276L39.1291 50.4427V48.056L34.8895 45.6364V48.0276Z" fill="#9C9EB9"/>
<path opacity="0.05" d="M39.129 50.4435L42.216 48.6821V46.2955L39.129 48.057V50.4435Z" fill="#9C9EB9"/>
<path opacity="0.05" d="M66.9839 37.4688L71.2234 39.8857V37.499L66.9839 35.084V37.4688Z" fill="#9C9EB9"/>
<path opacity="0.05" d="M44.0676 39.8856V37.499C42.2411 38.5436 41.7168 40.0472 42.4827 41.3543C42.8704 40.7352 43.4172 40.2284 44.0676 39.8856Z" fill="#9C9EB9"/>
<path opacity="0.05" d="M36.1536 40.038L36.162 42.7302L36.1676 42.7247C36.2024 43.3836 36.3816 44.0272 36.6927 44.6111L37.9746 43.8767C37.4147 43.4012 36.9636 42.8134 36.6514 42.1525C36.3393 41.4916 36.173 40.7727 36.1638 40.0435L36.1536 40.038Z" fill="#9C9EB9"/>
<path opacity="0.05" d="M53.4083 39.8837C54.059 40.2264 54.6061 40.7331 54.9941 41.3524C55.7591 40.0425 55.2357 38.539 53.4083 37.4972C51.0269 36.1432 49.72 34.3377 49.72 32.4183V34.8131C49.72 36.7252 51.0269 38.5298 53.4083 39.8837Z" fill="#9C9EB9"/>
<path opacity="0.05" d="M61.3278 40.1518V40.0995C61.3259 40.1142 61.3278 40.127 61.3278 40.1518Z" fill="#9C9EB9"/>
<path opacity="0.05" d="M74.8885 32.4156C74.8941 34.256 73.6802 36.0946 71.2234 37.4944V39.881C73.7434 38.4445 74.9564 36.5508 74.8885 34.6635L74.8941 34.6718V32.4119L74.8885 32.4156Z" fill="#9C9EB9"/>
<path opacity="0.05" d="M57.645 45.2371C53.4622 47.6237 47.0587 47.9624 42.215 46.2891V48.6756C47.0578 50.3508 53.4622 50.0066 57.645 47.6191C60.0813 46.233 61.3027 44.4064 61.3259 42.5871V40.1647C61.3222 42.0051 60.0971 43.8437 57.645 45.2371Z" fill="#9C9EB9"/>
<path opacity="0.05" d="M66.9839 29.7545C65.5364 29.0315 63.937 28.6548 62.3149 28.6548C60.6928 28.6548 59.0934 29.0315 57.646 29.7545C57.1133 29.9889 56.6534 30.359 56.3133 30.8267C55.9732 31.2945 55.7652 31.8432 55.7107 32.4165C55.7165 32.8385 55.8345 33.2516 56.0528 33.6144C56.4459 32.9981 56.995 32.4938 57.646 32.1512C59.0922 31.4247 60.6916 31.0455 62.3143 31.0446C63.9369 31.0436 65.5368 31.4208 66.9839 32.1457C67.6345 32.4888 68.1819 32.9954 68.5706 33.6144C69.3374 32.3009 68.8141 30.7982 66.9839 29.7545Z" fill="#9C9EB9"/>
</g>
</g>
</g>
<g opacity="0.05">
<g opacity="0.05">
<path opacity="0.05" d="M122.189 35.7164C117.69 31.2728 112.221 27.9047 106.201 25.8698C96.3298 22.4827 85.5576 22.7011 77.6427 27.2403C73.8344 29.3283 70.8387 32.6093 69.1283 36.5654L65.3991 45.4821C67.1099 41.5262 70.1063 38.2457 73.9153 36.1588C79.063 33.2003 85.4283 32.0786 91.961 32.5872C101.951 33.3976 111.332 37.6619 118.452 44.6294C126.477 52.6851 128.806 62.4169 125.581 70.1266L129.308 61.208C132.543 53.4938 130.213 43.7693 122.189 35.7164Z" fill="#9C9EB9"/>
<path opacity="0.05" d="M121.193 38.0911C133.091 50.0241 132.464 65.6462 119.799 72.9115C107.134 80.1769 87.1647 76.3776 75.2678 64.4428C63.3709 52.5079 63.9927 36.8803 76.649 29.6167C89.3054 22.3532 109.291 26.148 121.193 38.0911Z" fill="#9C9EB9"/>
<path opacity="0.05" d="M136.28 64.0362C135.04 67.009 133.797 69.9819 132.55 72.9547C130.44 77.832 126.744 81.876 122.047 84.448C106.442 93.4015 81.8981 88.7366 67.234 74.0259C57.3467 64.1023 54.4754 52.1436 58.4426 42.666C59.6857 39.6913 60.9287 36.7178 62.1718 33.7456C58.2083 43.2287 61.0768 55.1855 70.9688 65.111C85.6273 79.8207 110.173 84.4838 125.778 75.5295C130.474 72.9571 134.169 68.9132 136.28 64.0362Z" fill="#9C9EB9"/>
<path opacity="0.05" d="M127.485 32.6716C142.145 47.3841 141.385 66.5696 125.777 75.5295C110.168 84.4893 85.6217 79.8207 70.9678 65.111C56.314 50.4013 57.0706 31.2075 72.6763 22.2532C88.282 13.2988 112.817 17.9546 127.485 32.6716ZM76.2689 62.0663C88.1667 73.9993 108.139 77.7958 120.8 70.5341C133.461 63.2724 134.085 47.6485 122.194 35.7155C110.304 23.7825 90.3121 19.9749 77.6521 27.2394C64.992 34.5038 64.3692 50.1278 76.2717 62.0654L76.2689 62.0663Z" fill="#9C9EB9"/>
</g>
<g opacity="0.05">
<path opacity="0.05" d="M80.9815 56.4082L82.7094 55.4141C81.9874 54.396 81.5168 53.2252 81.3354 51.9953C81.1539 50.7653 81.2667 49.5105 81.6646 48.3314L80.6812 50.6574H80.6887C80.0132 52.5373 80.1184 54.6047 80.9815 56.4082Z" fill="#9C9EB9"/>
<path opacity="0.05" d="M96.1205 52.4786C96.6198 52.94 97.0206 53.4952 97.2997 54.1117C97.5787 54.7282 97.7302 55.3935 97.7454 56.0686C99.2475 54.5246 99.0625 52.0581 97.1105 50.1076C96.1332 49.2137 95.3522 48.1312 94.8159 46.9271C94.2796 45.723 93.9995 44.4229 93.9929 43.1075C94.0236 42.2524 94.2201 41.411 94.5719 40.6291L93.6304 42.8899H93.6378C93.2493 43.7027 93.0324 44.5849 93.0002 45.4831C93.0059 46.7982 93.2858 48.0981 93.8227 49.3017C94.3596 50.5053 95.1417 51.5867 96.1205 52.4786Z" fill="#9C9EB9"/>
<path opacity="0.05" d="M88.5868 48.4801C88.0217 48.7801 87.5476 49.2232 87.2132 49.7639C86.8788 50.3047 86.6962 50.9235 86.6841 51.557C86.9525 51.283 87.2577 51.0467 87.5913 50.8547L88.5868 48.4801Z" fill="#9C9EB9"/>
<path opacity="0.05" d="M115.498 42.5026C115.781 42.9431 116.028 43.4054 116.236 43.885L117.651 43.0699L118.647 40.6961L115.498 42.5026Z" fill="#9C9EB9"/>
<path opacity="0.05" d="M109.625 49.4348L108.631 51.8103L112.375 55.5665L113.369 53.1881L109.625 49.4348Z" fill="#9C9EB9"/>
<path opacity="0.05" d="M113.369 53.1881L112.376 55.5665C113.73 54.8212 114.803 53.6614 115.431 52.2619L115.438 52.2527C115.442 52.2376 115.448 52.2229 115.455 52.2087L116.437 49.8634C115.811 51.2736 114.733 52.4417 113.369 53.1881Z" fill="#9C9EB9"/>
<path opacity="0.05" d="M118.646 40.6952L115.498 42.5026C118.038 46.4717 117.298 50.9346 113.369 53.189L109.625 49.4357C112.05 48.0478 112.17 45.0599 109.89 42.7724C107.609 40.485 103.785 39.7561 101.366 41.1468C100.811 41.4397 100.344 41.8707 100.01 42.3968C99.6767 42.923 99.488 43.5262 99.4631 44.1466C99.4666 44.8366 99.6136 45.5186 99.8951 46.1502C100.176 46.7818 100.586 47.3495 101.099 47.8183C105.44 52.1766 105.211 57.8732 100.592 60.5223C96.655 62.7832 90.7879 62.1057 86.447 59.1702L83.5451 60.8409L79.8019 57.0865L82.7094 55.415C80.1644 51.4459 80.9053 46.9829 84.8409 44.723L88.5868 48.481C86.1561 49.8735 86.0361 52.8614 88.3209 55.1516C90.6057 57.4418 94.4177 58.166 96.8466 56.769C99.2754 55.3719 99.3915 52.3914 97.1114 50.1103C96.134 49.2165 95.353 48.134 94.8167 46.9299C94.2805 45.7257 94.0003 44.4257 93.9938 43.1103C94.0425 41.928 94.4024 40.7786 95.0381 39.7756C95.6738 38.7726 96.5634 37.9506 97.6189 37.3907C101.55 35.1335 107.414 35.8091 111.753 38.7483L114.901 36.9382L118.646 40.6952Z" fill="#9C9EB9"/>
<path opacity="0.05" d="M79.802 57.0856L78.8064 59.4575L82.5505 63.2154L83.5442 60.8399L79.802 57.0856Z" fill="#9C9EB9"/>
<path opacity="0.05" d="M83.5442 60.8399L82.5505 63.2155L85.458 61.5476L86.447 59.1711L83.5442 60.8399Z" fill="#9C9EB9"/>
<path opacity="0.05" d="M103.073 58.2532C103.073 58.2532 103.068 58.2532 103.068 58.2605C102.889 58.5174 102.694 58.7627 102.484 58.9948C101.942 59.6022 101.302 60.1179 100.592 60.5214C96.6551 62.7822 90.7879 62.1048 86.447 59.1692L85.4581 61.5448C89.7952 64.4822 95.6614 65.1541 99.5979 62.897C100.867 62.1936 101.889 61.1251 102.529 59.8338V59.8512L103.551 57.4224C103.412 57.7101 103.252 57.9877 103.073 58.2532Z" fill="#9C9EB9"/>
<path opacity="0.05" d="M110.544 48.7224C112.031 47.1812 111.832 44.7202 109.893 42.7715C107.611 40.4767 103.789 39.7552 101.37 41.1459C100.815 41.4388 100.348 41.8697 100.014 42.3958C99.6805 42.922 99.4918 43.5252 99.4669 44.1456C99.4669 44.1704 99.4669 44.1961 99.4669 44.2246C99.7343 43.9492 100.039 43.7117 100.372 43.5187C102.789 42.1308 106.616 42.856 108.9 45.1471C109.868 46.0494 110.45 47.2838 110.526 48.5966L110.544 48.7224Z" fill="#9C9EB9"/>
</g>
</g>
</g>
<path d="M0 24.828C0 18.4759 4.24697 12.1203 12.7521 7.27363C21.2572 2.427 32.4002 0 43.5433 0C54.6863 0 65.8276 2.427 74.3299 7.27363C82.8322 12.1203 87.0838 18.4723 87.0838 24.828C87.0838 31.1837 82.8368 37.5339 74.3299 42.3805C65.8229 47.2271 54.6882 49.6523 43.5451 49.6523C32.4021 49.6523 21.259 47.2317 12.7558 42.3805C4.25255 37.5293 0 31.1782 0 24.828Z" fill="#FFE950"/>
<path d="M74.3299 42.3805C65.8294 47.2308 54.6882 49.6523 43.5451 49.6523C32.4021 49.6523 21.259 47.2317 12.7558 42.3805C4.25255 37.5293 0 31.1781 0 24.8279V37.0823C0 43.4343 4.25069 49.7881 12.7558 54.6366C21.2609 59.4851 32.4021 61.9084 43.5451 61.9084C54.6882 61.9084 65.8294 59.4851 74.3299 54.6366C82.8303 49.7881 87.0884 43.4379 87.0838 37.0804V24.8279C87.0884 31.1781 82.8368 37.5338 74.3299 42.3805Z" fill="url(#paint0_linear_32_4234)"/>
<path d="M18.5402 39.0842C25.4455 43.0175 34.4935 44.9902 43.5442 44.9902C52.5949 44.9902 61.6419 43.0166 68.5482 39.0842C74.9229 35.4511 78.3463 30.778 78.8352 26.0222C78.3463 21.2683 74.9229 16.5969 68.5482 12.9601C61.6428 9.02132 52.5931 7.05609 43.5442 7.05609C34.4953 7.05609 25.4465 9.02132 18.5402 12.9601C12.1702 16.5969 8.74861 21.2655 8.25317 26.0204C8.74675 30.7761 12.1655 35.4493 18.5402 39.0842Z" fill="#FFD03E"/>
<path d="M18.5355 12.9602C25.4437 9.02143 34.4907 7.05615 43.5396 7.05615C52.5884 7.05615 61.6391 9.02143 68.5436 12.9602C74.9182 16.597 78.3416 21.2683 78.8306 26.0223C78.8778 25.6262 78.9026 25.2278 78.9049 24.829C78.9049 19.6675 75.4527 14.5097 68.5445 10.5727C61.6363 6.63573 52.5893 4.66492 43.5405 4.66492C34.4916 4.66492 25.4428 6.63481 18.5364 10.5727C11.6301 14.5106 8.17975 19.6675 8.17975 24.829C8.18153 25.2277 8.2048 25.626 8.24946 26.0223C8.74397 21.2656 12.1655 16.5961 18.5355 12.9602Z" fill="url(#paint1_linear_32_4234)"/>
<path d="M60.9625 19.6968L64.3087 17.7912V15.4046L60.9625 17.3065V19.6968Z" fill="#E19100"/>
<path d="M45.5343 23.6907C44.97 23.503 44.4795 23.1452 44.132 22.6676C43.7846 22.19 43.5977 21.6168 43.5977 21.0287C43.5977 20.4407 43.7846 19.8674 44.132 19.3899C44.4795 18.9123 44.97 18.5544 45.5343 18.3667C46.9818 17.6437 48.5812 17.2669 50.2033 17.2669C51.8254 17.2669 53.4248 17.6437 54.8723 18.3667C57.4489 19.8354 57.4489 22.222 54.8723 23.6907L59.1118 26.1058C63.2946 23.7256 63.9025 20.0695 60.9615 17.3074L64.3078 15.4055L60.0701 12.984L56.7239 14.8933C51.8848 13.2199 45.4767 13.5678 41.2939 15.9544C38.9124 17.3065 37.6055 19.1084 37.6055 21.026C37.6055 22.9435 38.9124 24.7509 41.2939 26.1048C43.8686 27.5735 43.8723 29.9601 41.2939 31.4288C39.8462 32.1535 38.246 32.5311 36.623 32.5311C35 32.5311 33.3998 32.1535 31.9522 31.4288C29.3774 29.9601 29.3774 27.5735 31.9522 26.1048L27.7164 23.6898C23.5336 26.0764 22.9256 29.727 25.8573 32.489L22.7723 34.2468L27.0118 36.6655L30.0987 34.904C34.9415 36.5765 41.3459 36.235 45.5287 33.8512C50.4468 31.0469 50.4468 26.494 45.5343 23.6907Z" fill="#FFE950"/>
<path d="M22.7788 36.639L27.0183 39.054V36.6674L22.7788 34.2477V36.639Z" fill="#FCBA06"/>
<path d="M27.0183 39.0549L30.1052 37.2934V34.9068L27.0183 36.6683V39.0549Z" fill="#E19100"/>
<path d="M54.8732 26.0801L59.1127 28.497V26.1104L54.8732 23.6953V26.0801Z" fill="#FCBA06"/>
<path d="M31.9568 28.4969V26.1104C30.1303 27.1549 29.6061 28.6585 30.372 29.9656C30.7597 29.3465 31.3065 28.8397 31.9568 28.4969Z" fill="#E19100"/>
<path d="M24.0429 28.6493L24.0513 31.3415L24.0568 31.3361C24.0917 31.9949 24.2709 32.6385 24.582 33.2224L25.8638 32.4881C25.3039 32.0125 24.8529 31.4248 24.5407 30.7639C24.2285 30.103 24.0623 29.384 24.0531 28.6548L24.0429 28.6493Z" fill="#FCBA06"/>
<path d="M41.2976 28.4951C41.9482 28.8377 42.4954 29.3444 42.8833 29.9637C43.6483 28.6538 43.125 27.1503 41.2976 26.1085C38.9162 24.7546 37.6093 22.949 37.6093 21.0296V23.4245C37.6093 25.3365 38.9162 27.1411 41.2976 28.4951Z" fill="#FCBA06"/>
<path d="M49.2171 28.7631V28.7108C49.2152 28.7255 49.2171 28.7384 49.2171 28.7631Z" fill="#FBBA05"/>
<path d="M62.7778 21.0269C62.7834 22.8673 61.5694 24.7059 59.1127 26.1057V28.4924C61.6327 27.0558 62.8457 25.1621 62.7778 23.2749L62.7834 23.2832V21.0232L62.7778 21.0269Z" fill="#E19100"/>
<path d="M45.5343 33.8484C41.3515 36.235 34.948 36.5738 30.1043 34.9004V37.287C34.9471 38.9622 41.3515 38.6179 45.5343 36.2304C47.9706 34.8444 49.192 33.0177 49.2152 31.1984V28.776C49.2115 30.6164 47.9864 32.455 45.5343 33.8484Z" fill="url(#paint2_linear_32_4234)"/>
<path d="M54.8732 18.3658C53.4257 17.6428 51.8263 17.2662 50.2042 17.2662C48.5821 17.2662 46.9827 17.6428 45.5352 18.3658C45.0026 18.6002 44.5426 18.9703 44.2026 19.4381C43.8625 19.9058 43.6545 20.4545 43.6 21.0278C43.6058 21.4498 43.7238 21.8629 43.942 22.2257C44.3351 21.6094 44.8843 21.1051 45.5352 20.7626C46.9815 20.036 48.5809 19.6568 50.2035 19.6559C51.8261 19.6549 53.4261 20.0322 54.8732 20.757C55.5238 21.1001 56.0711 21.6067 56.4599 22.2257C57.2267 20.9122 56.7034 19.4095 54.8732 18.3658Z" fill="#E19100"/>
<path d="M110.078 24.3277C105.579 19.8841 100.111 16.516 94.0905 14.4811C84.219 11.094 73.4468 11.3125 65.532 15.8516C61.7237 17.9397 58.7279 21.2207 57.0176 25.1768L53.2884 34.0935C54.9992 30.1375 57.9956 26.857 61.8046 24.7701C66.9523 21.8117 73.3176 20.69 79.8502 21.1985C89.8405 22.009 99.2212 26.2732 106.342 33.2407C114.366 41.2964 116.695 51.0282 113.47 58.7379L117.197 49.8193C120.432 42.1051 118.103 32.3806 110.078 24.3277Z" fill="url(#paint3_linear_32_4234)"/>
<path d="M109.083 26.7024C120.981 38.6354 120.353 54.2575 107.688 61.5229C95.0237 68.7882 75.054 64.9889 63.1571 53.0541C51.2602 41.1192 51.882 25.4916 64.5383 18.2281C77.1946 10.9645 97.1802 14.7593 109.083 26.7024Z" fill="#FFD03E"/>
<path d="M124.169 52.6475C122.929 55.6204 121.686 58.5932 120.44 61.5661C118.329 66.4433 114.633 70.4873 109.936 73.0594C94.3313 82.0128 69.7874 77.3479 55.1233 62.6373C45.236 52.7136 42.3647 40.7549 46.3319 31.2773C47.575 28.3026 48.818 25.3292 50.0611 22.3569C46.0976 31.84 48.9661 43.7969 58.858 53.7224C73.5165 68.4321 98.0624 73.0952 113.667 64.1408C118.364 61.5684 122.059 57.5245 124.169 52.6475Z" fill="url(#paint4_linear_32_4234)"/>
<path d="M115.375 21.283C130.034 35.9954 129.275 55.181 113.666 64.1408C98.0577 73.1007 73.511 68.4321 58.8571 53.7224C44.2033 39.0126 44.9599 19.8189 60.5656 10.8645C76.1713 1.91017 100.706 6.56591 115.375 21.283ZM64.1582 50.6776C76.056 62.6106 96.0285 66.4072 108.689 59.1455C121.35 51.8838 121.974 36.2598 110.084 24.3268C98.1934 12.3938 78.2014 8.58623 65.5413 15.8507C52.8813 23.1151 52.2585 38.7391 64.161 50.6767L64.1582 50.6776Z" fill="#FFE950"/>
<path d="M68.8707 45.0195L70.5987 44.0254C69.8767 43.0074 69.4061 41.8365 69.2246 40.6066C69.0432 39.3767 69.156 38.1218 69.5539 36.9427L68.5705 39.2688H68.578C67.9025 41.1486 68.0077 43.216 68.8707 45.0195Z" fill="#FCBA06"/>
<path d="M84.0098 41.0899C84.509 41.5513 84.9099 42.1066 85.1889 42.723C85.468 43.3395 85.6195 44.0048 85.6346 44.6799C87.1367 43.1359 86.9518 40.6695 84.9998 38.7189C84.0225 37.8251 83.2414 36.7425 82.7052 35.5384C82.1689 34.3343 81.8888 33.0342 81.8822 31.7188C81.9129 30.8637 82.1094 30.0224 82.4612 29.2404L81.5197 31.5013H81.527C81.1385 32.314 80.9217 33.1963 80.8895 34.0944C80.8951 35.4096 81.1751 36.7094 81.712 37.913C82.2488 39.1166 83.031 40.198 84.0098 41.0899Z" fill="#FCBA06"/>
<path d="M76.4761 37.0914C75.911 37.3914 75.4368 37.8345 75.1025 38.3753C74.7681 38.916 74.5855 39.5348 74.5734 40.1683C74.8418 39.8943 75.147 39.658 75.4805 39.4661L76.4761 37.0914Z" fill="#E19100"/>
<path d="M103.387 31.1139C103.671 31.5545 103.917 32.0167 104.126 32.4963L105.54 31.6812L106.536 29.3074L103.387 31.1139Z" fill="#E19100"/>
<path d="M97.5139 38.0461L96.5203 40.4217L100.264 44.1778L101.258 41.7995L97.5139 38.0461Z" fill="#FCBA06"/>
<path d="M101.258 41.7995L100.265 44.1778C101.619 43.4325 102.692 42.2727 103.321 40.8732L103.327 40.8641C103.331 40.8489 103.337 40.8342 103.344 40.82L104.326 38.4747C103.7 39.8849 102.622 41.053 101.258 41.7995Z" fill="#E19100"/>
<path d="M106.535 29.3065L103.387 31.1139C105.927 35.083 105.187 39.546 101.258 41.8004L97.5139 38.047C99.939 36.6591 100.059 33.6712 97.7788 31.3838C95.4987 29.0963 91.6746 28.3675 89.2551 29.7581C88.7007 30.051 88.2335 30.482 87.8997 31.0082C87.566 31.5344 87.3773 32.1375 87.3524 32.7579C87.3559 33.4479 87.5029 34.1299 87.7843 34.7615C88.0658 35.3931 88.4755 35.9609 88.9883 36.4296C93.3292 40.7879 93.1005 46.4846 88.4808 49.1337C84.5443 51.3945 78.6771 50.7171 74.3363 47.7816L71.4344 49.4522L67.6912 45.6979L70.5987 44.0263C68.0537 40.0572 68.7946 35.5943 72.7302 33.3343L76.476 37.0923C74.0453 38.4848 73.9254 41.4727 76.2102 43.7629C78.4949 46.0531 82.307 46.7774 84.7358 45.3803C87.1647 43.9832 87.2808 41.0027 85.0007 38.7217C84.0233 37.8279 83.2423 36.7453 82.706 35.5412C82.1697 34.3371 81.8896 33.037 81.8831 31.7216C81.9317 30.5393 82.2917 29.39 82.9274 28.387C83.5631 27.384 84.4526 26.5619 85.5082 26.002C89.4391 23.7448 95.3035 24.4204 99.6425 27.3596L102.79 25.5495L106.535 29.3065Z" fill="#FFE950"/>
<path d="M67.6912 45.697L66.6957 48.0689L70.4397 51.8268L71.4335 49.4513L67.6912 45.697Z" fill="#FCBA06"/>
<path d="M71.4334 49.4512L70.4398 51.8268L73.3473 50.159L74.3363 47.7824L71.4334 49.4512Z" fill="#E19100"/>
<path d="M90.9626 46.8645C90.9626 46.8645 90.957 46.8645 90.957 46.8718C90.7785 47.1287 90.5836 47.374 90.3733 47.6062C89.831 48.2135 89.1917 48.7292 88.4808 49.1327C84.5443 51.3935 78.6771 50.7161 74.3363 47.7806L73.3473 50.1562C77.6844 53.0935 83.5506 53.7655 87.4872 51.5083C88.7565 50.8049 89.7787 49.7365 90.4179 48.4452V48.4626L91.4403 46.0338C91.3011 46.3214 91.1415 46.5991 90.9626 46.8645Z" fill="url(#paint5_linear_32_4234)"/>
<path d="M98.4332 37.3337C99.9204 35.7925 99.7214 33.3316 97.7825 31.3828C95.5005 29.088 91.6784 28.3665 89.2589 29.7572C88.7045 30.0501 88.2373 30.481 87.9035 31.0072C87.5698 31.5334 87.3811 32.1366 87.3561 32.757C87.3561 32.7818 87.3561 32.8075 87.3561 32.8359C87.6236 32.5606 87.9282 32.323 88.2615 32.13C90.6782 30.7421 94.505 31.4673 96.7888 33.7584C97.7575 34.6607 98.3396 35.8951 98.4155 37.208L98.4332 37.3337Z" fill="#E19100"/>
</g>
<defs>
<linearGradient id="paint0_linear_32_4234" x1="0" y1="43.3682" x2="87.0838" y2="43.3682" gradientUnits="userSpaceOnUse">
<stop stop-color="#FCBA06"/>
<stop offset="1" stop-color="#DC8B00"/>
</linearGradient>
<linearGradient id="paint1_linear_32_4234" x1="8.17975" y1="15.3436" x2="78.9049" y2="15.3436" gradientUnits="userSpaceOnUse">
<stop stop-color="#FCBA06"/>
<stop offset="1" stop-color="#E19100"/>
</linearGradient>
<linearGradient id="paint2_linear_32_4234" x1="30.1043" y1="33.5518" x2="49.2152" y2="33.5518" gradientUnits="userSpaceOnUse">
<stop stop-color="#FCBA06"/>
<stop offset="1" stop-color="#E19100"/>
</linearGradient>
<linearGradient id="paint3_linear_32_4234" x1="53.2884" y1="35.451" x2="118.605" y2="35.451" gradientUnits="userSpaceOnUse">
<stop stop-color="#FCBA06"/>
<stop offset="1" stop-color="#E19100"/>
</linearGradient>
<linearGradient id="paint4_linear_32_4234" x1="111.599" y1="72.3058" x2="67.4103" y2="13.9047" gradientUnits="userSpaceOnUse">
<stop stop-color="#DC8B00"/>
<stop offset="1" stop-color="#FCBA06"/>
</linearGradient>
<linearGradient id="paint5_linear_32_4234" x1="73.3473" y1="49.4436" x2="91.4403" y2="49.4436" gradientUnits="userSpaceOnUse">
<stop stop-color="#FCBA06"/>
<stop offset="1" stop-color="#E19100"/>
</linearGradient>
<clipPath id="clip0_32_4234">
<rect width="138" height="89" fill="white"/>
</clipPath>
</defs>
</svg>
