<svg width="24" height="24" viewBox="0 0 24 24" fill="none" xmlns="http://www.w3.org/2000/svg">
<path d="M20 23H11C9.3 23 8 21.7 8 20V11C8 9.3 9.3 8 11 8H20C21.7 8 23 9.3 23 11V20C23 21.7 21.7 23 20 23ZM11 10C10.4 10 10 10.4 10 11V20C10 20.6 10.4 21 11 21H20C20.6 21 21 20.6 21 20V11C21 10.4 20.6 10 20 10H11Z" fill="#1B1D4D"/>
<path d="M5 16H4C3.2 16 2.4 15.7 1.9 15.1C1.3 14.6 1 13.8 1 13V4C1 3.2 1.3 2.4 1.9 1.9C2.4 1.3 3.2 1 4 1H13C13.8 1 14.6 1.3 15.1 1.9C15.7 2.4 16 3.2 16 4V5C16 5.6 15.6 6 15 6C14.4 6 14 5.6 14 5V4C14 3.7 13.9 3.5 13.7 3.3C13.5 3.1 13.3 3 13 3H4C3.7 3 3.5 3.1 3.3 3.3C3.1 3.5 3 3.7 3 4V13C3 13.3 3.1 13.5 3.3 13.7C3.5 13.9 3.7 14 4 14H5C5.6 14 6 14.4 6 15C6 15.6 5.6 16 5 16Z" fill="#1B1D4D"/>
</svg>
