<svg width="24" height="24" viewBox="0 0 24 24" fill="none" xmlns="http://www.w3.org/2000/svg">
<rect width="24" height="24" rx="4" fill="#FF5887" fill-opacity="0.1"/>
<path d="M12 18H19" stroke="#FF5887" stroke-width="1.5" stroke-linecap="round" stroke-linejoin="round"/>
<path d="M15.2504 5.47176C15.5524 5.1697 15.9621 5 16.3893 5C16.6008 5 16.8103 5.04166 17.0057 5.12261C17.2011 5.20355 17.3787 5.32219 17.5282 5.47176C17.6778 5.62133 17.7964 5.79889 17.8774 5.99431C17.9583 6.18972 18 6.39917 18 6.61069C18 6.82221 17.9583 7.03166 17.8774 7.22708C17.7964 7.42249 17.6778 7.60006 17.5282 7.74962L8.03715 17.2407L5 18L5.75929 14.9629L15.2504 5.47176Z" stroke="#FF5887" stroke-width="1.5" stroke-linecap="round" stroke-linejoin="round"/>
</svg>
