<svg width="80" height="70" viewBox="0 0 80 70" fill="none" xmlns="http://www.w3.org/2000/svg">
<path d="M1.42459 2.43015C1.15184 3.21618 0.914063 4.04997 1.03016 4.87653C1.12387 5.5482 1.45117 6.1721 1.89316 6.6744C2.34494 7.18973 2.96597 7.60229 3.63875 7.59071C3.92269 6.8843 4.04018 6.10551 3.97444 5.34264C4.18705 5.7552 4.39965 6.16775 4.61365 6.58031C4.86822 7.07248 5.16474 7.60518 5.67388 7.79192C6.18161 7.97865 6.88796 7.52412 6.72431 6.99142C6.64318 6.72651 6.37463 6.50504 6.43757 6.23579C6.5131 5.91154 6.97188 5.90575 7.25162 6.07222C7.52996 6.23868 7.78733 6.50648 8.10903 6.49346C8.5748 6.47319 8.80839 5.82902 8.62795 5.38462C8.44752 4.94022 8.01951 4.66663 7.61668 4.42344C6.79005 3.92259 5.76199 3.48542 5.02487 2.85429C4.60946 2.49819 4.20942 1.65281 3.8066 1.39659C2.69043 0.685839 1.91414 0.872575 1.42459 2.43015Z" fill="#FF97B4"/>
<path d="M75.9916 3.7875C75.2832 3.35121 74.5205 2.93873 73.6884 2.87332C73.0124 2.81955 72.3325 3.00417 71.7465 3.32707C71.1456 3.65671 70.6085 4.17382 70.4743 4.83318C71.1026 5.26318 71.8376 5.54631 72.5966 5.64712C72.1478 5.76546 71.699 5.88381 71.25 6.00353C70.7144 6.14563 70.1302 6.31993 69.8377 6.77663C69.5456 7.23196 69.8366 8.01989 70.3921 7.97532C70.6683 7.95341 70.9426 7.73911 71.1919 7.85879C71.4921 8.00266 71.3986 8.45183 71.1755 8.68895C70.9528 8.9247 70.6357 9.11806 70.5788 9.43497C70.4979 9.8941 71.0763 10.2615 71.5492 10.1814C72.0221 10.1014 72.3818 9.74266 72.7063 9.40196C73.3741 8.7032 74.0233 7.79402 74.7989 7.21084C75.2364 6.88227 76.1483 6.67454 76.4855 6.33665C77.4209 5.40061 77.4064 4.60232 75.9916 3.7875Z" fill="#FF97B4"/>
<path d="M24.7797 6.59647C24.8953 6.75898 25.0457 6.91084 25.2435 6.96279C25.5736 7.04804 25.919 6.8096 26.0569 6.50989C26.1948 6.21017 26.1781 5.86917 26.1572 5.54281C26.6823 6.01436 27.401 6.39533 28.1003 6.22882C28.7995 6.06232 29.241 5.10856 28.7075 4.645C29.2145 4.77155 29.7605 4.89676 30.2522 4.72093C30.7439 4.5451 31.0921 3.93235 30.7871 3.52474C30.6339 3.3196 30.3678 3.22636 30.1185 3.14377C28.9917 2.77213 27.8663 2.39915 26.7394 2.02751C26.4483 1.9316 26.1461 1.83302 25.8382 1.85833C23.5358 2.04216 23.8172 5.2471 24.7797 6.59647Z" fill="#1B1D4D" fill-opacity="0.3"/>
<path fill-rule="evenodd" clip-rule="evenodd" d="M24.0882 32.6177H35.6176C36.3821 32.6177 37.1152 32.314 37.6558 31.7734C38.1963 31.2329 38.5 30.4998 38.5 29.7353C38.5 28.9709 38.1963 28.2377 37.6558 27.6972C37.1152 27.1566 36.3821 26.853 35.6176 26.853H24.0882C23.3238 26.853 22.5906 27.1566 22.0501 27.6972C21.5095 28.2377 21.2059 28.9709 21.2059 29.7353C21.2059 30.4998 21.5095 31.2329 22.0501 31.7734C22.5906 32.314 23.3238 32.6177 24.0882 32.6177ZM24.0882 41.2647H35.6176C36.3821 41.2647 37.1152 40.9611 37.6558 40.4205C38.1963 39.88 38.5 39.1468 38.5 38.3824C38.5 37.6179 38.1963 36.8848 37.6558 36.3442C37.1152 35.8037 36.3821 35.5 35.6176 35.5H24.0882C23.3238 35.5 22.5906 35.8037 22.0501 36.3442C21.5095 36.8848 21.2059 37.6179 21.2059 38.3824C21.2059 39.1468 21.5095 39.88 22.0501 40.4205C22.5906 40.9611 23.3238 41.2647 24.0882 41.2647Z" fill="#FF5887"/>
<path d="M61.5588 19.647H32.7353C32.3531 19.647 31.9865 19.7989 31.7162 20.0691C31.446 20.3394 31.2941 20.706 31.2941 21.0882V49.9117C31.2941 50.294 31.446 50.6605 31.7162 50.9308C31.9865 51.2011 32.3531 51.3529 32.7353 51.3529H61.5588C61.9411 51.3529 62.3076 51.2011 62.5779 50.9308C62.8482 50.6605 63 50.294 63 49.9117V21.0882C63 20.706 62.8482 20.3394 62.5779 20.0691C62.3076 19.7989 61.9411 19.647 61.5588 19.647ZM44.5818 25.4117C45.4369 25.4117 46.2728 25.6653 46.9838 26.1404C47.6948 26.6155 48.249 27.2907 48.5762 28.0807C48.9034 28.8707 48.9891 29.7401 48.8222 30.5787C48.6554 31.4174 48.2436 32.1878 47.639 32.7925C47.0343 33.3971 46.2639 33.8089 45.4253 33.9757C44.5866 34.1425 43.7173 34.0569 42.9272 33.7297C42.1372 33.4025 41.462 32.8483 40.9869 32.1373C40.5118 31.4263 40.2582 30.5904 40.2582 29.7353C40.2582 28.5886 40.7138 27.4889 41.5246 26.6781C42.3354 25.8673 43.4351 25.4117 44.5818 25.4117ZM49.2512 46.1647C48.3961 46.1647 47.5602 45.9111 46.8492 45.436C46.1382 44.961 45.584 44.2857 45.2568 43.4957C44.9295 42.7057 44.8439 41.8364 45.0107 40.9977C45.1776 40.159 45.5893 39.3886 46.194 38.784C46.7986 38.1793 47.569 37.7675 48.4077 37.6007C49.2464 37.4339 50.1157 37.5195 50.9057 37.8467C51.6958 38.174 52.371 38.7281 52.8461 39.4391C53.3211 40.1501 53.5747 40.986 53.5747 41.8411C53.5672 42.9855 53.1092 44.0808 52.3 44.89C51.4908 45.6992 50.3955 46.1571 49.2512 46.1647ZM53.1712 31.3206L43.1982 41.697C42.9233 41.9729 42.5501 42.1284 42.1606 42.1294C41.7857 42.1258 41.4257 41.9818 41.1518 41.7259C41.0167 41.5919 40.9095 41.4325 40.8363 41.2569C40.7631 41.0812 40.7255 40.8929 40.7255 40.7026C40.7255 40.5124 40.7631 40.324 40.8363 40.1484C40.9095 39.9728 41.0167 39.8134 41.1518 39.6794L51.1247 29.3029C51.2572 29.1666 51.4152 29.0578 51.5898 28.9826C51.7643 28.9074 51.9519 28.8673 52.142 28.8647C52.332 28.862 52.5207 28.8968 52.6973 28.967C52.8739 29.0373 53.0349 29.1416 53.1712 29.2741C53.3075 29.4066 53.4163 29.5646 53.4915 29.7391C53.5667 29.9137 53.6068 30.1013 53.6094 30.2914C53.6121 30.4814 53.5773 30.6701 53.5071 30.8467C53.4368 31.0233 53.3325 31.1843 53.2 31.3206H53.1712Z" fill="#1B1D4D"/>
<path d="M26.9706 19.6471H15.4412C14.6452 19.6471 14 20.2923 14 21.0883V49.9118C14 50.7077 14.6452 51.353 15.4412 51.353H26.9706C27.7665 51.353 28.4118 50.7077 28.4118 49.9118V21.0883C28.4118 20.2923 27.7665 19.6471 26.9706 19.6471Z" fill="#1B1D4D"/>
<path d="M44.5 31C45.3284 31 46 30.3284 46 29.5C46 28.6716 45.3284 28 44.5 28C43.6716 28 43 28.6716 43 29.5C43 30.3284 43.6716 31 44.5 31Z" fill="#FF5887"/>
<path d="M49 44C50.1046 44 51 43.1046 51 42C51 40.8954 50.1046 40 49 40C47.8954 40 47 40.8954 47 42C47 43.1046 47.8954 44 49 44Z" fill="#FF5887"/>
<path d="M58.5393 64.9817C60.3636 65.3737 62.387 64.498 63.366 62.8919C62.1544 62.9553 60.9331 62.8228 59.762 62.5013C58.808 62.239 56.183 60.7908 55.7165 62.4195C55.3502 63.6985 57.6313 64.7857 58.5393 64.9817Z" fill="#1B1D4D" fill-opacity="0.3"/>
<path d="M2.5683 46.0224C1.79103 47.7188 2.20838 49.8837 3.56476 51.1869C3.76483 49.9903 4.15837 48.8266 4.72556 47.7526C5.18793 46.878 7.16956 44.6283 5.68032 43.8206C4.51083 43.1864 2.95604 45.1784 2.5683 46.0224Z" fill="#1B1D4D" fill-opacity="0.3"/>
<path d="M75.0024 60.8067C75.1109 60.7623 75.2262 60.7099 75.2858 60.609C75.4797 60.2808 74.9401 60.0199 74.5563 60.0145C73.7415 60.0024 69.606 59.5854 70.2731 61.0125C70.9144 62.3845 74.0398 61.2008 75.0024 60.8067Z" fill="#1B1D4D" fill-opacity="0.3"/>
<path d="M3.08391 62.9989C3.10379 63.1144 3.13008 63.2383 3.21567 63.3184C3.49416 63.5786 3.86563 63.1082 3.95387 62.7347C4.14192 61.9418 5.44339 57.9944 3.9058 58.337C2.42763 58.6665 2.90734 61.9738 3.08391 62.9989Z" fill="#1B1D4D" fill-opacity="0.3"/>
</svg>
