<svg width="80" height="70" viewBox="0 0 80 70" fill="none" xmlns="http://www.w3.org/2000/svg">
<path d="M1.42459 2.43015C1.15184 3.21618 0.914063 4.04997 1.03016 4.87653C1.12387 5.5482 1.45117 6.1721 1.89316 6.6744C2.34494 7.18973 2.96597 7.60229 3.63875 7.59071C3.92269 6.8843 4.04018 6.10551 3.97444 5.34264C4.18705 5.7552 4.39965 6.16775 4.61365 6.58031C4.86822 7.07248 5.16474 7.60518 5.67388 7.79192C6.18161 7.97865 6.88796 7.52412 6.72431 6.99142C6.64318 6.72651 6.37463 6.50504 6.43757 6.23579C6.5131 5.91154 6.97188 5.90575 7.25162 6.07222C7.52996 6.23868 7.78733 6.50648 8.10903 6.49346C8.5748 6.47319 8.80839 5.82902 8.62795 5.38462C8.44752 4.94022 8.01951 4.66663 7.61668 4.42344C6.79005 3.92259 5.76199 3.48542 5.02487 2.85429C4.60946 2.49819 4.20942 1.65281 3.8066 1.39659C2.69043 0.685839 1.91414 0.872575 1.42459 2.43015Z" fill="#BBBBCA"/>
<path d="M75.9916 3.7875C75.2832 3.35121 74.5205 2.93873 73.6884 2.87332C73.0124 2.81955 72.3325 3.00417 71.7465 3.32707C71.1456 3.65671 70.6085 4.17382 70.4743 4.83318C71.1026 5.26318 71.8376 5.54631 72.5966 5.64712C72.1478 5.76546 71.699 5.88381 71.25 6.00353C70.7144 6.14563 70.1302 6.31993 69.8377 6.77663C69.5456 7.23196 69.8366 8.01989 70.3921 7.97532C70.6683 7.95341 70.9426 7.73911 71.1919 7.85879C71.4921 8.00266 71.3986 8.45183 71.1755 8.68895C70.9528 8.9247 70.6357 9.11806 70.5788 9.43497C70.4979 9.8941 71.0763 10.2615 71.5492 10.1814C72.0221 10.1014 72.3818 9.74266 72.7063 9.40196C73.3741 8.7032 74.0233 7.79402 74.7989 7.21084C75.2364 6.88227 76.1483 6.67454 76.4855 6.33665C77.4209 5.40061 77.4064 4.60232 75.9916 3.7875Z" fill="#BBBBCA"/>
<path d="M24.7797 6.59653C24.8953 6.75904 25.0457 6.9109 25.2435 6.96285C25.5736 7.0481 25.919 6.80966 26.0569 6.50995C26.1948 6.21024 26.1781 5.86923 26.1572 5.54287C26.6823 6.01442 27.401 6.39539 28.1003 6.22888C28.7995 6.06238 29.241 5.10862 28.7075 4.64506C29.2145 4.77161 29.7605 4.89682 30.2522 4.72099C30.7439 4.54516 31.0921 3.93241 30.7871 3.5248C30.6339 3.31966 30.3678 3.22642 30.1185 3.14383C28.9917 2.77219 27.8663 2.39921 26.7394 2.02757C26.4483 1.93166 26.1461 1.83309 25.8382 1.85839C23.5358 2.04222 23.8172 5.24716 24.7797 6.59653Z" fill="#E9D8B1"/>
<path fill-rule="evenodd" clip-rule="evenodd" d="M24.0882 32.6177H35.6176C36.3821 32.6177 37.1152 32.3141 37.6558 31.7735C38.1963 31.233 38.5 30.4998 38.5 29.7354C38.5 28.9709 38.1963 28.2378 37.6558 27.6972C37.1152 27.1567 36.3821 26.853 35.6176 26.853H24.0882C23.3238 26.853 22.5906 27.1567 22.0501 27.6972C21.5095 28.2378 21.2059 28.9709 21.2059 29.7354C21.2059 30.4998 21.5095 31.233 22.0501 31.7735C22.5906 32.3141 23.3238 32.6177 24.0882 32.6177ZM24.0882 41.2648H35.6176C36.3821 41.2648 37.1152 40.9611 37.6558 40.4206C38.1963 39.88 38.5 39.1469 38.5 38.3824C38.5 37.618 38.1963 36.8849 37.6558 36.3443C37.1152 35.8038 36.3821 35.5001 35.6176 35.5001H24.0882C23.3238 35.5001 22.5906 35.8038 22.0501 36.3443C21.5095 36.8849 21.2059 37.618 21.2059 38.3824C21.2059 39.1469 21.5095 39.88 22.0501 40.4206C22.5906 40.9611 23.3238 41.2648 24.0882 41.2648Z" fill="#C4A140"/>
<path d="M61.5588 19.6471H32.7353C32.3531 19.6471 31.9865 19.7989 31.7162 20.0692C31.446 20.3395 31.2941 20.706 31.2941 21.0883V49.9118C31.2941 50.294 31.446 50.6606 31.7162 50.9309C31.9865 51.2011 32.3531 51.353 32.7353 51.353H61.5588C61.9411 51.353 62.3076 51.2011 62.5779 50.9309C62.8482 50.6606 63 50.294 63 49.9118V21.0883C63 20.706 62.8482 20.3395 62.5779 20.0692C62.3076 19.7989 61.9411 19.6471 61.5588 19.6471ZM44.5818 25.4118C45.4369 25.4118 46.2728 25.6654 46.9838 26.1404C47.6948 26.6155 48.249 27.2908 48.5762 28.0808C48.9034 28.8708 48.9891 29.7401 48.8222 30.5788C48.6554 31.4175 48.2436 32.1879 47.639 32.7925C47.0343 33.3972 46.2639 33.809 45.4253 33.9758C44.5866 34.1426 43.7173 34.057 42.9272 33.7297C42.1372 33.4025 41.462 32.8484 40.9869 32.1374C40.5118 31.4264 40.2582 30.5904 40.2582 29.7353C40.2582 28.5887 40.7138 27.489 41.5246 26.6781C42.3354 25.8673 43.4351 25.4118 44.5818 25.4118ZM49.2512 46.1647C48.3961 46.1647 47.5602 45.9112 46.8492 45.4361C46.1382 44.961 45.584 44.2858 45.2568 43.4958C44.9295 42.7057 44.8439 41.8364 45.0107 40.9977C45.1776 40.159 45.5893 39.3887 46.194 38.784C46.7986 38.1794 47.569 37.7676 48.4077 37.6008C49.2464 37.4339 50.1157 37.5196 50.9057 37.8468C51.6958 38.174 52.371 38.7282 52.8461 39.4392C53.3211 40.1502 53.5747 40.9861 53.5747 41.8412C53.5672 42.9855 53.1092 44.0809 52.3 44.8901C51.4908 45.6992 50.3955 46.1572 49.2512 46.1647ZM53.1712 31.3206L43.1982 41.6971C42.9233 41.973 42.5501 42.1285 42.1606 42.1294C41.7857 42.1258 41.4257 41.9819 41.1518 41.7259C41.0167 41.5919 40.9095 41.4325 40.8363 41.2569C40.7631 41.0813 40.7255 40.8929 40.7255 40.7027C40.7255 40.5124 40.7631 40.3241 40.8363 40.1484C40.9095 39.9728 41.0167 39.8134 41.1518 39.6794L51.1247 29.303C51.2572 29.1667 51.4152 29.0579 51.5898 28.9827C51.7643 28.9075 51.9519 28.8674 52.142 28.8647C52.332 28.8621 52.5207 28.8968 52.6973 28.9671C52.8739 29.0373 53.0349 29.1417 53.1712 29.2742C53.3075 29.4066 53.4163 29.5647 53.4915 29.7392C53.5667 29.9137 53.6068 30.1014 53.6094 30.2914C53.6121 30.4815 53.5773 30.6701 53.5071 30.8467C53.4368 31.0233 53.3325 31.1844 53.2 31.3206H53.1712Z" fill="#19255B"/>
<path d="M26.9706 19.6471H15.4412C14.6452 19.6471 14 20.2923 14 21.0883V49.9118C14 50.7077 14.6452 51.353 15.4412 51.353H26.9706C27.7665 51.353 28.4118 50.7077 28.4118 49.9118V21.0883C28.4118 20.2923 27.7665 19.6471 26.9706 19.6471Z" fill="#19255B"/>
<path d="M44.5 31C45.3284 31 46 30.3284 46 29.5C46 28.6716 45.3284 28 44.5 28C43.6716 28 43 28.6716 43 29.5C43 30.3284 43.6716 31 44.5 31Z" fill="#C4A140"/>
<path d="M49 44C50.1046 44 51 43.1046 51 42C51 40.8954 50.1046 40 49 40C47.8954 40 47 40.8954 47 42C47 43.1046 47.8954 44 49 44Z" fill="#C4A140"/>
<path d="M58.5393 64.9815C60.3636 65.3735 62.387 64.4979 63.366 62.8917C62.1544 62.9552 60.9331 62.8227 59.762 62.5011C58.808 62.2389 56.183 60.7907 55.7165 62.4194C55.3502 63.6983 57.6313 64.7855 58.5393 64.9815Z" fill="#E9D8B1"/>
<path d="M2.5683 46.0226C1.79103 47.7189 2.20838 49.8838 3.56476 51.187C3.76483 49.9904 4.15837 48.8267 4.72556 47.7528C5.18793 46.8781 7.16956 44.6284 5.68032 43.8207C4.51083 43.1865 2.95604 45.1785 2.5683 46.0226Z" fill="#E9D8B1"/>
<path d="M75.0024 60.8068C75.1109 60.7624 75.2262 60.7099 75.2858 60.6091C75.4797 60.2809 74.9401 60.0199 74.5563 60.0146C73.7415 60.0024 69.606 59.5855 70.2731 61.0126C70.9144 62.3845 74.0398 61.2009 75.0024 60.8068Z" fill="#E9D8B1"/>
<path d="M3.0839 62.9989C3.10377 63.1144 3.13006 63.2383 3.21565 63.3184C3.49414 63.5786 3.86561 63.1082 3.95385 62.7347C4.14191 61.9418 5.44337 57.9944 3.90578 58.337C2.42761 58.6665 2.90733 61.9738 3.0839 62.9989Z" fill="#E9D8B1"/>
</svg>
