<svg width="240" height="75" viewBox="0 0 240 75" fill="none" xmlns="http://www.w3.org/2000/svg">
<path d="M84.12 37.5681V23.4681H90.3C91.8333 23.4681 93.0133 23.7948 93.84 24.4481C94.6667 25.0881 95.08 25.9814 95.08 27.1281C95.08 27.9814 94.8267 28.7014 94.32 29.2881C93.8133 29.8748 93.1133 30.2681 92.22 30.4681V30.1681C93.2467 30.3148 94.04 30.6881 94.6 31.2881C95.1733 31.8748 95.46 32.6548 95.46 33.6281C95.46 34.8814 95.0267 35.8548 94.16 36.5481C93.2933 37.2281 92.0867 37.5681 90.54 37.5681H84.12ZM86.6 35.6081H90.24C91.1067 35.6081 91.78 35.4481 92.26 35.1281C92.74 34.7948 92.98 34.2548 92.98 33.5081C92.98 32.7481 92.74 32.2081 92.26 31.8881C91.78 31.5548 91.1067 31.3881 90.24 31.3881H86.6V35.6081ZM86.6 29.4481H89.86C90.78 29.4481 91.46 29.2814 91.9 28.9481C92.3533 28.6014 92.58 28.0948 92.58 27.4281C92.58 26.7614 92.3533 26.2614 91.9 25.9281C91.46 25.5814 90.78 25.4081 89.86 25.4081H86.6V29.4481ZM101.629 37.7681C100.749 37.7681 99.9753 37.5614 99.3086 37.1481C98.6419 36.7214 98.1219 36.1148 97.7486 35.3281C97.3753 34.5414 97.1886 33.6014 97.1886 32.5081C97.1886 31.4148 97.3753 30.4814 97.7486 29.7081C98.1219 28.9214 98.6419 28.3214 99.3086 27.9081C99.9753 27.4814 100.749 27.2681 101.629 27.2681C102.482 27.2681 103.229 27.4814 103.869 27.9081C104.522 28.3214 104.955 28.8814 105.169 29.5881H104.949L105.169 27.4681H107.569C107.529 27.8814 107.489 28.3014 107.449 28.7281C107.422 29.1548 107.409 29.5748 107.409 29.9881V37.5681H104.929L104.909 35.4881H105.149C104.935 36.1814 104.502 36.7348 103.849 37.1481C103.195 37.5614 102.455 37.7681 101.629 37.7681ZM102.329 35.8481C103.115 35.8481 103.749 35.5748 104.229 35.0281C104.709 34.4681 104.949 33.6281 104.949 32.5081C104.949 31.3881 104.709 30.5548 104.229 30.0081C103.749 29.4614 103.115 29.1881 102.329 29.1881C101.542 29.1881 100.909 29.4614 100.429 30.0081C99.9486 30.5548 99.7086 31.3881 99.7086 32.5081C99.7086 33.6281 99.9419 34.4681 100.409 35.0281C100.889 35.5748 101.529 35.8481 102.329 35.8481ZM110.131 37.5681V29.9881C110.131 29.5748 110.118 29.1548 110.091 28.7281C110.064 28.3014 110.024 27.8814 109.971 27.4681H112.391L112.591 29.4681H112.351C112.671 28.7614 113.144 28.2214 113.771 27.8481C114.398 27.4614 115.124 27.2681 115.951 27.2681C117.138 27.2681 118.031 27.6014 118.631 28.2681C119.231 28.9348 119.531 29.9748 119.531 31.3881V37.5681H117.031V31.5081C117.031 30.6948 116.871 30.1148 116.551 29.7681C116.244 29.4081 115.778 29.2281 115.151 29.2281C114.378 29.2281 113.764 29.4681 113.311 29.9481C112.858 30.4281 112.631 31.0681 112.631 31.8681V37.5681H110.131ZM122.182 37.5681V22.8481H124.682V31.7681H124.722L128.822 27.4681H131.842L126.742 32.8081L126.762 31.8081L132.202 37.5681H129.102L124.722 33.0481H124.682V37.5681H122.182ZM132.665 42.1081L132.085 40.1281C132.712 39.9948 133.239 39.8414 133.665 39.6681C134.092 39.4948 134.445 39.2681 134.725 38.9881C135.005 38.7081 135.239 38.3481 135.425 37.9081L135.925 36.7281L135.865 37.7081L131.465 27.4681H134.125L137.285 35.3481H136.705L139.885 27.4681H142.405L137.805 38.1281C137.499 38.8481 137.165 39.4414 136.805 39.9081C136.445 40.3881 136.059 40.7681 135.645 41.0481C135.232 41.3414 134.779 41.5681 134.285 41.7281C133.792 41.8881 133.252 42.0148 132.665 42.1081ZM143.725 37.5681V22.8481H146.225V31.7681H146.265L150.365 27.4681H153.385L148.285 32.8081L148.305 31.8081L153.745 37.5681H150.645L146.265 33.0481H146.225V37.5681H143.725ZM159.445 37.7681C157.751 37.7681 156.425 37.3014 155.465 36.3681C154.505 35.4348 154.025 34.1548 154.025 32.5281C154.025 31.4748 154.231 30.5548 154.645 29.7681C155.058 28.9814 155.631 28.3681 156.365 27.9281C157.111 27.4881 157.978 27.2681 158.965 27.2681C159.938 27.2681 160.751 27.4748 161.405 27.8881C162.058 28.3014 162.551 28.8814 162.885 29.6281C163.231 30.3748 163.405 31.2481 163.405 32.2481V32.9081H156.045V31.5881H161.625L161.285 31.8681C161.285 30.9348 161.085 30.2214 160.685 29.7281C160.298 29.2348 159.731 28.9881 158.985 28.9881C158.158 28.9881 157.518 29.2814 157.065 29.8681C156.625 30.4548 156.405 31.2748 156.405 32.3281V32.5881C156.405 33.6814 156.671 34.5014 157.205 35.0481C157.751 35.5814 158.518 35.8481 159.505 35.8481C160.078 35.8481 160.611 35.7748 161.105 35.6281C161.611 35.4681 162.091 35.2148 162.545 34.8681L163.285 36.5481C162.805 36.9348 162.231 37.2348 161.565 37.4481C160.898 37.6614 160.191 37.7681 159.445 37.7681ZM165.165 42.1081L164.585 40.1281C165.212 39.9948 165.739 39.8414 166.165 39.6681C166.592 39.4948 166.945 39.2681 167.225 38.9881C167.505 38.7081 167.739 38.3481 167.925 37.9081L168.425 36.7281L168.365 37.7081L163.965 27.4681H166.625L169.785 35.3481H169.205L172.385 27.4681H174.905L170.305 38.1281C169.999 38.8481 169.665 39.4414 169.305 39.9081C168.945 40.3881 168.559 40.7681 168.145 41.0481C167.732 41.3414 167.279 41.5681 166.785 41.7281C166.292 41.8881 165.752 42.0148 165.165 42.1081Z" fill="#1B1D4D"/>
<circle cx="71.632" cy="8.78387" r="5.32" stroke="#FF5887" stroke-width="4"/>
<g filter="url(#filter0_d_160_526)">
<path d="M67.7438 33.4302C67.7438 43.818 59.2396 52.2858 48.8069 52.2858C38.3741 52.2858 29.8699 43.818 29.8699 33.4302V27.846C29.8699 25.4016 31.8515 23.42 34.2959 23.42C36.7403 23.42 38.7219 25.4016 38.7219 27.846V33.4616C38.7219 39.0018 43.2427 43.5033 48.8069 43.5033C54.371 43.5033 58.8918 39.0018 58.8918 33.4616C58.8918 27.9214 54.371 23.42 48.8069 23.42H43.1605C40.7266 23.42 38.7535 21.4469 38.7535 19.013C38.7535 16.5791 40.7266 14.606 43.1605 14.606H48.8385C59.2712 14.5746 67.7438 23.0423 67.7438 33.4302Z" fill="url(#paint0_linear_160_526)"/>
</g>
<g filter="url(#filter1_d_160_526)">
<path d="M25.4945 14.5745H20.407C17.9731 14.5745 16 16.5475 16 18.9814C16 21.4154 17.9731 23.3884 20.407 23.3884H25.4945C27.9284 23.3884 29.9015 21.4154 29.9015 18.9814C29.9015 16.5475 27.9284 14.5745 25.4945 14.5745Z" fill="url(#paint1_linear_160_526)"/>
</g>
<path d="M38.7536 7.28726V4.42601C38.7536 1.98159 36.772 0 34.3276 0C31.8831 0 29.9016 1.98159 29.9016 4.42601V14.5745H31.4663C35.4909 14.5745 38.7536 11.3119 38.7536 7.28726Z" fill="#FF5887"/>
<defs>
<filter id="filter0_d_160_526" x="13.8699" y="4.60596" width="69.874" height="69.6797" filterUnits="userSpaceOnUse" color-interpolation-filters="sRGB">
<feFlood flood-opacity="0" result="BackgroundImageFix"/>
<feColorMatrix in="SourceAlpha" type="matrix" values="0 0 0 0 0 0 0 0 0 0 0 0 0 0 0 0 0 0 127 0" result="hardAlpha"/>
<feOffset dy="6"/>
<feGaussianBlur stdDeviation="8"/>
<feComposite in2="hardAlpha" operator="out"/>
<feColorMatrix type="matrix" values="0 0 0 0 0.0862745 0 0 0 0 0.0980392 0 0 0 0 0.4 0 0 0 0.08 0"/>
<feBlend mode="normal" in2="BackgroundImageFix" result="effect1_dropShadow_160_526"/>
<feBlend mode="normal" in="SourceGraphic" in2="effect1_dropShadow_160_526" result="shape"/>
</filter>
<filter id="filter1_d_160_526" x="0" y="4.57446" width="45.9014" height="40.814" filterUnits="userSpaceOnUse" color-interpolation-filters="sRGB">
<feFlood flood-opacity="0" result="BackgroundImageFix"/>
<feColorMatrix in="SourceAlpha" type="matrix" values="0 0 0 0 0 0 0 0 0 0 0 0 0 0 0 0 0 0 127 0" result="hardAlpha"/>
<feOffset dy="6"/>
<feGaussianBlur stdDeviation="8"/>
<feComposite in2="hardAlpha" operator="out"/>
<feColorMatrix type="matrix" values="0 0 0 0 0.0862745 0 0 0 0 0.0980392 0 0 0 0 0.4 0 0 0 0.08 0"/>
<feBlend mode="normal" in2="BackgroundImageFix" result="effect1_dropShadow_160_526"/>
<feBlend mode="normal" in="SourceGraphic" in2="effect1_dropShadow_160_526" result="shape"/>
</filter>
<linearGradient id="paint0_linear_160_526" x1="29.8699" y1="14.606" x2="68.5681" y2="15.4725" gradientUnits="userSpaceOnUse">
<stop stop-color="#FF5887"/>
<stop offset="0.576041" stop-color="#161966"/>
</linearGradient>
<linearGradient id="paint1_linear_160_526" x1="16" y1="14.5745" x2="30.1936" y2="15.0732" gradientUnits="userSpaceOnUse">
<stop stop-color="#FF5887"/>
<stop offset="1" stop-color="#161966"/>
</linearGradient>
</defs>
</svg>
