<svg width="24" height="24" viewBox="0 0 24 24" fill="none" xmlns="http://www.w3.org/2000/svg">
<path d="M12 20.587C11.7391 20.587 11.5652 20.5 11.3913 20.3261L3.73913 12.6739C2.6087 11.6304 2 10.1522 2 8.67391C2 7.19565 2.6087 5.71739 3.65217 4.67391C4.69565 3.63043 6.17391 3.02174 7.65217 3.02174C9.13043 3.02174 10.6087 3.63043 11.6522 4.67391L12 5.02174L12.3478 4.67391C12.8696 4.15217 13.4783 3.71739 14.1739 3.45652C15.5652 2.84783 17.1304 2.84783 18.5217 3.45652C19.2174 3.71739 19.8261 4.15217 20.3478 4.67391C20.8696 5.19565 21.3043 5.80435 21.5652 6.5C21.8261 7.19565 22 7.8913 22 8.67391C22 9.45652 21.7391 10.1522 21.4783 10.8478C21.2174 11.5435 20.7826 12.1522 20.2609 12.6739L12.6087 20.3261C12.4348 20.5 12.1739 20.587 12 20.587ZM7.65217 4.76087C6.6087 4.76087 5.65217 5.19565 4.86957 5.8913C4.17391 6.67391 3.73913 7.63043 3.73913 8.67391C3.73913 9.71739 4.17391 10.6739 4.86957 11.4565L11.913 18.5L18.9565 11.4565C19.3043 11.1087 19.5652 10.6739 19.8261 10.1522C20.087 9.63043 20.087 9.19565 20.087 8.67391C20.087 8.15217 20 7.63043 19.8261 7.19565C19.6522 6.76087 19.3043 6.32609 18.9565 5.8913C18.6087 5.54348 18.1739 5.19565 17.6522 5.02174C16.6957 4.58696 15.6522 4.58696 14.6957 5.02174C14.2609 5.19565 13.8261 5.54348 13.3913 5.8913L12.4348 6.84783C12.087 7.19565 11.5652 7.19565 11.2174 6.84783L10.4348 5.8913C9.65217 5.19565 8.69565 4.76087 7.65217 4.76087Z" fill="#FF5887"/>
</svg>
