<svg width="32" height="33" viewBox="0 0 32 33" fill="none" xmlns="http://www.w3.org/2000/svg">
<rect y="0.152344" width="32" height="32" rx="16" fill="#2058DB" fill-opacity="0.1"/>
<g clip-path="url(#clip0_333_18647)">
<path fill-rule="evenodd" clip-rule="evenodd" d="M6 16.1523C6 18.1302 6.58649 20.0636 7.6853 21.7081C8.78412 23.3525 10.3459 24.6343 12.1732 25.3911C14.0004 26.148 16.0111 26.346 17.9509 25.9602C19.8907 25.5743 21.6726 24.6219 23.0711 23.2234C24.4696 21.8249 25.422 20.0431 25.8079 18.1032C26.1937 16.1634 25.9957 14.1528 25.2388 12.3255C24.4819 10.4983 23.2002 8.93646 21.5557 7.83765C19.9112 6.73883 17.9778 6.15234 16 6.15234C13.3478 6.15234 10.8043 7.2059 8.92892 9.08127C7.05356 10.9566 6 13.5002 6 16.1523V16.1523ZM17 11.1523V16.1523H21V18.1523H15V11.1523H17Z" fill="#2058DB"/>
</g>
<defs>
<clipPath id="clip0_333_18647">
<rect width="24" height="24" fill="white" transform="translate(4 4.15234)"/>
</clipPath>
</defs>
</svg>
