<svg width="16" height="16" viewBox="0 0 16 16" fill="none" xmlns="http://www.w3.org/2000/svg">
<path d="M12.2975 8.00159V8.50159H12.7975H15.197C15.2765 8.50159 15.3528 8.53318 15.409 8.58941C15.4652 8.64564 15.4968 8.72191 15.4968 8.80143V13.6005C15.4968 14.1043 15.2967 14.5874 14.9405 14.9436C14.5842 15.2999 14.1011 15.5 13.5973 15.5H2.39953C1.89574 15.5 1.41259 15.2999 1.05636 14.9436C0.700134 14.5874 0.500006 14.1043 0.500006 13.6005V0.80302H0.50001L0.500002 0.801035C0.499793 0.7482 0.513548 0.696248 0.539875 0.650439C0.566202 0.60463 0.604166 0.566591 0.649923 0.540173L0.649927 0.540171C0.695508 0.513855 0.747214 0.5 0.799847 0.5C0.85248 0.5 0.904186 0.513855 0.949768 0.540171L0.949767 0.540173L0.951076 0.540924L3.3506 1.91665L3.59929 2.05923L3.84798 1.91665L6.24751 0.540926L6.24881 0.540171C6.2944 0.513854 6.3461 0.5 6.39873 0.5C6.45137 0.5 6.50307 0.513855 6.54865 0.540173L6.54996 0.540924L8.94948 1.91665L9.19818 2.05923L9.44687 1.91665L11.8464 0.540926L11.8477 0.540171C11.8933 0.513855 11.945 0.5 11.9976 0.5C12.0503 0.5 12.102 0.513855 12.1475 0.540171L12.3971 0.107884L12.1475 0.540173C12.1933 0.566591 12.2313 0.60463 12.2576 0.650439C12.2839 0.696248 12.2977 0.7482 12.2975 0.801035V0.80302V8.00159ZM12.7975 9.10127H12.2975V9.60127V13.6005C12.2975 13.9452 12.4344 14.2758 12.6782 14.5196C12.9219 14.7634 13.2526 14.9003 13.5973 14.9003C13.942 14.9003 14.2727 14.7634 14.5164 14.5196C14.7602 14.2758 14.8971 13.9452 14.8971 13.6005V9.60127V9.10127H14.3971H12.7975Z" fill="#E9D8B1" stroke="#C4A140"/>
</svg>
