<svg width="16" height="16" viewBox="0 0 16 16" fill="none" xmlns="http://www.w3.org/2000/svg">
<mask id="path-1-inside-1_333_18777" fill="white">
<path d="M15.197 8.00159H12.7975V0.80302C12.798 0.66208 12.7613 0.523495 12.6911 0.401297C12.6209 0.279099 12.5196 0.177628 12.3975 0.107158C12.276 0.0369577 12.138 0 11.9976 0C11.8572 0 11.7193 0.0369577 11.5977 0.107158L9.19818 1.48288L6.79865 0.107158C6.67706 0.0369577 6.53914 0 6.39873 0C6.25833 0 6.12041 0.0369577 5.99881 0.107158L3.59929 1.48288L1.19977 0.107158C1.07818 0.0369577 0.940249 0 0.799847 0C0.659446 0 0.521518 0.0369577 0.399927 0.107158C0.277868 0.177628 0.176597 0.279099 0.106368 0.401297C0.0361392 0.523495 -0.000553238 0.66208 6.30502e-06 0.80302V13.6005C6.30502e-06 14.2369 0.252812 14.8472 0.70281 15.2972C1.15281 15.7472 1.76314 16 2.39953 16H13.5973C14.2337 16 14.844 15.7472 15.294 15.2972C15.744 14.8472 15.9968 14.2369 15.9968 13.6005V8.80143C15.9968 8.5893 15.9126 8.38586 15.7626 8.23586C15.6126 8.08586 15.4091 8.00159 15.197 8.00159ZM14.3971 13.6005C14.3971 13.8126 14.3129 14.0161 14.1629 14.1661C14.0129 14.316 13.8094 14.4003 13.5973 14.4003C13.3852 14.4003 13.1817 14.316 13.0317 14.1661C12.8817 14.0161 12.7975 13.8126 12.7975 13.6005V9.60127H14.3971V13.6005Z"/>
</mask>
<path d="M15.197 8.00159H12.7975V0.80302C12.798 0.66208 12.7613 0.523495 12.6911 0.401297C12.6209 0.279099 12.5196 0.177628 12.3975 0.107158C12.276 0.0369577 12.138 0 11.9976 0C11.8572 0 11.7193 0.0369577 11.5977 0.107158L9.19818 1.48288L6.79865 0.107158C6.67706 0.0369577 6.53914 0 6.39873 0C6.25833 0 6.12041 0.0369577 5.99881 0.107158L3.59929 1.48288L1.19977 0.107158C1.07818 0.0369577 0.940249 0 0.799847 0C0.659446 0 0.521518 0.0369577 0.399927 0.107158C0.277868 0.177628 0.176597 0.279099 0.106368 0.401297C0.0361392 0.523495 -0.000553238 0.66208 6.30502e-06 0.80302V13.6005C6.30502e-06 14.2369 0.252812 14.8472 0.70281 15.2972C1.15281 15.7472 1.76314 16 2.39953 16H13.5973C14.2337 16 14.844 15.7472 15.294 15.2972C15.744 14.8472 15.9968 14.2369 15.9968 13.6005V8.80143C15.9968 8.5893 15.9126 8.38586 15.7626 8.23586C15.6126 8.08586 15.4091 8.00159 15.197 8.00159ZM14.3971 13.6005C14.3971 13.8126 14.3129 14.0161 14.1629 14.1661C14.0129 14.316 13.8094 14.4003 13.5973 14.4003C13.3852 14.4003 13.1817 14.316 13.0317 14.1661C12.8817 14.0161 12.7975 13.8126 12.7975 13.6005V9.60127H14.3971V13.6005Z" fill="#FF5887"/>
<path d="M12.7975 8.00159H11.7975V9.00159H12.7975V8.00159ZM12.7975 0.80302L11.7975 0.79905V0.80302H12.7975ZM12.3975 0.107158L11.8975 0.973184L11.8975 0.973188L12.3975 0.107158ZM11.5977 0.107158L12.0951 0.974693L12.0977 0.973184L11.5977 0.107158ZM9.19818 1.48288L8.70079 2.35042L9.19818 2.63558L9.69556 2.35042L9.19818 1.48288ZM6.79865 0.107158L6.29865 0.973188L6.30127 0.974689L6.79865 0.107158ZM5.99881 0.107158L6.4962 0.974693L6.49881 0.973184L5.99881 0.107158ZM3.59929 1.48288L3.10191 2.35042L3.59929 2.63558L4.09667 2.35042L3.59929 1.48288ZM1.19977 0.107158L0.699765 0.973188L0.702384 0.974689L1.19977 0.107158ZM0.399927 0.107158L0.899919 0.973188L0.899927 0.973184L0.399927 0.107158ZM6.30502e-06 0.80302H1.00001L0.999998 0.79905L6.30502e-06 0.80302ZM6.30502e-06 13.6005H-0.999994H6.30502e-06ZM2.39953 16V17V16ZM13.5973 16V17V16ZM15.9968 13.6005H16.9968H15.9968ZM12.7975 9.60127V8.60127H11.7975V9.60127H12.7975ZM14.3971 9.60127H15.3971V8.60127H14.3971V9.60127ZM15.197 7.00159H12.7975V9.00159H15.197V7.00159ZM13.7975 8.00159V0.80302H11.7975V8.00159H13.7975ZM13.7975 0.80699C13.7987 0.489839 13.7161 0.177988 13.5581 -0.0969872L11.8241 0.899581C11.8065 0.869002 11.7973 0.834321 11.7975 0.79905L13.7975 0.80699ZM13.5581 -0.0969872C13.4001 -0.371963 13.1722 -0.600298 12.8975 -0.758871L11.8975 0.973188C11.867 0.955553 11.8417 0.93016 11.8241 0.899581L13.5581 -0.0969872ZM12.8975 -0.758867C12.6239 -0.916836 12.3136 -1 11.9976 -1V1C11.9625 1 11.928 0.990751 11.8975 0.973184L12.8975 -0.758867ZM11.9976 -1C11.6817 -1 11.3713 -0.916836 11.0977 -0.758867L12.0977 0.973184C12.0673 0.990751 12.0328 1 11.9976 1V-1ZM11.1003 -0.760372L8.70079 0.615354L9.69556 2.35042L12.0951 0.974689L11.1003 -0.760372ZM9.69556 0.615354L7.29604 -0.760372L6.30127 0.974689L8.70079 2.35042L9.69556 0.615354ZM7.29865 -0.758867C7.02504 -0.916836 6.71467 -1 6.39873 -1V1C6.3636 1 6.32908 0.990751 6.29865 0.973184L7.29865 -0.758867ZM6.39873 -1C6.0828 -1 5.77242 -0.916836 5.49881 -0.758867L6.49881 0.973184C6.46839 0.990751 6.43387 1 6.39873 1V-1ZM5.50143 -0.760372L3.10191 0.615354L4.09667 2.35042L6.4962 0.974689L5.50143 -0.760372ZM4.09667 0.615354L1.69715 -0.760372L0.702384 0.974689L3.10191 2.35042L4.09667 0.615354ZM1.69977 -0.758867C1.42616 -0.916836 1.11579 -1 0.799847 -1V1C0.764712 1 0.730196 0.990751 0.699768 0.973184L1.69977 -0.758867ZM0.799847 -1C0.483909 -1 0.173537 -0.916836 -0.100073 -0.758867L0.899927 0.973184C0.869499 0.990751 0.834983 1 0.799847 1V-1ZM-0.100065 -0.758871C-0.374729 -0.600298 -0.602614 -0.371963 -0.760646 -0.0969872L0.973382 0.899581C0.955807 0.93016 0.930464 0.955553 0.899919 0.973188L-0.100065 -0.758871ZM-0.760646 -0.0969872C-0.918678 0.177988 -1.00124 0.489839 -0.999986 0.80699L0.999998 0.79905C1.00014 0.834321 0.990956 0.869002 0.973382 0.899581L-0.760646 -0.0969872ZM-0.999994 0.80302V13.6005H1.00001V0.80302H-0.999994ZM-0.999994 13.6005C-0.999994 14.5021 -0.641831 15.3668 -0.00429682 16.0043L1.40992 14.5901C1.14746 14.3276 1.00001 13.9717 1.00001 13.6005H-0.999994ZM-0.00429682 16.0043C0.633238 16.6418 1.49792 17 2.39953 17V15C2.02835 15 1.67238 14.8526 1.40992 14.5901L-0.00429682 16.0043ZM2.39953 17H13.5973V15H2.39953V17ZM13.5973 17C14.4989 17 15.3636 16.6418 16.0011 16.0043L14.5869 14.5901C14.3245 14.8526 13.9685 15 13.5973 15V17ZM16.0011 16.0043C16.6387 15.3668 16.9968 14.5021 16.9968 13.6005H14.9968C14.9968 13.9717 14.8494 14.3276 14.5869 14.5901L16.0011 16.0043ZM16.9968 13.6005V8.80143H14.9968V13.6005H16.9968ZM16.9968 8.80143C16.9968 8.32409 16.8072 7.86629 16.4697 7.52875L15.0555 8.94296C15.0179 8.90543 14.9968 8.85451 14.9968 8.80143H16.9968ZM16.4697 7.52875C16.1321 7.19122 15.6743 7.00159 15.197 7.00159V9.00159C15.1439 9.00159 15.093 8.9805 15.0555 8.94296L16.4697 7.52875ZM13.3971 13.6005C13.3971 13.5474 13.4182 13.4965 13.4558 13.4589L14.87 14.8732C15.2075 14.5356 15.3971 14.0778 15.3971 13.6005H13.3971ZM13.4558 13.4589C13.4933 13.4214 13.5442 13.4003 13.5973 13.4003V15.4003C14.0746 15.4003 14.5324 15.2107 14.87 14.8732L13.4558 13.4589ZM13.5973 13.4003C13.6504 13.4003 13.7013 13.4214 13.7388 13.4589L12.3246 14.8732C12.6622 15.2107 13.12 15.4003 13.5973 15.4003V13.4003ZM13.7388 13.4589C13.7764 13.4965 13.7975 13.5474 13.7975 13.6005H11.7975C11.7975 14.0778 11.9871 14.5356 12.3246 14.8732L13.7388 13.4589ZM13.7975 13.6005V9.60127H11.7975V13.6005H13.7975ZM12.7975 10.6013H14.3971V8.60127H12.7975V10.6013ZM13.3971 9.60127V13.6005H15.3971V9.60127H13.3971Z" fill="#F1F5FD" mask="url(#path-1-inside-1_333_18777)"/>
</svg>
