<svg width="34" height="12" viewBox="0 0 34 12" fill="none" xmlns="http://www.w3.org/2000/svg">
<g clip-path="url(#clip0_475_14197)">
<path d="M34.3353 0.824429L33.7755 3.60733C33.763 3.67213 33.7307 3.73023 33.6841 3.77191C33.6374 3.81359 33.5792 3.83633 33.5193 3.83634H32.7232C32.6872 3.83637 32.6516 3.82822 32.6185 3.81241C32.5855 3.79659 32.5558 3.77345 32.5312 3.74441C32.5067 3.71537 32.4878 3.68107 32.4757 3.64362C32.4636 3.60617 32.4587 3.56638 32.4611 3.52672V3.47496C32.4993 2.56763 31.981 1.88931 30.8067 1.88977C28.8554 1.88977 27.4357 3.65908 27.25 5.98259C27.058 8.38214 28.5768 9.77633 30.6782 9.77588C31.4947 9.77849 32.3069 9.64461 33.0872 9.37878C33.1306 9.36363 33.1769 9.36119 33.2214 9.37169C33.266 9.3822 33.3073 9.40528 33.3413 9.43869C33.3754 9.4721 33.401 9.5147 33.4157 9.56232C33.4304 9.60994 33.4336 9.66095 33.4251 9.71038L33.1763 11.1481C33.1662 11.2081 33.1415 11.264 33.1051 11.3098C33.0686 11.3557 33.0216 11.3898 32.969 11.4087C32.5382 11.5603 31.3292 11.9162 29.4778 11.9166C25.0798 11.9166 23.2952 9.12275 23.5714 6.27435C23.8193 3.73786 25.3385 1.67909e-06 31.33 1.67909e-06C32.2724 -0.000563126 33.2104 0.141365 34.118 0.421834C34.1943 0.444902 34.2595 0.499717 34.3 0.574778C34.3406 0.649839 34.3532 0.739314 34.3353 0.824429ZM9.3295 0.427788L9.18397 1.15374C9.16888 1.23182 9.18071 1.3133 9.21713 1.38225C9.25356 1.4512 9.31196 1.50266 9.38092 1.52657C9.63426 1.6342 9.69024 1.90305 9.46965 2.10412L5.78977 5.48244L6.42168 2.29924C6.52948 1.81054 6.88068 1.60947 7.10292 1.52977L7.13899 1.51741C7.18699 1.5011 7.23021 1.47101 7.26423 1.43021C7.29825 1.38941 7.32185 1.33937 7.33263 1.28519L7.48355 0.531299C7.49188 0.489334 7.49156 0.445838 7.48262 0.404027C7.47368 0.362216 7.45635 0.323158 7.43191 0.28974C7.40747 0.256322 7.37654 0.229399 7.34142 0.210959C7.30629 0.192519 7.26786 0.183035 7.22897 0.183208H2.48473C2.41967 0.183176 2.35655 0.207672 2.30581 0.252645C2.25507 0.297618 2.21975 0.360374 2.20568 0.430536L2.05226 1.1945C2.03754 1.26979 2.04847 1.34844 2.08298 1.41537C2.11748 1.48231 2.17313 1.53283 2.23926 1.55725L2.28612 1.57512C2.58382 1.70382 2.9288 1.99374 2.78368 2.75588L1.65007 8.47603C1.35402 10.0383 0.874702 10.3571 0.417361 10.4157H0.402849C0.34319 10.4231 0.287113 10.4509 0.242493 10.4952C0.197874 10.5396 0.166952 10.5983 0.154068 10.6631L0.00728806 11.3959C-0.0013078 11.44 -0.000855811 11.4857 0.00861091 11.5297C0.0180776 11.5736 0.0363193 11.6146 0.062 11.6497C0.0876806 11.6849 0.12015 11.7132 0.157029 11.7327C0.193909 11.7522 0.234265 11.7623 0.275142 11.7623H5.26319C5.32242 11.7622 5.37987 11.7398 5.42606 11.6989C5.47226 11.6579 5.50446 11.6008 5.51736 11.5369L5.68943 10.6795C5.70304 10.6119 5.6943 10.5411 5.6648 10.48C5.6353 10.4188 5.58697 10.3713 5.52855 10.3461L5.49621 10.3319C5.2437 10.2188 4.89914 9.97786 4.98704 9.52351L5.56753 6.59863C7.55321 10.6118 8.20999 11.7664 10.595 11.766H12.7473C12.8063 11.766 12.8635 11.7438 12.9096 11.7031C12.9556 11.6624 12.9878 11.6056 13.0007 11.542L13.1512 10.7991C13.1604 10.7545 13.1606 10.7082 13.1516 10.6636C13.1427 10.6189 13.1249 10.577 13.0995 10.5409C13.0741 10.5048 13.0417 10.4754 13.0048 10.4548C12.9678 10.4341 12.9272 10.4228 12.8858 10.4217C12.3468 10.4125 12.0831 10.2747 11.5474 9.51389L8.78343 5.38214L12.375 2.08443C12.8568 1.66809 13.4447 1.55084 13.7702 1.50321L13.8026 1.49954C13.8581 1.49381 13.9105 1.46883 13.9523 1.42819C13.9942 1.38755 14.0233 1.33333 14.0356 1.27328L14.1824 0.540459C14.1915 0.497711 14.1917 0.453247 14.183 0.410403C14.1743 0.367558 14.1569 0.327446 14.1322 0.293073C14.1074 0.2587 14.076 0.23096 14.0401 0.211933C14.0043 0.192905 13.9651 0.183085 13.9253 0.183208H9.60482C9.54055 0.183138 9.47819 0.207362 9.42811 0.251855C9.37802 0.296348 9.34323 0.35843 9.3295 0.427788ZM22.6177 3.60504H23.4577C23.5173 3.60513 23.5751 3.58274 23.6215 3.54159C23.668 3.50045 23.7003 3.443 23.7132 3.37878L24.2845 0.534047C24.2927 0.491801 24.2923 0.44806 24.2833 0.406022C24.2742 0.363985 24.2568 0.324715 24.2322 0.291085C24.2076 0.257454 24.1766 0.230314 24.1413 0.211649C24.106 0.192985 24.0674 0.183267 24.0283 0.183208H15.1924C15.1273 0.183179 15.064 0.207723 15.0132 0.252781C14.9624 0.297839 14.927 0.36071 14.913 0.430994L14.7612 1.19084C14.7467 1.26276 14.7566 1.33805 14.7889 1.4025C14.8212 1.46696 14.8737 1.51613 14.9366 1.54076L14.966 1.55267C15.2563 1.67542 15.6618 1.98641 15.4856 2.75038L13.7532 11.4147C13.7448 11.4568 13.745 11.5005 13.7539 11.5425C13.7628 11.5845 13.7801 11.6238 13.8046 11.6574C13.8291 11.6911 13.8601 11.7182 13.8953 11.7368C13.9306 11.7555 13.9692 11.7651 14.0082 11.765H17.9821C18.0415 11.765 18.0991 11.7427 18.1455 11.7016C18.1919 11.6606 18.2242 11.6033 18.2371 11.5392L18.41 10.6745C18.4224 10.6127 18.4152 10.548 18.3894 10.4914C18.3636 10.4348 18.321 10.3898 18.2686 10.364L18.23 10.3443C17.9779 10.2069 17.6027 9.89404 17.7283 9.28717C17.7424 9.20611 18.1197 7.32824 18.1197 7.32824H21.499C21.5586 7.32825 21.6165 7.30578 21.663 7.26456C21.7095 7.22334 21.7419 7.16583 21.7548 7.10153L22.0729 5.51908C22.0814 5.47671 22.0812 5.43277 22.0722 5.3905C22.0633 5.34823 22.0459 5.30871 22.0213 5.27486C21.9967 5.24101 21.9656 5.2137 21.9301 5.19493C21.8947 5.17616 21.8559 5.16641 21.8166 5.16641H18.5514L19.1605 2.09771L21.441 2.09496C22.1778 2.09496 22.4025 2.52 22.3598 3.24458C22.3598 3.24458 22.3598 3.2542 22.3565 3.28351C22.3526 3.324 22.3566 3.36492 22.3679 3.40364C22.3793 3.44235 22.3979 3.47801 22.4225 3.5083C22.4471 3.5386 22.4772 3.56286 22.5108 3.57952C22.5444 3.59618 22.5808 3.60487 22.6177 3.60504Z" fill="#E4002B"/>
</g>
<defs>
<clipPath id="clip0_475_14197">
<rect width="34" height="12" fill="white"/>
</clipPath>
</defs>
</svg>
