<svg width="163" height="59" viewBox="0 0 163 59" fill="none" xmlns="http://www.w3.org/2000/svg">
<path d="M57.5776 31V18.31H62.8696C64.2376 18.31 65.2876 18.598 66.0196 19.174C66.7636 19.75 67.1356 20.56 67.1356 21.604C67.1356 22.384 66.9016 23.038 66.4336 23.566C65.9656 24.094 65.3236 24.448 64.5076 24.628V24.358C65.4436 24.478 66.1696 24.808 66.6856 25.348C67.2016 25.888 67.4596 26.602 67.4596 27.49C67.4596 28.618 67.0756 29.488 66.3076 30.1C65.5516 30.7 64.4836 31 63.1036 31H57.5776ZM59.3956 29.542H62.9056C63.7576 29.542 64.4236 29.38 64.9036 29.056C65.3956 28.732 65.6416 28.186 65.6416 27.418C65.6416 26.65 65.3956 26.104 64.9036 25.78C64.4236 25.456 63.7576 25.294 62.9056 25.294H59.3956V29.542ZM59.3956 23.854H62.5816C63.4936 23.854 64.1776 23.68 64.6336 23.332C65.0896 22.984 65.3176 22.474 65.3176 21.802C65.3176 21.13 65.0896 20.62 64.6336 20.272C64.1776 19.924 63.4936 19.75 62.5816 19.75H59.3956V23.854ZM76.8119 31.162C76.0079 31.162 75.3059 30.976 74.7059 30.604C74.1059 30.232 73.6379 29.692 73.3019 28.984C72.9779 28.276 72.8159 27.436 72.8159 26.464C72.8159 25.48 72.9779 24.64 73.3019 23.944C73.6379 23.248 74.1059 22.714 74.7059 22.342C75.3059 21.958 76.0079 21.766 76.8119 21.766C77.6039 21.766 78.2939 21.964 78.8819 22.36C79.4699 22.756 79.8599 23.296 80.0519 23.98H79.8539L80.0339 21.928H81.7979C81.7619 22.3 81.7259 22.672 81.6899 23.044C81.6659 23.404 81.6539 23.758 81.6539 24.106V31H79.8359V28.984H80.0339C79.8419 29.656 79.4459 30.19 78.8459 30.586C78.2579 30.97 77.5799 31.162 76.8119 31.162ZM77.2619 29.74C78.0419 29.74 78.6659 29.464 79.1339 28.912C79.6139 28.36 79.8539 27.544 79.8539 26.464C79.8539 25.384 79.6139 24.574 79.1339 24.034C78.6659 23.482 78.0419 23.206 77.2619 23.206C76.4699 23.206 75.8339 23.482 75.3539 24.034C74.8859 24.574 74.6519 25.384 74.6519 26.464C74.6519 27.544 74.8859 28.36 75.3539 28.912C75.8219 29.464 76.4579 29.74 77.2619 29.74ZM87.9066 31V24.106C87.9066 23.758 87.8886 23.404 87.8526 23.044C87.8286 22.672 87.7986 22.3 87.7626 21.928H89.5266L89.6886 23.836H89.4726C89.7486 23.164 90.1746 22.654 90.7506 22.306C91.3266 21.946 91.9926 21.766 92.7486 21.766C93.8166 21.766 94.6206 22.06 95.1606 22.648C95.7126 23.236 95.9886 24.148 95.9886 25.384V31H94.1706V25.492C94.1706 24.688 94.0086 24.112 93.6846 23.764C93.3726 23.404 92.8926 23.224 92.2446 23.224C91.4766 23.224 90.8646 23.464 90.4086 23.944C89.9526 24.412 89.7246 25.048 89.7246 25.852V31H87.9066ZM102.177 31V17.752H103.995V25.888H104.031L107.991 21.928H110.241L105.453 26.698L105.471 25.888L110.637 31H108.333L104.031 26.842H103.995V31H102.177ZM114.788 35.086L114.356 33.61C114.92 33.49 115.388 33.346 115.76 33.178C116.144 33.01 116.462 32.788 116.714 32.512C116.966 32.248 117.182 31.906 117.362 31.486L117.812 30.424L117.776 31.162L113.834 21.928H115.778L118.838 29.488H118.352L121.412 21.928H123.284L119.126 31.648C118.862 32.248 118.58 32.752 118.28 33.16C117.98 33.568 117.656 33.898 117.308 34.15C116.96 34.402 116.576 34.6 116.156 34.744C115.736 34.888 115.28 35.002 114.788 35.086ZM128.308 31V17.752H130.126V25.888H130.162L134.122 21.928H136.372L131.584 26.698L131.602 25.888L136.768 31H134.464L130.162 26.842H130.126V31H128.308ZM145.489 31.162C144.025 31.162 142.873 30.748 142.033 29.92C141.193 29.092 140.773 27.946 140.773 26.482C140.773 25.534 140.953 24.706 141.313 23.998C141.685 23.29 142.195 22.744 142.843 22.36C143.503 21.964 144.265 21.766 145.129 21.766C145.981 21.766 146.695 21.946 147.271 22.306C147.847 22.666 148.285 23.176 148.585 23.836C148.885 24.484 149.035 25.252 149.035 26.14V26.716H142.195V25.672H147.793L147.487 25.906C147.487 25.006 147.283 24.31 146.875 23.818C146.479 23.314 145.903 23.062 145.147 23.062C144.307 23.062 143.659 23.356 143.203 23.944C142.747 24.52 142.519 25.318 142.519 26.338V26.518C142.519 27.586 142.777 28.39 143.293 28.93C143.821 29.47 144.565 29.74 145.525 29.74C146.053 29.74 146.545 29.668 147.001 29.524C147.469 29.368 147.913 29.116 148.333 28.768L148.927 30.01C148.507 30.382 147.997 30.67 147.397 30.874C146.797 31.066 146.161 31.162 145.489 31.162ZM154.328 35.086L153.896 33.61C154.46 33.49 154.928 33.346 155.3 33.178C155.684 33.01 156.002 32.788 156.254 32.512C156.506 32.248 156.722 31.906 156.902 31.486L157.352 30.424L157.316 31.162L153.374 21.928H155.318L158.378 29.488H157.892L160.952 21.928H162.824L158.666 31.648C158.402 32.248 158.12 32.752 157.82 33.16C157.52 33.568 157.196 33.898 156.848 34.15C156.5 34.402 156.116 34.6 155.696 34.744C155.276 34.888 154.82 35.002 154.328 35.086Z" fill="#1B1D4D"/>
<circle cx="54" cy="7" r="3" stroke="#FF5887" stroke-width="4"/>
<g filter="url(#filter0_d_105_4328)">
<path d="M51.3443 23.8347C51.3443 30.9303 45.5354 36.7143 38.4092 36.7143C31.283 36.7143 25.4741 30.9303 25.4741 23.8347V20.0204C25.4741 18.3508 26.8277 16.9972 28.4973 16.9972C30.167 16.9972 31.5206 18.3508 31.5206 20.0204V23.8562C31.5206 27.6405 34.6086 30.7153 38.4092 30.7153C42.2098 30.7153 45.2979 27.6405 45.2979 23.8562C45.2979 20.072 42.2098 16.9972 38.4092 16.9972H34.5524C32.8899 16.9972 31.5422 15.6495 31.5422 13.987C31.5422 12.3245 32.8899 10.9767 34.5524 10.9767H38.4308C45.557 10.9552 51.3443 16.7392 51.3443 23.8347Z" fill="url(#paint0_linear_105_4328)"/>
</g>
<g filter="url(#filter1_d_105_4328)">
<path d="M22.4853 10.9553H19.0102C17.3477 10.9553 16 12.303 16 13.9656C16 15.6281 17.3477 16.9758 19.0102 16.9758H22.4853C24.1478 16.9758 25.4955 15.6281 25.4955 13.9656C25.4955 12.303 24.1478 10.9553 22.4853 10.9553Z" fill="url(#paint1_linear_105_4328)"/>
</g>
<path d="M31.5421 5.97764V4.02323C31.5421 2.35355 30.1885 1 28.5188 1C26.8492 1 25.4956 2.35355 25.4956 4.02323V10.9553H26.5644C29.3135 10.9553 31.5421 8.72671 31.5421 5.97764Z" fill="#FF5887"/>
<defs>
<filter id="filter0_d_105_4328" x="9.47412" y="0.976685" width="57.8701" height="57.7375" filterUnits="userSpaceOnUse" color-interpolation-filters="sRGB">
<feFlood flood-opacity="0" result="BackgroundImageFix"/>
<feColorMatrix in="SourceAlpha" type="matrix" values="0 0 0 0 0 0 0 0 0 0 0 0 0 0 0 0 0 0 127 0" result="hardAlpha"/>
<feOffset dy="6"/>
<feGaussianBlur stdDeviation="8"/>
<feComposite in2="hardAlpha" operator="out"/>
<feColorMatrix type="matrix" values="0 0 0 0 0.0862745 0 0 0 0 0.0980392 0 0 0 0 0.4 0 0 0 0.08 0"/>
<feBlend mode="normal" in2="BackgroundImageFix" result="effect1_dropShadow_105_4328"/>
<feBlend mode="normal" in="SourceGraphic" in2="effect1_dropShadow_105_4328" result="shape"/>
</filter>
<filter id="filter1_d_105_4328" x="0" y="0.955322" width="41.4956" height="38.0205" filterUnits="userSpaceOnUse" color-interpolation-filters="sRGB">
<feFlood flood-opacity="0" result="BackgroundImageFix"/>
<feColorMatrix in="SourceAlpha" type="matrix" values="0 0 0 0 0 0 0 0 0 0 0 0 0 0 0 0 0 0 127 0" result="hardAlpha"/>
<feOffset dy="6"/>
<feGaussianBlur stdDeviation="8"/>
<feComposite in2="hardAlpha" operator="out"/>
<feColorMatrix type="matrix" values="0 0 0 0 0.0862745 0 0 0 0 0.0980392 0 0 0 0 0.4 0 0 0 0.08 0"/>
<feBlend mode="normal" in2="BackgroundImageFix" result="effect1_dropShadow_105_4328"/>
<feBlend mode="normal" in="SourceGraphic" in2="effect1_dropShadow_105_4328" result="shape"/>
</filter>
<linearGradient id="paint0_linear_105_4328" x1="25.4741" y1="10.9767" x2="51.9074" y2="11.5686" gradientUnits="userSpaceOnUse">
<stop stop-color="#FF5887"/>
<stop offset="0.576041" stop-color="#161966"/>
</linearGradient>
<linearGradient id="paint1_linear_105_4328" x1="16" y1="10.9553" x2="25.6951" y2="11.296" gradientUnits="userSpaceOnUse">
<stop stop-color="#FF5887"/>
<stop offset="1" stop-color="#161966"/>
</linearGradient>
</defs>
</svg>
