<svg width="27" height="27" viewBox="0 0 27 27" fill="none" xmlns="http://www.w3.org/2000/svg">
<path d="M17.0184 20.0483H10.0591V6.92842H17.0184V20.0483Z" fill="#FF5F00"/>
<path d="M10.5007 13.4881C10.4996 14.7517 10.7725 15.9989 11.2988 17.1355C11.8251 18.272 12.591 19.268 13.5385 20.0481C12.3652 21.0156 10.956 21.6173 9.4722 21.7844C7.98835 21.9515 6.48963 21.6772 5.14734 20.9929C3.80504 20.3087 2.67333 19.242 1.88157 17.9149C1.0898 16.5878 0.669922 15.0538 0.669922 13.4881C0.669922 11.9225 1.0898 10.3885 1.88157 9.06137C2.67333 7.73425 3.80504 6.66761 5.14734 5.98335C6.48963 5.2991 7.98835 5.02483 9.4722 5.19191C10.956 5.35899 12.3652 5.96067 13.5385 6.92818C12.591 7.70829 11.8251 8.70431 11.2988 9.84083C10.7725 10.9774 10.4996 12.2246 10.5007 13.4881Z" fill="#EB001B"/>
<path d="M26.4067 13.4882C26.4068 11.9226 25.9869 10.3885 25.1952 9.0614C24.4035 7.73428 23.2718 6.66763 21.9296 5.98337C20.5873 5.2991 19.0886 5.02484 17.6048 5.19192C16.1209 5.35899 14.7118 5.96067 13.5386 6.92819C14.4852 7.70908 15.2505 8.70526 15.7767 9.84161C16.3029 10.978 16.5763 12.2248 16.5763 13.4882C16.5763 14.7515 16.3029 15.9983 15.7767 17.1347C15.2505 18.271 14.4852 19.2672 13.5386 20.0481C14.7118 21.0156 16.1209 21.6173 17.6048 21.7844C19.0886 21.9515 20.5873 21.6772 21.9296 20.9929C23.2718 20.3087 24.4035 19.242 25.1952 17.9149C25.9869 16.5878 26.4068 15.0538 26.4067 13.4882Z" fill="#F79E1B"/>
<path d="M25.648 8.31823V8.58683H25.7512V8.64155H25.4883V8.58683H25.5916V8.31823H25.648ZM26.1584 8.31823V8.64209H26.0778L25.9851 8.41933L25.8924 8.64209H25.8118V8.31823H25.8687V8.56252L25.9556 8.35191H26.0146L26.1016 8.56305V8.31823H26.1584Z" fill="#F79E1B"/>
</svg>
