<svg width="71" height="71" viewBox="0 0 71 71" fill="none" xmlns="http://www.w3.org/2000/svg">
<path d="M35.763 22.9667C28.9842 22.9667 23.4412 28.5095 23.4412 35.2883C23.4412 42.1045 28.9842 47.6099 35.763 47.6099C42.5792 47.6099 48.1213 42.067 48.1213 35.2883C48.0838 28.5095 42.5792 22.9667 35.763 22.9667ZM35.763 49.5198C27.9356 49.5198 21.5687 43.1532 21.5687 35.3258C21.5687 27.4984 27.9356 21.1316 35.763 21.1316C43.5904 21.1316 49.9938 27.4984 49.9938 35.3258C49.9938 43.1532 43.5904 49.5198 35.763 49.5198ZM35.763 20.2702C27.4862 20.2702 20.7439 27.0115 20.7439 35.2883C20.7439 43.5651 27.4862 50.3064 35.763 50.3064C44.0398 50.3064 50.8168 43.5651 50.8168 35.2883C50.8168 27.0115 44.0398 20.2702 35.763 20.2702ZM35.763 52.2164C26.4375 52.2164 18.8713 44.6512 18.8713 35.3258C18.8713 26.0003 26.4375 18.4351 35.763 18.4351C45.0884 18.4351 52.6893 26.0003 52.6893 35.3258C52.6893 44.6512 45.0884 52.2164 35.763 52.2164Z" fill="#D8BC79"/>
<path d="M35.7611 1.91946C35.5364 1.91946 35.3478 2.10677 35.3478 2.33148V20.6828C35.3478 21.1322 36.1725 21.1322 36.1725 20.6828V2.33148C36.1725 2.10677 35.9858 1.91946 35.7611 1.91946ZM35.7611 22.9672C34.4877 22.9672 33.4752 21.9561 33.4752 20.6828V2.33148C33.4752 1.05813 34.4877 0.046875 35.7611 0.046875C37.0344 0.046875 38.0451 1.05813 38.0451 2.33148V20.6828C38.0451 21.9561 37.0344 22.9672 35.7611 22.9672Z" fill="#D8BC79"/>
<path d="M50.365 34.877C50.1403 34.877 49.9517 35.0643 49.9517 35.289C49.9517 35.5137 50.1403 35.7009 50.365 35.7009H68.716C68.9407 35.7009 69.1274 35.5137 69.1274 35.289C69.1274 35.0643 68.9407 34.877 68.716 34.877H50.365ZM68.716 37.5735H50.365C49.0917 37.5735 48.0792 36.5624 48.0792 35.289C48.0792 34.0156 49.0917 33.0044 50.365 33.0044H68.716C69.9893 33.0044 71 34.0156 71 35.289C71 36.5624 69.9893 37.5735 68.716 37.5735Z" fill="#D8BC79"/>
<path d="M35.7611 49.5203C35.5364 49.5203 35.3478 49.7076 35.3478 49.9323V68.2836C35.3478 68.733 36.1725 68.733 36.1725 68.2836V49.9323C36.1725 49.7076 35.9858 49.5203 35.7611 49.5203ZM35.7611 70.5307C34.4877 70.5307 33.4752 69.5195 33.4752 68.2461V49.8948C33.4752 48.6215 34.4877 47.6104 35.7611 47.6104C37.0344 47.6104 38.0451 48.6215 38.0451 49.8948V68.2461C38.0451 69.5195 37.0344 70.5307 35.7611 70.5307Z" fill="#D8BC79"/>
<path d="M2.80259 34.877C2.57788 34.877 2.39114 35.0643 2.39114 35.289C2.39114 35.5137 2.57788 35.7009 2.80259 35.7009H21.1535C21.3782 35.7009 21.5668 35.5137 21.5668 35.289C21.5668 35.0643 21.3782 34.877 21.1535 34.877H2.80259ZM21.1535 37.5735H2.80259C1.56669 37.5735 0.518555 36.5624 0.518555 35.289C0.518555 34.0156 1.52924 33.0044 2.80259 33.0044H21.1535C22.4269 33.0044 23.4394 34.0156 23.4394 35.289C23.4394 36.5624 22.3894 37.5735 21.1535 37.5735Z" fill="#D8BC79"/>
<path d="M55.0502 15.5899C54.9378 15.5899 54.8252 15.6273 54.7503 15.7022L45.7988 24.6532C45.6865 24.7656 45.6873 24.8779 45.6873 24.9528C45.6873 25.0277 45.6865 25.1401 45.7988 25.2525C45.9861 25.4397 46.1355 25.4772 46.3602 25.2525L55.3501 16.3015C55.4624 16.1891 55.4616 16.0768 55.4616 16.0019C55.4616 15.927 55.4624 15.8146 55.3501 15.7022C55.2752 15.6273 55.1625 15.5899 55.0502 15.5899ZM46.0987 27.2374C45.4995 27.2374 44.8996 27.0126 44.4877 26.5632C44.0382 26.1512 43.8147 25.552 43.8147 24.9528C43.8147 24.3536 44.0382 23.7544 44.4877 23.3424L53.4775 14.3914C54.3763 13.4926 55.799 13.4926 56.6978 14.3914C57.1473 14.8408 57.3708 15.4027 57.3708 16.0019C57.3708 16.6011 57.1473 17.2003 56.6978 17.6123L47.7464 26.5632C47.2595 27.0126 46.698 27.2374 46.0987 27.2374Z" fill="#D8BC79"/>
<path d="M46.0987 45.2135C45.9864 45.2135 45.8737 45.251 45.7988 45.3259C45.6865 45.4382 45.6873 45.5507 45.6873 45.6256C45.6873 45.7005 45.6865 45.8128 45.7988 45.9251L54.7868 54.8761C55.0116 55.1008 55.2003 55.0634 55.3501 54.8761C55.4624 54.7638 55.4616 54.6513 55.4616 54.5764C55.4616 54.5015 55.4624 54.3892 55.3501 54.2769L46.3986 45.2884C46.2863 45.2509 46.2111 45.2135 46.0987 45.2135ZM55.0502 56.8984C54.451 56.8984 53.8885 56.6737 53.4391 56.2243L44.4877 47.2734C44.0382 46.8615 43.8147 46.2622 43.8147 45.6629C43.8147 45.0637 44.0382 44.4645 44.4877 44.0525C45.3865 43.1537 46.811 43.1537 47.7098 44.0525L56.6978 53.0409C57.1473 53.4529 57.3708 54.0521 57.3708 54.6513C57.3708 55.2505 57.1473 55.8498 56.6978 56.2618C56.2484 56.6363 55.6869 56.8984 55.0502 56.8984Z" fill="#D8BC79"/>
<path d="M25.4253 45.2508C25.313 45.2508 25.2003 45.2882 25.1254 45.3631L16.174 54.3515C16.0616 54.4638 16.0624 54.5761 16.0624 54.651C16.0624 54.7259 16.0616 54.8384 16.174 54.9507C16.3987 55.1754 16.5874 55.138 16.7372 54.9507L25.6868 45.9997C25.7992 45.8874 25.8002 45.7751 25.8002 45.7002C25.8002 45.6253 25.7992 45.513 25.6868 45.4006C25.6494 45.2883 25.5377 45.2508 25.4253 45.2508ZM16.4373 56.8982C15.8381 56.8982 15.2756 56.6735 14.8262 56.2241C14.3768 55.8121 14.1533 55.2129 14.1533 54.6137C14.1533 54.0144 14.3768 53.4152 14.8262 53.0033L23.7777 44.0523C24.6391 43.1909 26.1366 43.1909 26.998 44.0523C27.4474 44.5017 27.6728 45.0635 27.6728 45.6627C27.6728 46.2619 27.4474 46.8612 26.998 47.2732L18.0465 56.2241C17.6346 56.636 17.074 56.8982 16.4373 56.8982Z" fill="#D8BC79"/>
<path d="M16.4373 15.5899C16.3624 15.5899 16.2497 15.5899 16.1374 15.7022C16.025 15.8146 16.0258 15.927 16.0258 16.0019C16.0258 16.0768 16.025 16.1891 16.1374 16.3015L25.1254 25.2524C25.3501 25.4397 25.4996 25.4397 25.6868 25.2524C25.8366 25.1026 25.8366 24.8404 25.6868 24.6906L16.6988 15.7397C16.6239 15.5899 16.5122 15.5899 16.4373 15.5899ZM25.4253 27.2374C24.8261 27.2374 24.2637 27.0126 23.8142 26.5632L14.8262 17.6123C14.3768 17.2003 14.1533 16.6011 14.1533 16.0019C14.1533 15.4027 14.3768 14.8034 14.8262 14.3914C15.2382 13.9794 15.8381 13.7173 16.4373 13.7173C17.0365 13.7173 17.6346 13.942 18.0465 14.3914L27.0364 23.3424C27.9352 24.2412 27.9352 25.6643 27.0364 26.5632C26.6244 27.0126 26.0245 27.2374 25.4253 27.2374Z" fill="#D8BC79"/>
<path d="M35.7593 30.9446C33.3624 30.9446 31.4143 32.8921 31.4143 35.3265C31.4143 37.7608 33.3624 39.7083 35.7593 39.7083C38.1562 39.7083 40.1408 37.7608 40.1408 35.3265C40.1408 32.8921 38.1562 30.9446 35.7593 30.9446ZM35.7593 41.5433C32.3137 41.5433 29.5417 38.7345 29.5417 35.289C29.5417 31.8434 32.3512 29.0345 35.7593 29.0345C39.2048 29.0345 42.0134 31.8434 42.0134 35.289C42.0134 38.7345 39.2048 41.5433 35.7593 41.5433ZM35.7593 28.2481C31.8643 28.2481 28.717 31.4315 28.717 35.3265C28.717 39.2214 31.9018 42.3673 35.7593 42.3673C39.6543 42.3673 42.8363 39.184 42.8363 35.3265C42.7989 31.3941 39.6543 28.2481 35.7593 28.2481ZM35.7593 44.2399C30.8531 44.2399 26.8444 40.2326 26.8444 35.3265C26.8444 30.4203 30.8531 26.3755 35.7593 26.3755C40.7029 26.3755 44.7089 30.3829 44.7089 35.3265C44.7089 40.2701 40.6655 44.2399 35.7593 44.2399Z" fill="#D8BC79"/>
</svg>
