<svg width="213" height="428" viewBox="0 0 213 428" fill="none" xmlns="http://www.w3.org/2000/svg">
<path d="M55.9103 426.294C99.0953 426.294 138.12 403.216 166.315 366.046C194.51 328.877 211.919 277.572 211.919 220.945C211.919 164.317 194.51 113.013 166.315 75.8436C138.12 38.6738 99.0953 15.5955 55.9103 15.5955C12.7252 15.5955 -26.2992 38.6738 -54.4944 75.8436C-82.6891 113.013 -100.099 164.317 -100.099 220.945C-100.099 277.572 -82.6891 328.877 -54.4944 366.046C-26.2992 403.216 12.7252 426.294 55.9103 426.294Z" stroke="#F1C9C9" stroke-width="2"/>
<path d="M31.7947 426.294C74.9797 426.294 114.004 403.216 142.199 366.046C170.394 328.877 187.804 277.572 187.804 220.945C187.804 164.317 170.394 113.013 142.199 75.8436C114.004 38.6738 74.9797 15.5955 31.7947 15.5955C-11.3903 15.5955 -50.4147 38.6738 -78.6099 75.8436C-106.805 113.013 -124.214 164.317 -124.214 220.945C-124.214 277.572 -106.805 328.877 -78.6099 366.046C-50.4147 403.216 -11.3903 426.294 31.7947 426.294Z" stroke="#F1C9C9" stroke-width="2"/>
<path d="M5.95665 426.294C49.1417 426.294 88.1661 403.216 116.361 366.046C144.556 328.877 161.966 277.572 161.966 220.945C161.966 164.317 144.556 113.013 116.361 75.8436C88.1661 38.6738 49.1417 15.5955 5.95665 15.5955C-37.2284 15.5955 -76.2528 38.6738 -104.448 75.8436C-132.643 113.013 -150.052 164.317 -150.052 220.945C-150.052 277.572 -132.643 328.877 -104.448 366.046C-76.2528 403.216 -37.2284 426.294 5.95665 426.294Z" stroke="#F1C9C9" stroke-width="2"/>
<path d="M-31.9393 411.954C11.2457 411.954 50.2701 388.876 78.4653 351.706C106.66 314.537 124.07 263.233 124.07 206.605C124.07 149.977 106.66 98.673 78.4653 61.5038C50.2701 24.3339 11.2457 1.25562 -31.9393 1.25562C-75.1244 1.25562 -114.149 24.3339 -142.344 61.5038C-170.539 98.673 -187.948 149.977 -187.948 206.605C-187.948 263.233 -170.539 314.537 -142.344 351.706C-114.149 388.876 -75.1244 411.954 -31.9393 411.954Z" stroke="#F1C9C9" stroke-width="2"/>
<path d="M-50.9859 411.954C-7.8009 411.954 31.2235 388.876 59.4187 351.706C87.6134 314.537 105.023 263.233 105.023 206.605C105.023 149.977 87.6134 98.673 59.4187 61.5038C31.2235 24.3339 -7.8009 1.25562 -50.9859 1.25562C-94.1709 1.25562 -133.195 24.3339 -161.391 61.5038C-189.585 98.673 -206.995 149.977 -206.995 206.605C-206.995 263.233 -189.585 314.537 -161.391 351.706C-133.195 388.876 -94.1709 411.954 -50.9859 411.954Z" stroke="#F1C9C9" stroke-width="2"/>
</svg>
