<svg width="213" height="428" viewBox="0 0 213 428" fill="none" xmlns="http://www.w3.org/2000/svg">
<path d="M55.9103 426.294C99.0953 426.294 138.12 403.216 166.315 366.046C194.51 328.877 211.919 277.573 211.919 220.945C211.919 164.317 194.51 113.013 166.315 75.8439C138.12 38.674 99.0953 15.5957 55.9103 15.5957C12.7253 15.5957 -26.2991 38.674 -54.4943 75.8439C-82.689 113.013 -100.099 164.317 -100.099 220.945C-100.099 277.573 -82.689 328.877 -54.4943 366.046C-26.2991 403.216 12.7253 426.294 55.9103 426.294Z" stroke="#E9D8B1" stroke-width="2"/>
<path d="M31.7948 426.294C74.9798 426.294 114.004 403.216 142.199 366.046C170.394 328.877 187.804 277.573 187.804 220.945C187.804 164.317 170.394 113.013 142.199 75.8439C114.004 38.674 74.9798 15.5957 31.7948 15.5957C-11.3902 15.5957 -50.4147 38.674 -78.6099 75.8439C-106.805 113.013 -124.214 164.317 -124.214 220.945C-124.214 277.573 -106.805 328.877 -78.6099 366.046C-50.4147 403.216 -11.3902 426.294 31.7948 426.294Z" stroke="#E9D8B1" stroke-width="2"/>
<path d="M5.95671 426.294C49.1417 426.294 88.1662 403.216 116.361 366.046C144.556 328.877 161.966 277.573 161.966 220.945C161.966 164.317 144.556 113.013 116.361 75.8439C88.1662 38.674 49.1417 15.5957 5.95671 15.5957C-37.2283 15.5957 -76.2527 38.674 -104.448 75.8439C-132.643 113.013 -150.052 164.317 -150.052 220.945C-150.052 277.573 -132.643 328.877 -104.448 366.046C-76.2527 403.216 -37.2283 426.294 5.95671 426.294Z" stroke="#E9D8B1" stroke-width="2"/>
<path d="M-31.9393 411.955C11.2457 411.955 50.2702 388.876 78.4654 351.706C106.66 314.537 124.07 263.233 124.07 206.605C124.07 149.978 106.66 98.6733 78.4654 61.504C50.2702 24.3342 11.2457 1.25586 -31.9393 1.25586C-75.1243 1.25586 -114.149 24.3342 -142.344 61.504C-170.539 98.6733 -187.948 149.978 -187.948 206.605C-187.948 263.233 -170.539 314.537 -142.344 351.706C-114.149 388.876 -75.1243 411.955 -31.9393 411.955Z" stroke="#E9D8B1" stroke-width="2"/>
<path d="M-50.9859 411.955C-7.80084 411.955 31.2236 388.876 59.4188 351.706C87.6135 314.537 105.023 263.233 105.023 206.605C105.023 149.978 87.6135 98.6733 59.4188 61.504C31.2236 24.3342 -7.80084 1.25586 -50.9859 1.25586C-94.1709 1.25586 -133.195 24.3342 -161.391 61.504C-189.585 98.6733 -206.995 149.978 -206.995 206.605C-206.995 263.233 -189.585 314.537 -161.391 351.706C-133.195 388.876 -94.1709 411.955 -50.9859 411.955Z" stroke="#E9D8B1" stroke-width="2"/>
</svg>
