<svg width="144" height="144" viewBox="0 0 144 144" fill="none" xmlns="http://www.w3.org/2000/svg">
<path d="M122 85C122 112.614 99.6142 135 72 135C44.3858 135 22 112.614 22 85C22 57.3858 44.3858 35 72 35C99.6142 35 122 57.3858 122 85Z" fill="#F5F5F5"/>
<path d="M102.683 115.534H42.6788C40.9064 115.534 39.4688 114.097 39.4688 112.324V12.2101C39.4688 10.4376 40.9064 9 42.6788 9H102.683C104.456 9 105.893 10.4376 105.893 12.2101V112.324C105.893 114.097 104.456 115.534 102.683 115.534Z" fill="#C4A140"/>
<path d="M102.683 9H94.7539V115.534H102.683C104.456 115.534 105.893 114.097 105.893 112.324V12.2101C105.893 10.4376 104.456 9 102.683 9Z" fill="#CBAA53"/>
<path d="M39.4688 21.4106H105.893V103.124H39.4688V21.4106Z" fill="#D9E5FF"/>
<path d="M97.4361 76.4702C100.442 76.4702 103.301 77.0946 105.893 78.22V21.4106H94.7539V76.638C95.6317 76.5272 96.5272 76.4702 97.4361 76.4702Z" fill="#D9E5FF"/>
<path d="M95.3206 68.4706H50.0415C48.9656 68.4706 48.0928 67.5986 48.0928 66.5227V48.1637C48.0928 47.0878 48.9656 46.2158 50.0415 46.2158H95.3206C96.3974 46.2158 97.2693 47.0878 97.2693 48.1637V66.5227C97.2693 67.5986 96.3965 68.4706 95.3206 68.4706Z" fill="#EDEDED"/>
<path d="M95.3207 46.2158H86.1294V68.4706H95.3207C96.3974 68.4706 97.2694 67.5986 97.2694 66.5219V48.1637C97.2694 47.0878 96.3966 46.2158 95.3207 46.2158Z" fill="#EDEDED"/>
<path d="M75.2972 13.2834H68.2149C67.2977 13.2834 66.5549 14.0262 66.5549 14.9435C66.5549 15.8599 67.2977 16.6035 68.2149 16.6035H75.2972C76.2137 16.6035 76.9564 15.8599 76.9564 14.9435C76.9564 14.0262 76.2137 13.2834 75.2972 13.2834Z" fill="#EDEDED"/>
<path d="M64.1222 54.771C64.0366 54.771 61.4316 55.6538 61.4316 55.6538L61.5391 53.2427C61.5181 52.6402 61.0657 52.3607 60.5488 52.3607C60.0326 52.3607 59.5803 52.6402 59.5593 53.2427L59.6667 55.6329C59.6667 55.6329 57.0617 54.7718 56.9971 54.7718C56.4164 54.7718 55.9858 55.3098 55.9858 55.8049C55.9858 56.2572 56.1797 56.6441 56.6102 56.7306L58.9995 57.4196L57.4923 59.5286C57.363 59.6796 57.2556 59.8735 57.2556 60.1102C57.2556 60.7127 57.9874 61.0786 58.4179 61.0786C58.6764 61.0786 58.8921 61.014 59.0642 60.7346L60.5488 58.4955L62.0132 60.7127C62.2281 61.035 62.5075 61.0786 62.7232 61.0786C63.2612 61.0786 63.8428 60.6691 63.8428 60.0665C63.8428 59.8727 63.7781 59.6578 63.6917 59.5504L62.1206 57.3113L64.4453 56.7297C64.8968 56.6441 65.0907 56.2782 65.0907 55.9123C65.0915 55.3744 64.7038 54.771 64.1222 54.771Z" fill="#7CC788"/>
<path d="M77.0797 54.771C76.9941 54.771 74.3891 55.6538 74.3891 55.6538L74.4966 53.2427C74.4756 52.6402 74.0232 52.3607 73.5071 52.3607C72.9901 52.3607 72.5378 52.6402 72.5168 53.2427L72.6242 55.6329C72.6242 55.6329 70.0193 54.7718 69.9546 54.7718C69.3739 54.7718 68.9434 55.3098 68.9434 55.8049C68.9434 56.2572 69.1372 56.6441 69.5677 56.7306L71.957 57.4196L70.4498 59.5286C70.3214 59.6796 70.2131 59.8735 70.2131 60.1102C70.2131 60.7127 70.9458 61.0786 71.3763 61.0786C71.6339 61.0786 71.8496 61.014 72.0217 60.7346L73.5071 58.4955L74.9707 60.7127C75.1856 61.035 75.4659 61.0786 75.6807 61.0786C76.2195 61.0786 76.8003 60.6691 76.8003 60.0665C76.8003 59.8727 76.7356 59.6578 76.6492 59.5504L75.0782 57.3113L77.4028 56.7297C77.8552 56.6441 78.049 56.2782 78.049 55.9123C78.049 55.3744 77.6613 54.771 77.0797 54.771Z" fill="#7CC788"/>
<path d="M90.0386 54.771C89.9521 54.771 87.348 55.6538 87.348 55.6538L87.4554 53.2427C87.4336 52.6402 86.9821 52.3607 86.4651 52.3607C85.949 52.3607 85.4966 52.6402 85.4748 53.2427L85.5822 55.6329C85.5822 55.6329 82.9781 54.7718 82.9135 54.7718C82.3319 54.7718 81.9014 55.3098 81.9014 55.8049C81.9014 56.2572 82.0952 56.6441 82.5258 56.7306L84.9151 57.4196L83.4086 59.5286C83.2794 59.6796 83.172 59.8735 83.172 60.1102C83.172 60.7127 83.9038 61.0786 84.3343 61.0786C84.5928 61.0786 84.8076 61.014 84.9797 60.7346L86.4651 58.4955L87.9287 60.7127C88.1444 61.035 88.4239 61.0786 88.6387 61.0786C89.1775 61.0786 89.7583 60.6691 89.7583 60.0665C89.7583 59.8727 89.6936 59.6578 89.6072 59.5504L88.0362 57.3113L90.3608 56.7297C90.8132 56.6441 91.007 56.2782 91.007 55.9123C91.007 55.3744 90.6193 54.771 90.0386 54.771Z" fill="#7CC788"/>
</svg>
