<svg width="80" height="70" viewBox="0 0 80 70" fill="none" xmlns="http://www.w3.org/2000/svg">
<path d="M1.42459 2.43015C1.15184 3.21618 0.914063 4.04997 1.03016 4.87653C1.12387 5.5482 1.45117 6.1721 1.89316 6.6744C2.34494 7.18973 2.96597 7.60229 3.63875 7.59071C3.92269 6.8843 4.04018 6.10551 3.97444 5.34264C4.18705 5.7552 4.39965 6.16775 4.61365 6.58031C4.86822 7.07248 5.16474 7.60518 5.67388 7.79192C6.18161 7.97865 6.88796 7.52412 6.72431 6.99142C6.64318 6.72651 6.37463 6.50504 6.43757 6.23579C6.5131 5.91154 6.97188 5.90575 7.25162 6.07222C7.52996 6.23868 7.78733 6.50648 8.10903 6.49346C8.5748 6.47319 8.80839 5.82902 8.62795 5.38462C8.44752 4.94022 8.01951 4.66663 7.61668 4.42344C6.79005 3.92259 5.76199 3.48542 5.02487 2.85429C4.60946 2.49819 4.20942 1.65281 3.8066 1.39659C2.69043 0.685839 1.91414 0.872575 1.42459 2.43015Z" fill="#E9D8B1"/>
<path d="M75.9916 3.7875C75.2832 3.35121 74.5205 2.93873 73.6884 2.87332C73.0124 2.81955 72.3325 3.00417 71.7465 3.32707C71.1456 3.65671 70.6085 4.17382 70.4743 4.83318C71.1026 5.26318 71.8376 5.54631 72.5966 5.64712C72.1478 5.76546 71.699 5.88381 71.25 6.00353C70.7144 6.14563 70.1302 6.31993 69.8377 6.77663C69.5456 7.23196 69.8366 8.01989 70.3921 7.97532C70.6683 7.95341 70.9426 7.73911 71.1919 7.85879C71.4921 8.00266 71.3986 8.45183 71.1755 8.68895C70.9528 8.9247 70.6357 9.11806 70.5788 9.43497C70.4979 9.8941 71.0763 10.2615 71.5492 10.1814C72.0221 10.1014 72.3818 9.74266 72.7063 9.40196C73.3741 8.7032 74.0233 7.79402 74.7989 7.21084C75.2364 6.88227 76.1483 6.67454 76.4855 6.33665C77.4209 5.40061 77.4064 4.60232 75.9916 3.7875Z" fill="#E9D8B1"/>
<path d="M24.7797 6.59653C24.8953 6.75904 25.0457 6.9109 25.2435 6.96285C25.5736 7.0481 25.919 6.80966 26.0569 6.50995C26.1948 6.21024 26.1781 5.86923 26.1572 5.54287C26.6823 6.01442 27.4011 6.39539 28.1003 6.22888C28.7995 6.06238 29.241 5.10862 28.7076 4.64506C29.2146 4.77161 29.7606 4.89682 30.2522 4.72099C30.7439 4.54516 31.0921 3.93241 30.7871 3.5248C30.6339 3.31966 30.3678 3.22642 30.1185 3.14383C28.9917 2.77219 27.8663 2.39921 26.7394 2.02757C26.4483 1.93166 26.1461 1.83309 25.8383 1.85839C23.5359 2.04222 23.8172 5.24716 24.7797 6.59653Z" fill="#1B1D4D" fill-opacity="0.3"/>
<path d="M66.8729 25.6889C66.6892 25.7666 66.5084 25.8807 66.4149 26.0625C66.2603 26.3664 66.4184 26.7552 66.6812 26.9547C66.944 27.1541 67.2805 27.2115 67.6037 27.2617C67.0297 27.6724 66.5023 28.2917 66.5137 29.0104C66.525 29.7291 67.3607 30.3664 67.9287 29.9459C67.6955 30.4135 67.4551 30.9195 67.5205 31.4376C67.5858 31.9556 68.1087 32.4281 68.5727 32.2185C68.8061 32.1132 68.9547 31.8737 69.0892 31.6481C69.6958 30.6283 70.3033 29.6102 70.9099 28.5904C71.0665 28.3269 71.2281 28.0532 71.2699 27.7471C71.5884 25.4595 68.3985 25.041 66.8729 25.6889Z" fill="#1B1D4D" fill-opacity="0.3"/>
<path d="M41.8234 45.3315C41.9456 45.3989 42.0853 45.4487 42.2187 45.4137C42.442 45.3558 42.5642 45.0769 42.5442 44.8304C42.5243 44.5839 42.3996 44.3629 42.2786 44.1541C42.7463 44.2848 43.2963 44.2875 43.6518 43.9346C44.0072 43.5803 43.9448 42.7936 43.4759 42.6723C43.8164 42.5794 44.1793 42.473 44.4088 42.186C44.6383 41.8991 44.637 41.371 44.3202 41.2067C44.1606 41.1245 43.9735 41.1541 43.7989 41.1865C43.0119 41.3306 42.225 41.4761 41.438 41.6202C41.2347 41.658 41.0239 41.6984 40.8518 41.821C39.5597 42.741 40.8044 44.7698 41.8234 45.3315Z" fill="#1B1D4D" fill-opacity="0.3"/>
<path d="M34.4357 22.2488C35.526 22.4619 36.6495 22.3367 37.7361 22.1062C36.6213 21.7039 35.6206 21.0072 34.556 20.4677C33.9286 20.1493 31.7099 19.0622 31.7566 20.5915C31.7848 21.4814 33.839 22.1329 34.4357 22.2488Z" fill="#E3E5FC"/>
<path d="M49.5028 31.7311C49.0589 32.7495 48.9381 33.8735 48.9281 34.9842C49.562 33.9828 50.4587 33.1564 51.2157 32.2338C51.6622 31.6901 53.2034 29.759 51.7002 29.4738C50.8252 29.3089 49.745 31.1736 49.5028 31.7311Z" fill="#E3E5FC"/>
<path d="M63.526 55.0591C64.3243 54.731 65.2213 53.9938 65.0544 53.0265C61.9762 52.7341 56.853 51.5522 53.9684 52.871C55.4688 56.0949 60.9818 56.1042 63.526 55.0591Z" fill="#E9D8B1"/>
<path d="M11.1775 53.0371C11.3253 53.8874 11.851 54.9226 12.8315 54.9689C13.7827 52.0268 16.0446 47.2804 15.3809 44.1788C11.9088 44.9465 10.7074 50.327 11.1775 53.0371Z" fill="#E9D8B1"/>
<path d="M58.5393 64.9815C60.3636 65.3735 62.387 64.4979 63.366 62.8917C62.1544 62.9552 60.9331 62.8227 59.762 62.5011C58.808 62.2389 56.183 60.7907 55.7165 62.4194C55.3502 63.6983 57.6313 64.7855 58.5393 64.9815Z" fill="#1B1D4D" fill-opacity="0.3"/>
<path d="M2.5683 46.0226C1.79102 47.7189 2.20837 49.8838 3.56475 51.187C3.76482 49.9904 4.15836 48.8267 4.72555 47.7528C5.18793 46.8781 7.16955 44.6284 5.68031 43.8207C4.51082 43.1865 2.95603 45.1785 2.5683 46.0226Z" fill="#1B1D4D" fill-opacity="0.3"/>
<path d="M75.0024 60.8068C75.1109 60.7624 75.2262 60.7099 75.2858 60.6091C75.4797 60.2809 74.9401 60.0199 74.5564 60.0146C73.7415 60.0024 69.606 59.5855 70.2731 61.0126C70.9145 62.3845 74.0398 61.2009 75.0024 60.8068Z" fill="#1B1D4D" fill-opacity="0.3"/>
<path d="M3.0839 62.9989C3.10378 63.1144 3.13007 63.2383 3.21566 63.3184C3.49415 63.5786 3.86562 63.1082 3.95386 62.7347C4.14191 61.9418 5.44338 57.9944 3.90579 58.337C2.42762 58.6665 2.90733 61.9738 3.0839 62.9989Z" fill="#1B1D4D" fill-opacity="0.3"/>
<path d="M61.2302 25.2019V21.7274C61.2302 20.1916 60.6114 18.7187 59.5099 17.6327C58.4084 16.5467 56.9144 15.9366 55.3567 15.9366H22.465C20.9073 15.9366 19.4133 16.5467 18.3118 17.6327C17.2103 18.7187 16.5915 20.1916 16.5915 21.7274V25.2019H61.2302Z" fill="#C4A140"/>
<path d="M47.1338 42.5744C47.1266 40.9606 47.6096 39.3818 48.5203 38.0409C49.4311 36.7001 50.7281 35.6587 52.2443 35.0508C53.7605 34.4429 55.4266 34.2963 57.028 34.6299C58.6294 34.9635 60.0929 35.7619 61.2302 36.9225V27.5183H16.5915V40.258C16.5915 41.7938 17.2103 43.2668 18.3118 44.3527C19.4133 45.4387 20.9073 46.0488 22.465 46.0488H47.956C47.4199 44.9666 47.1388 43.7788 47.1338 42.5744ZM28.3385 40.258C28.3385 40.5652 28.2148 40.8598 27.9945 41.077C27.7742 41.2942 27.4754 41.4162 27.1638 41.4162H22.465C22.1535 41.4162 21.8547 41.2942 21.6344 41.077C21.4141 40.8598 21.2903 40.5652 21.2903 40.258V35.6254C21.2903 35.3182 21.4141 35.0237 21.6344 34.8065C21.8547 34.5893 22.1535 34.4673 22.465 34.4673H27.1638C27.4754 34.4673 27.7742 34.5893 27.9945 34.8065C28.2148 35.0237 28.3385 35.3182 28.3385 35.6254V40.258Z" fill="#19255B"/>
<path d="M55.3567 36.7834C54.195 36.7834 53.0594 37.1231 52.0935 37.7594C51.1276 38.3957 50.3748 39.3001 49.9303 40.3582C49.4857 41.4163 49.3694 42.5807 49.596 43.704C49.8226 44.8273 50.382 45.8591 51.2035 46.6689C52.0249 47.4788 53.0715 48.0303 54.2108 48.2537C55.3502 48.4772 56.5311 48.3625 57.6044 47.9242C58.6776 47.4859 59.5949 46.7437 60.2403 45.7914C60.8857 44.8391 61.2302 43.7195 61.2302 42.5742C61.2302 41.0384 60.6114 39.5655 59.5099 38.4795C58.4084 37.3935 56.9144 36.7834 55.3567 36.7834ZM58.6458 41.4161L55.897 44.9832C55.7986 45.1163 55.672 45.2267 55.5259 45.3067C55.3798 45.3867 55.2179 45.4344 55.0512 45.4465C54.7447 45.4483 54.4496 45.3319 54.229 45.1222L52.3729 43.3155C52.1486 43.1004 52.0201 42.8064 52.0157 42.498C52.0113 42.1895 52.1313 41.892 52.3494 41.6709C52.5675 41.4497 52.8658 41.323 53.1786 41.3187C53.4914 41.3143 53.7932 41.4327 54.0175 41.6477L54.9103 42.5279L56.8603 40.0031C56.9544 39.8815 57.0719 39.7792 57.206 39.7023C57.3402 39.6254 57.4884 39.5753 57.6422 39.5549C57.796 39.5345 57.9524 39.5441 58.1024 39.5832C58.2525 39.6224 58.3932 39.6903 58.5166 39.7831C58.64 39.8758 58.7437 39.9917 58.8217 40.124C58.8997 40.2562 58.9505 40.4024 58.9712 40.554C58.992 40.7056 58.9822 40.8598 58.9425 41.0077C58.9028 41.1556 58.8339 41.2944 58.7398 41.4161H58.6458Z" fill="#C4A140"/>
</svg>
