<svg width="80" height="70" viewBox="0 0 80 70" fill="none" xmlns="http://www.w3.org/2000/svg">
<path d="M1.42459 2.43015C1.15184 3.21618 0.914063 4.04997 1.03016 4.87653C1.12387 5.5482 1.45117 6.1721 1.89316 6.6744C2.34494 7.18973 2.96597 7.60229 3.63875 7.59071C3.92269 6.8843 4.04018 6.10551 3.97444 5.34264C4.18705 5.7552 4.39965 6.16775 4.61365 6.58031C4.86822 7.07248 5.16474 7.60518 5.67388 7.79192C6.18161 7.97865 6.88796 7.52412 6.72431 6.99142C6.64318 6.72651 6.37463 6.50504 6.43757 6.23579C6.5131 5.91154 6.97188 5.90575 7.25162 6.07222C7.52996 6.23868 7.78733 6.50648 8.10903 6.49346C8.5748 6.47319 8.80839 5.82902 8.62795 5.38462C8.44752 4.94022 8.01951 4.66663 7.61668 4.42344C6.79005 3.92259 5.76199 3.48542 5.02487 2.85429C4.60946 2.49819 4.20942 1.65281 3.8066 1.39659C2.69043 0.685839 1.91414 0.872575 1.42459 2.43015Z" fill="#FF97B4"/>
<path d="M75.9916 3.7875C75.2832 3.35121 74.5205 2.93873 73.6884 2.87332C73.0124 2.81955 72.3325 3.00417 71.7465 3.32707C71.1456 3.65671 70.6085 4.17382 70.4743 4.83318C71.1026 5.26318 71.8376 5.54631 72.5966 5.64712C72.1478 5.76546 71.699 5.88381 71.25 6.00353C70.7144 6.14563 70.1302 6.31993 69.8377 6.77663C69.5456 7.23196 69.8366 8.01989 70.3921 7.97532C70.6683 7.95341 70.9426 7.73911 71.1919 7.85879C71.4921 8.00266 71.3986 8.45183 71.1755 8.68895C70.9528 8.9247 70.6357 9.11806 70.5788 9.43497C70.4979 9.8941 71.0763 10.2615 71.5492 10.1814C72.0221 10.1014 72.3818 9.74266 72.7063 9.40196C73.3741 8.7032 74.0233 7.79402 74.7989 7.21084C75.2364 6.88227 76.1483 6.67454 76.4855 6.33665C77.4209 5.40061 77.4064 4.60232 75.9916 3.7875Z" fill="#FF97B4"/>
<path d="M24.7797 6.59647C24.8953 6.75898 25.0457 6.91084 25.2435 6.96279C25.5736 7.04804 25.919 6.8096 26.0569 6.50989C26.1948 6.21017 26.1781 5.86917 26.1572 5.54281C26.6823 6.01436 27.4011 6.39533 28.1003 6.22882C28.7995 6.06232 29.241 5.10856 28.7076 4.645C29.2146 4.77155 29.7606 4.89676 30.2522 4.72093C30.7439 4.5451 31.0921 3.93235 30.7871 3.52474C30.6339 3.3196 30.3678 3.22636 30.1185 3.14377C28.9917 2.77213 27.8663 2.39915 26.7394 2.02751C26.4483 1.9316 26.1461 1.83302 25.8383 1.85833C23.5359 2.04216 23.8172 5.2471 24.7797 6.59647Z" fill="#1B1D4D" fill-opacity="0.3"/>
<path d="M66.8729 25.6888C66.6892 25.7666 66.5084 25.8806 66.4149 26.0625C66.2603 26.3663 66.4184 26.7551 66.6812 26.9546C66.944 27.154 67.2805 27.2115 67.6037 27.2617C67.0297 27.6724 66.5023 28.2917 66.5137 29.0104C66.525 29.729 67.3607 30.3664 67.9287 29.9458C67.6955 30.4134 67.4551 30.9194 67.5205 31.4375C67.5858 31.9556 68.1087 32.4281 68.5727 32.2184C68.8061 32.1132 68.9547 31.8736 69.0892 31.648C69.6958 30.6283 70.3033 29.6101 70.9099 28.5904C71.0665 28.3269 71.2281 28.0531 71.2699 27.7471C71.5884 25.4594 68.3985 25.041 66.8729 25.6888Z" fill="#1B1D4D" fill-opacity="0.3"/>
<path d="M41.8234 45.3314C41.9456 45.3987 42.0853 45.4486 42.2187 45.4136C42.442 45.3556 42.5642 45.0768 42.5442 44.8303C42.5243 44.5837 42.3996 44.3628 42.2786 44.154C42.7463 44.2847 43.2963 44.2874 43.6518 43.9344C44.0072 43.5802 43.9448 42.7934 43.4759 42.6722C43.8164 42.5793 44.1793 42.4728 44.4088 42.1859C44.6383 41.899 44.637 41.3709 44.3202 41.2066C44.1606 41.1244 43.9735 41.154 43.7989 41.1863C43.0119 41.3305 42.225 41.476 41.438 41.6201C41.2347 41.6578 41.0239 41.6982 40.8518 41.8208C39.5597 42.7409 40.8044 44.7696 41.8234 45.3314Z" fill="#1B1D4D" fill-opacity="0.3"/>
<path d="M34.4357 22.2487C35.526 22.4618 36.6495 22.3366 37.7361 22.1062C36.6213 21.7038 35.6206 21.0071 34.556 20.4676C33.9286 20.1492 31.7099 19.0622 31.7566 20.5915C31.7848 21.4814 33.839 22.1328 34.4357 22.2487Z" fill="#E3E5FC"/>
<path d="M49.5028 31.7312C49.0589 32.7496 48.9381 33.8736 48.9281 34.9844C49.562 33.9829 50.4587 33.1566 51.2157 32.2339C51.6622 31.6902 53.2034 29.7591 51.7002 29.4739C50.8252 29.309 49.745 31.1737 49.5028 31.7312Z" fill="#E3E5FC"/>
<path d="M63.526 55.0591C64.3243 54.7309 65.2213 53.9938 65.0544 53.0264C61.9762 52.7341 56.853 51.5521 53.9684 52.8709C55.4688 56.0948 60.9818 56.1041 63.526 55.0591Z" fill="#FF97B4"/>
<path d="M11.1775 53.0372C11.3253 53.8875 11.851 54.9227 12.8315 54.969C13.7827 52.0269 16.0446 47.2806 15.3809 44.179C11.9088 44.9466 10.7074 50.3271 11.1775 53.0372Z" fill="#FF97B4"/>
<path d="M58.5393 64.9817C60.3636 65.3737 62.387 64.498 63.366 62.8919C62.1544 62.9553 60.9331 62.8228 59.762 62.5013C58.808 62.239 56.183 60.7908 55.7165 62.4195C55.3502 63.6985 57.6313 64.7857 58.5393 64.9817Z" fill="#1B1D4D" fill-opacity="0.3"/>
<path d="M2.56829 46.0224C1.79102 47.7188 2.20836 49.8837 3.56474 51.1869C3.76481 49.9903 4.15836 48.8266 4.72554 47.7526C5.18792 46.878 7.16955 44.6283 5.68031 43.8206C4.51081 43.1864 2.95602 45.1784 2.56829 46.0224Z" fill="#1B1D4D" fill-opacity="0.3"/>
<path d="M75.0024 60.8067C75.1109 60.7623 75.2262 60.7099 75.2858 60.609C75.4797 60.2808 74.9401 60.0199 74.5563 60.0145C73.7415 60.0024 69.606 59.5854 70.2731 61.0125C70.9144 62.3845 74.0398 61.2008 75.0024 60.8067Z" fill="#1B1D4D" fill-opacity="0.3"/>
<path d="M3.0839 62.9989C3.10377 63.1144 3.13006 63.2383 3.21565 63.3184C3.49414 63.5786 3.86561 63.1082 3.95385 62.7347C4.14191 61.9418 5.44337 57.9944 3.90578 58.337C2.42761 58.6665 2.90733 61.9738 3.0839 62.9989Z" fill="#1B1D4D" fill-opacity="0.3"/>
<path d="M61.2302 25.2019V21.7274C61.2302 20.1916 60.6114 18.7187 59.5099 17.6327C58.4084 16.5467 56.9144 15.9366 55.3567 15.9366H22.465C20.9072 15.9366 19.4133 16.5467 18.3118 17.6327C17.2103 18.7187 16.5915 20.1916 16.5915 21.7274V25.2019H61.2302Z" fill="#FF5887"/>
<path d="M47.1337 42.5743C47.1266 40.9606 47.6096 39.3817 48.5203 38.0409C49.4311 36.7001 50.7281 35.6587 52.2443 35.0508C53.7605 34.4429 55.4265 34.2963 57.028 34.6298C58.6294 34.9634 60.0929 35.7619 61.2302 36.9225V27.5182H16.5915V40.258C16.5915 41.7938 17.2103 43.2667 18.3118 44.3527C19.4133 45.4387 20.9072 46.0488 22.465 46.0488H47.956C47.4199 44.9665 47.1388 43.7787 47.1337 42.5743ZM28.3385 40.258C28.3385 40.5651 28.2147 40.8597 27.9944 41.0769C27.7741 41.2941 27.4754 41.4161 27.1638 41.4161H22.465C22.1535 41.4161 21.8547 41.2941 21.6344 41.0769C21.4141 40.8597 21.2903 40.5651 21.2903 40.258V35.6253C21.2903 35.3182 21.4141 35.0236 21.6344 34.8064C21.8547 34.5892 22.1535 34.4672 22.465 34.4672H27.1638C27.4754 34.4672 27.7741 34.5892 27.9944 34.8064C28.2147 35.0236 28.3385 35.3182 28.3385 35.6253V40.258Z" fill="#1B1D4D"/>
<path d="M55.3567 36.7835C54.195 36.7835 53.0594 37.1231 52.0935 37.7594C51.1276 38.3957 50.3748 39.3001 49.9303 40.3583C49.4857 41.4164 49.3694 42.5807 49.596 43.704C49.8226 44.8273 50.382 45.8591 51.2035 46.669C52.0249 47.4789 53.0715 48.0304 54.2108 48.2538C55.3502 48.4772 56.5311 48.3626 57.6044 47.9243C58.6776 47.486 59.5949 46.7438 60.2403 45.7915C60.8857 44.8392 61.2302 43.7196 61.2302 42.5743C61.2302 41.0385 60.6114 39.5656 59.5099 38.4796C58.4084 37.3936 56.9144 36.7835 55.3567 36.7835ZM58.6458 41.4161L55.897 44.9833C55.7986 45.1164 55.672 45.2268 55.5259 45.3067C55.3798 45.3867 55.2179 45.4344 55.0512 45.4465C54.7447 45.4483 54.4496 45.332 54.229 45.1222L52.3729 43.3155C52.1486 43.1005 52.0201 42.8064 52.0157 42.498C52.0113 42.1896 52.1313 41.8921 52.3494 41.6709C52.5675 41.4498 52.8658 41.3231 53.1786 41.3187C53.4914 41.3144 53.7932 41.4328 54.0175 41.6478L54.9103 42.528L56.8603 40.0032C56.9544 39.8815 57.0719 39.7793 57.206 39.7024C57.3402 39.6255 57.4884 39.5754 57.6422 39.555C57.796 39.5345 57.9524 39.5442 58.1024 39.5833C58.2525 39.6225 58.3932 39.6904 58.5166 39.7831C58.64 39.8759 58.7437 39.9917 58.8217 40.124C58.8997 40.2563 58.9505 40.4024 58.9712 40.5541C58.992 40.7057 58.9822 40.8599 58.9425 41.0078C58.9028 41.1557 58.8339 41.2945 58.7398 41.4161H58.6458Z" fill="#FF5887"/>
</svg>
