<svg width="224" height="159" viewBox="0 0 224 159" fill="none" xmlns="http://www.w3.org/2000/svg">
<path opacity="0.35" d="M78.4292 140.643L9.99911 101.134C8.88681 100.491 8.88681 98.8845 9.99911 98.2418C11.6582 98.2251 148.493 16.4641 150.326 18.1857C150.33 18.1857 222.408 59.7998 222.408 59.7998C223.52 60.4425 223.52 62.0494 222.408 62.6921L87.3944 140.643C84.6189 142.245 81.2027 142.245 78.4292 140.643Z" fill="#808080"/>
<path d="M175.758 22.7478L175.737 30.0121C175.698 29.9892 175.656 29.9704 175.612 29.9516L175.633 22.6873C175.677 22.704 175.719 22.7248 175.758 22.7478Z" fill="#1A5871"/>
<path d="M175.633 22.6872L175.612 29.9516C175.579 29.939 175.543 29.9265 175.506 29.9161L175.527 22.6517C175.564 22.6622 175.6 22.6726 175.633 22.6872Z" fill="#1B5B75"/>
<path d="M175.527 22.6519L175.506 29.9162C175.476 29.9079 175.445 29.8995 175.414 29.8933L175.435 22.6289C175.466 22.6352 175.497 22.6435 175.527 22.6519Z" fill="#1C5F7A"/>
<path d="M175.437 22.6289L175.416 29.8932C175.387 29.887 175.358 29.8828 175.328 29.8786L175.349 22.6143C175.378 22.6184 175.408 22.6226 175.437 22.6289Z" fill="#1D627E"/>
<path d="M175.349 22.6143L175.328 29.8787C175.301 29.8745 175.272 29.8724 175.243 29.8682L175.264 22.6039C175.293 22.606 175.322 22.6101 175.349 22.6143Z" fill="#1E6582"/>
<path d="M175.264 22.6038L175.243 29.8681C175.214 29.866 175.186 29.864 175.157 29.864L175.178 22.5996C175.207 22.5996 175.236 22.6017 175.264 22.6038Z" fill="#1F6987"/>
<path d="M175.178 22.5996L175.157 29.864C175.128 29.864 175.097 29.864 175.067 29.864L175.088 22.5996C175.118 22.5996 175.149 22.5996 175.178 22.5996Z" fill="#206C8B"/>
<path d="M175.088 22.5996L175.067 29.864C175.034 29.866 175.003 29.8681 174.971 29.8702L174.992 22.6059C175.024 22.6038 175.055 22.6017 175.088 22.5996Z" fill="#161966"/>
<path d="M174.99 22.6058L174.969 29.8702C174.932 29.8744 174.894 29.8785 174.859 29.8848L174.88 22.6204C174.917 22.6163 174.953 22.61 174.99 22.6058Z" fill="#227394"/>
<path d="M174.88 22.6224L174.859 29.8868C174.803 29.8972 174.746 29.9097 174.694 29.9285L174.715 22.6642C174.767 22.6454 174.823 22.6329 174.88 22.6224Z" fill="#237698"/>
<path d="M174.715 22.6644L174.694 29.9288C174.621 29.9517 174.554 29.981 174.494 30.0185L174.514 22.7542C174.575 22.7166 174.642 22.6874 174.715 22.6644Z" fill="#247A9C"/>
<path d="M174.715 22.6643L174.694 29.9287C174.621 29.9516 174.554 29.9808 174.494 30.0184L174.514 22.754C174.575 22.7165 174.642 22.6873 174.715 22.6643Z" fill="#247A9C"/>
<path d="M174.715 22.6643L174.694 29.9287C174.621 29.9516 174.554 29.9808 174.493 30.0184L174.514 22.754C174.575 22.7165 174.642 22.6873 174.715 22.6643Z" fill="#247A9C"/>
<path d="M174.514 22.7542L174.494 30.0185C174.452 30.0435 174.414 30.0707 174.385 30.0999L174.406 22.8355C174.435 22.8063 174.473 22.7792 174.514 22.7542Z" fill="#237698"/>
<path d="M174.404 22.8335L174.383 30.0978C174.362 30.1166 174.345 30.1354 174.329 30.1563L174.35 22.8919C174.366 22.8731 174.383 22.8523 174.404 22.8335Z" fill="#227394"/>
<path d="M174.349 22.8917L174.329 30.1561C174.316 30.1728 174.304 30.1915 174.293 30.2082C174.329 30.1582 174.249 22.9168 174.349 22.8917Z" fill="#161966"/>
<path d="M174.314 22.944C174.291 22.9899 174.337 30.2292 174.27 30.2584C174.293 30.2125 174.247 22.9753 174.314 22.944Z" fill="#206C8B"/>
<path d="M174.291 22.994C174.276 23.0441 174.297 30.2667 174.256 30.3085C174.27 30.2605 174.251 23.0358 174.291 22.994Z" fill="#1F6987"/>
<path d="M174.276 23.0439C174.27 23.094 174.266 30.3146 174.249 30.3605C174.258 30.3083 174.262 23.0899 174.276 23.0439Z" fill="#1E6582"/>
<path d="M174.272 23.0941C174.272 23.0962 174.251 30.3647 174.251 30.3668C174.251 30.3647 174.272 23.0983 174.272 23.0941Z" fill="#1D627E"/>
<path d="M174.529 23.4615L174.508 30.7258C174.001 31.0827 174.364 23.161 174.272 23.1005C174.272 23.2319 174.356 23.3634 174.529 23.4615Z" fill="#01253C"/>
<path d="M191.706 31.955L191.687 39.2194L175.737 30.0122L175.758 22.7478L191.706 31.955Z" fill="#1B5B74"/>
<path d="M191.965 32.316L191.944 39.5803C191.944 39.4509 191.858 39.3195 191.687 39.2193L191.708 31.955C191.879 32.0551 191.965 32.1845 191.965 32.316Z" fill="#1A5871"/>
<path d="M190.477 32.6708L190.456 39.9352L174.508 30.728L174.529 23.4615L190.477 32.6708Z" fill="#01273E"/>
<path d="M191.708 31.955C192.58 32.6207 190.957 33.0673 190.479 32.6708L174.531 23.4636C174.189 23.2674 174.191 22.944 174.527 22.7478C174.635 21.36 191.303 32.0093 191.708 31.955Z" fill="#023E63"/>
<path d="M191.965 32.316C191.965 32.3181 191.944 39.5867 191.944 39.5887C191.944 39.5867 191.965 32.3181 191.965 32.316Z" fill="#012A43"/>
<path d="M191.965 32.3223C191.958 32.3724 191.954 39.5929 191.938 39.6367C191.944 39.5887 191.948 32.3682 191.965 32.3223Z" fill="#012B45"/>
<path d="M191.958 32.3723C191.944 32.4224 191.965 39.645 191.923 39.6867C191.938 39.6387 191.919 32.4141 191.958 32.3723Z" fill="#012D47"/>
<path d="M191.944 32.4224C191.921 32.4704 191.967 39.7055 191.9 39.7368C191.923 39.6888 191.877 32.4537 191.944 32.4224Z" fill="#012E4A"/>
<path d="M191.921 32.4725C191.887 32.5247 191.967 39.7661 191.865 39.7891L191.885 32.5247C191.9 32.5059 191.91 32.4892 191.921 32.4725Z" fill="#01304C"/>
<path d="M191.885 32.5245L191.865 39.7889C191.848 39.8098 191.831 39.8285 191.81 39.8473L191.831 32.583C191.852 32.5642 191.871 32.5433 191.885 32.5245Z" fill="#01314E"/>
<path d="M191.831 32.5831L191.81 39.8475C191.779 39.8767 191.741 39.9038 191.7 39.9289L191.721 32.6645C191.764 32.6374 191.8 32.6103 191.831 32.5831Z" fill="#013251"/>
<path d="M191.723 32.6646L191.702 39.9289C191.641 39.9665 191.574 39.9957 191.501 40.0186L191.522 32.7543C191.593 32.7292 191.66 32.7 191.723 32.6646Z" fill="#013453"/>
<path d="M191.522 32.7522L191.501 40.0165C191.449 40.0332 191.393 40.0479 191.337 40.0583L191.357 32.7939C191.414 32.7835 191.468 32.771 191.522 32.7522Z" fill="#013251"/>
<path d="M191.357 32.7938L191.337 40.0582C191.299 40.0644 191.261 40.0707 191.224 40.0728L191.245 32.8084C191.282 32.8063 191.32 32.8001 191.357 32.7938Z" fill="#01314E"/>
<path d="M191.245 32.8105L191.224 40.0749C191.193 40.0791 191.159 40.0812 191.126 40.0812L191.147 32.8168C191.18 32.8147 191.211 32.8126 191.245 32.8105Z" fill="#01304C"/>
<path d="M191.147 32.8168L191.126 40.0811C191.097 40.0811 191.065 40.0832 191.036 40.0811L191.057 32.8168C191.086 32.8168 191.117 32.8168 191.147 32.8168Z" fill="#012E4A"/>
<path d="M191.057 32.8169L191.036 40.0813C191.007 40.0813 190.978 40.0792 190.95 40.0771L190.971 32.8127C190.998 32.8148 191.028 32.8169 191.057 32.8169Z" fill="#012D47"/>
<path d="M190.969 32.8126L190.948 40.0769C190.919 40.0748 190.892 40.0706 190.863 40.0665L190.884 32.8021C190.913 32.8063 190.942 32.8105 190.969 32.8126Z" fill="#012B45"/>
<path d="M190.886 32.8023L190.865 40.0667C190.836 40.0625 190.806 40.0583 190.777 40.0521L190.798 32.7877C190.827 32.794 190.855 32.7982 190.886 32.8023Z" fill="#012A43"/>
<path d="M190.798 32.7875L190.777 40.0518C190.746 40.0456 190.717 40.0372 190.685 40.0289L190.706 32.7645C190.738 32.7729 190.767 32.7812 190.798 32.7875Z" fill="#012840"/>
<path d="M190.706 32.7647L190.685 40.0291C190.65 40.0186 190.614 40.0061 190.579 39.9936L190.6 32.7292C190.635 32.7439 190.671 32.7543 190.706 32.7647Z" fill="#01273E"/>
<path d="M190.602 32.7292L190.581 39.9936C190.537 39.9769 190.496 39.956 190.456 39.933L190.477 32.6687C190.516 32.6917 190.558 32.7125 190.602 32.7292Z" fill="#01253C"/>
<path d="M216.001 49.326L215.98 56.5903L145.668 15.9968L145.689 8.73242L216.001 49.326Z" fill="#1B5B74"/>
<path d="M145.689 8.73242L145.668 15.9968L20.9321 88.4858L20.953 81.2215L145.689 8.73242Z" fill="#161966"/>
<path d="M17.2989 84.5438L17.278 91.8103L16.5685 92.2214L16.5894 84.957L17.2989 84.5438Z" fill="#161966"/>
<path d="M91.2634 121.815L91.2446 129.079L20.9321 88.4858L20.953 81.2214L91.2634 121.815Z" fill="#898989"/>
<path d="M22.2302 85.7459L22.2093 93.0123L17.278 91.8103L17.2989 84.5438L22.2302 85.7459Z" fill="#1F6886"/>
<path d="M21.3808 86.2404L21.3599 93.5068L18.0168 92.647L18.0377 85.3827L21.3808 86.2404Z" fill="#9C9C9C"/>
<path d="M22.2302 85.7479L22.2093 93.0123L21.36 93.5069L21.3808 86.2404L22.2302 85.7479Z" fill="#C5C5C5"/>
<path d="M20.281 86.2655L20.2602 93.5319L19.5506 93.9431L19.5694 86.6787L20.281 86.2655Z" fill="#161966"/>
<path d="M19.5402 87.3109L19.5193 94.5753L18.0168 92.647L18.0377 85.3827L19.5402 87.3109Z" fill="#19556D"/>
<path d="M25.2122 87.4675L25.1914 94.734L20.2601 93.5319L20.281 86.2655L25.2122 87.4675Z" fill="#1F6886"/>
<path d="M19.5402 87.3109L19.5193 94.5753L18.6783 95.0636L18.6992 87.7992L19.5402 87.3109Z" fill="#C5C5C5"/>
<path d="M18.6992 87.7993L18.6783 95.0637L16.5685 92.2214L16.5894 84.957L18.6992 87.7993Z" fill="#808080"/>
<path d="M25.2123 87.4674L25.1914 94.7338L24.342 95.2284L24.3629 87.962L25.2123 87.4674Z" fill="#C5C5C5"/>
<path d="M24.363 87.9621L24.3421 95.2285L20.9969 94.3687L21.0177 87.1023L24.363 87.9621Z" fill="#9C9C9C"/>
<path d="M22.5223 89.0326L22.5015 96.297L20.9969 94.3687L21.0177 87.1023L22.5223 89.0326Z" fill="#19556D"/>
<path d="M22.5223 89.0326L22.5015 96.2969L21.6605 96.7853L21.6813 89.5209L22.5223 89.0326Z" fill="#C5C5C5"/>
<path d="M25.2123 87.4675L24.3629 87.9621L21.0177 87.1023L22.5223 89.0327L21.6813 89.521L19.5694 86.6787L20.281 86.2655L25.2123 87.4675Z" fill="#DCDCDC"/>
<path d="M21.6813 89.5209L21.6604 96.7852L19.5506 93.9429L19.5694 86.6786L21.6813 89.5209Z" fill="#808080"/>
<path d="M46.6529 103.042L46.632 110.306C46.5694 110.385 46.5131 110.469 46.4672 110.552L46.488 103.288C46.536 103.204 46.5903 103.123 46.6529 103.042Z" fill="#161966"/>
<path d="M46.4878 103.288L46.4669 110.552C46.4231 110.632 46.3855 110.711 46.3542 110.792L46.3751 103.528C46.4064 103.447 46.444 103.367 46.4878 103.288Z" fill="#206C8B"/>
<path d="M46.3772 103.526L46.3563 110.79C46.3271 110.87 46.3041 110.949 46.2874 111.03L46.3083 103.766C46.3229 103.687 46.3459 103.605 46.3772 103.526Z" fill="#1F6987"/>
<path d="M46.3062 103.768L46.2854 111.032C46.2687 111.116 46.2582 111.199 46.2561 111.283L46.277 104.018C46.2812 103.933 46.2916 103.849 46.3062 103.768Z" fill="#1E6582"/>
<path d="M46.2791 104.018C46.2791 104.062 46.2604 111.285 46.2583 111.322C46.2583 111.276 46.2771 104.056 46.2791 104.018Z" fill="#1D627E"/>
<path d="M55.1461 104.417L55.1253 111.681C55.2067 110.801 54.0589 109.764 53.0113 109.409L53.0322 102.144C54.0798 102.499 55.2254 103.536 55.1461 104.417Z" fill="#1A5871"/>
<path d="M53.0322 102.145L53.0113 109.409C52.8235 109.334 52.6273 109.269 52.4291 109.213L52.4499 101.948C52.6482 102.005 52.8444 102.069 53.0322 102.145Z" fill="#1B5B75"/>
<path d="M52.45 101.948L52.4291 109.213C52.2663 109.167 52.0994 109.125 51.9303 109.09L51.9512 101.825C52.1202 101.861 52.2851 101.9 52.45 101.948Z" fill="#1C5F7A"/>
<path d="M51.9512 101.825L51.9303 109.089C51.778 109.058 51.6235 109.031 51.4691 109.01L51.49 101.746C51.6444 101.767 51.7988 101.794 51.9512 101.825Z" fill="#1D627E"/>
<path d="M51.4879 101.744L51.467 109.008C51.3189 108.987 51.1707 108.971 51.0204 108.958L51.0413 101.694C51.1916 101.706 51.3418 101.723 51.4879 101.744Z" fill="#1E6582"/>
<path d="M51.0434 101.696L51.0225 108.96C50.8744 108.948 50.7283 108.939 50.5801 108.937L50.601 101.673C50.7471 101.675 50.8952 101.683 51.0434 101.696Z" fill="#1F6987"/>
<path d="M50.601 101.671L50.5801 108.935C50.4298 108.931 50.2775 108.933 50.1273 108.937L50.1481 101.673C50.2984 101.669 50.4486 101.667 50.601 101.671Z" fill="#206C8B"/>
<path d="M50.1482 101.673L50.1273 108.937C49.9666 108.943 49.8059 108.954 49.6473 108.968L49.6682 101.704C49.8268 101.689 49.9875 101.679 50.1482 101.673Z" fill="#161966"/>
<path d="M49.6682 101.704L49.6473 108.968C49.4636 108.987 49.2821 109.012 49.1047 109.044L49.1256 101.779C49.305 101.748 49.4845 101.723 49.6682 101.704Z" fill="#227394"/>
<path d="M49.1256 101.781L49.1047 109.046C48.8376 109.094 48.5788 109.158 48.3326 109.238L48.3535 101.973C48.6018 101.892 48.8606 101.829 49.1256 101.781Z" fill="#237698"/>
<path d="M48.3534 101.973L48.3325 109.238C47.9924 109.348 47.6814 109.484 47.3955 109.655L47.4164 102.391C47.7044 102.22 48.0153 102.082 48.3534 101.973Z" fill="#247A9C"/>
<path d="M47.4185 102.391L47.3977 109.655C47.2036 109.772 47.0325 109.899 46.8885 110.033L46.9093 102.768C47.0533 102.635 47.2224 102.508 47.4185 102.391Z" fill="#237698"/>
<path d="M46.9093 102.769L46.8884 110.033C46.7925 110.121 46.7069 110.212 46.6339 110.306L46.6547 103.042C46.7278 102.948 46.8133 102.856 46.9093 102.769Z" fill="#227394"/>
<path d="M46.6526 103.042L46.6318 110.306C46.5692 110.386 46.5128 110.469 46.4669 110.552L46.4878 103.288C46.5358 103.205 46.59 103.123 46.6526 103.042Z" fill="#161966"/>
<path d="M55.1357 104.498C55.2194 103.088 53.3035 101.827 50.8564 101.682C48.4094 101.537 46.3579 102.562 46.2742 103.973C46.1906 105.383 48.1064 106.644 50.5535 106.79C53.0005 106.935 55.0521 105.909 55.1357 104.498Z" fill="#DCDCDC"/>
<path d="M55.1462 104.417C55.1462 104.461 55.1274 111.683 55.1253 111.721C55.1253 111.677 55.1441 104.455 55.1462 104.417Z" fill="#949494"/>
<path d="M55.1461 104.454L55.1253 111.719C55.1232 111.802 55.1127 111.886 55.096 111.969L55.1169 104.705C55.1336 104.624 55.1419 104.54 55.1461 104.454Z" fill="#999999"/>
<path d="M55.117 104.705L55.0961 111.969C55.0794 112.051 55.0564 112.13 55.0272 112.209L55.0481 104.945C55.0773 104.866 55.1003 104.786 55.117 104.705Z" fill="#9E9E9E"/>
<path d="M55.0481 104.947L55.0272 112.211C54.9959 112.293 54.9604 112.372 54.9145 112.451L54.9354 105.187C54.9792 105.106 55.0168 105.026 55.0481 104.947Z" fill="#A3A3A3"/>
<path d="M54.9354 105.185L54.9145 112.449C54.8665 112.533 54.8122 112.614 54.7496 112.696L54.7705 105.431C54.8331 105.35 54.8894 105.268 54.9354 105.185Z" fill="#A8A8A8"/>
<path d="M54.7705 105.431L54.7497 112.696C54.6766 112.789 54.5911 112.881 54.4951 112.969L54.5159 105.705C54.6119 105.617 54.6975 105.525 54.7705 105.431Z" fill="#ADADAD"/>
<path d="M54.5159 105.705L54.4951 112.969C54.3511 113.102 54.1799 113.23 53.9859 113.347L54.0067 106.082C54.2008 105.965 54.3699 105.838 54.5159 105.705Z" fill="#B3B3B3"/>
<path d="M54.0067 106.082L53.9859 113.347C53.7 113.518 53.389 113.655 53.0489 113.764L53.0697 106.5C53.4099 106.391 53.7187 106.253 54.0067 106.082Z" fill="#B8B8B8"/>
<path d="M53.0697 106.5L53.0489 113.764C52.8026 113.843 52.5439 113.908 52.2767 113.956L52.2976 106.692C52.5647 106.644 52.8235 106.581 53.0697 106.5Z" fill="#B3B3B3"/>
<path d="M52.2976 106.692L52.2767 113.956C52.0993 113.987 51.9178 114.012 51.7341 114.031L51.755 106.767C51.9386 106.75 52.1202 106.725 52.2976 106.692Z" fill="#ADADAD"/>
<path d="M51.755 106.769L51.7342 114.033C51.5756 114.05 51.4149 114.06 51.2542 114.064L51.2751 106.8C51.4378 106.794 51.5964 106.783 51.755 106.769Z" fill="#A8A8A8"/>
<path d="M51.2751 106.8L51.2542 114.064C51.1039 114.069 50.9537 114.071 50.8013 114.066L50.8222 106.802C50.9745 106.806 51.1248 106.804 51.2751 106.8Z" fill="#A3A3A3"/>
<path d="M50.8243 106.802L50.8034 114.066C50.6552 114.062 50.5071 114.054 50.361 114.044L50.3819 106.779C50.5279 106.79 50.6761 106.798 50.8243 106.802Z" fill="#9E9E9E"/>
<path d="M50.3819 106.777L50.361 114.041C50.2128 114.029 50.0626 114.012 49.9144 113.991L49.9353 106.727C50.0834 106.75 50.2316 106.767 50.3819 106.777Z" fill="#999999"/>
<path d="M49.9353 106.727L49.9144 113.991C49.76 113.968 49.6056 113.943 49.4532 113.912L49.4741 106.648C49.6265 106.679 49.7809 106.706 49.9353 106.727Z" fill="#949494"/>
<path d="M49.4741 106.648L49.4532 113.912C49.2842 113.877 49.1172 113.837 48.9544 113.789L48.9753 106.525C49.1381 106.573 49.305 106.612 49.4741 106.648Z" fill="#8F8F8F"/>
<path d="M48.9753 106.525L48.9545 113.789C48.7541 113.733 48.56 113.666 48.3722 113.593L48.3931 106.329C48.5809 106.404 48.775 106.468 48.9753 106.525Z" fill="#8A8A8A"/>
<path d="M48.3931 106.328L48.3722 113.593C47.3246 113.238 46.1769 112.201 46.2582 111.32L46.2791 104.056C46.1977 104.937 47.3434 105.974 48.3931 106.328Z" fill="#858585"/>
<path d="M80.3909 119.325L80.37 126.59L79.5186 127.084L79.5394 119.82L80.3909 119.325Z" fill="#161966"/>
<path d="M77.6988 120.888L77.6779 128.153L76.8369 128.643L76.8578 121.377L77.6988 120.888Z" fill="#161966"/>
<path d="M83.446 121.089L83.4272 128.355L82.5758 128.85L82.5967 121.583L83.446 121.089Z" fill="#161966"/>
<path d="M82.484 122.18L82.4631 129.445L80.37 126.59L80.3909 119.325L82.484 122.18Z" fill="#19556D"/>
<path d="M81.0336 121.755L81.0127 129.019L79.5186 127.084L79.5394 119.82L81.0336 121.755Z" fill="#808080"/>
<path d="M81.0336 121.752L81.0128 129.019L77.678 128.153L77.6988 120.888L81.0336 121.752Z" fill="#1F6785"/>
<path d="M216.001 49.3259L215.98 56.5924L91.2446 129.079L91.2634 121.815L216.001 49.3259Z" fill="#C5C5C5"/>
<path d="M215.999 49.3281C181.209 69.5434 125.688 101.81 91.2634 121.815C75.3574 112.633 37.2931 90.6541 20.9509 81.2215C58.4914 59.4076 108.236 30.4983 145.691 8.73242C147.166 9.58386 212.422 47.2621 215.999 49.3281Z" fill="white"/>
<g opacity="0.25">
<path d="M152.742 12.8041V86.0862L132.066 98.1044V16.6523L145.691 8.73267L152.742 12.8041Z" fill="white"/>
<path d="M87.1752 42.736V119.455L66.4987 107.516V54.7542L87.1752 42.736Z" fill="white"/>
</g>
<path d="M81.7744 122.591L81.7535 129.858L76.8369 128.643L76.8578 121.377L81.7744 122.591Z" fill="#9D9D9D"/>
<path d="M80.3909 119.325L82.484 122.18L81.7745 122.591L76.8578 121.377L77.6988 120.888L81.0336 121.755L79.5394 119.82L80.3909 119.325Z" fill="#DCDCDC"/>
<path d="M82.484 122.18L82.4631 129.445L81.7536 129.858L81.7745 122.591L82.484 122.18Z" fill="#C5C5C5"/>
<path d="M80.7561 122.654L80.7352 129.918L79.8942 130.407L79.9151 123.142L80.7561 122.654Z" fill="#161966"/>
<path d="M85.5392 123.944L85.5183 131.208L83.4272 128.355L83.446 121.089L85.5392 123.944Z" fill="#19556D"/>
<path d="M84.0888 123.518L84.0679 130.782L82.5758 128.85L82.5967 121.583L84.0888 123.518Z" fill="#808080"/>
<path d="M84.0888 123.518L84.0679 130.782L80.7352 129.918L80.7561 122.654L84.0888 123.518Z" fill="#1F6785"/>
<path d="M84.8296 124.355L84.8087 131.621L79.8942 130.409L79.9151 123.142L84.8296 124.355Z" fill="#9D9D9D"/>
<path d="M83.446 121.091L85.5391 123.944L84.8296 124.355L79.915 123.142L80.756 122.654L84.0888 123.518L82.5967 121.583L83.446 121.091Z" fill="#DCDCDC"/>
<path d="M85.5391 123.944L85.5183 131.208L84.8087 131.621L84.8296 124.355L85.5391 123.944Z" fill="#C5C5C5"/>
<path d="M220.296 44.4385C223.476 46.2749 223.493 49.2529 220.333 51.0872L88.9303 127.452C85.7708 129.288 80.6309 129.288 77.4505 127.452L11.2679 89.2412C8.08755 87.4048 8.07085 84.4269 11.2304 82.5925L142.633 6.22816C145.793 4.39172 150.933 4.39172 154.113 6.22816L220.296 44.4385ZM91.2634 121.815L215.999 49.3259L145.689 8.73238L20.953 81.2215L91.2634 121.815ZM47.6898 105.992C49.4804 107.028 52.2872 107.08 53.9567 106.111C55.6261 105.141 55.5239 103.515 53.7313 102.482C51.9408 101.447 49.1339 101.395 47.4645 102.363C45.7971 103.332 45.8993 104.957 47.6898 105.992ZM175.758 22.7477C175.28 22.3512 173.655 22.7957 174.527 23.4635C174.988 23.4343 191.533 34.0334 191.71 32.6707C193.634 32.1302 175.549 23.042 175.758 22.7477ZM79.5394 119.82L81.0336 121.754L77.6988 120.891L76.8578 121.379L81.7745 122.593L82.484 122.18L80.3909 119.325L79.5394 119.82ZM24.3629 87.962L25.2123 87.4674L20.279 86.2654L19.5694 86.6786L21.6792 89.5209L22.5203 89.0326L21.0177 87.1043L24.3629 87.962ZM84.8296 124.355L85.5392 123.942L83.4481 121.089L82.5988 121.583L84.0909 123.516L80.7582 122.652L79.9172 123.14L84.8296 124.355ZM18.6992 87.7992L19.5402 87.3109L18.0398 85.3826L21.3829 86.2403L22.2323 85.7458L17.301 84.5437L16.5915 84.9569L18.6992 87.7992Z" fill="#1B1D4D"/>
<path d="M22.2302 85.7479L21.3808 86.2404L18.0377 85.3827L19.5402 87.311L18.6992 87.7993L16.5894 84.957L17.2989 84.5438L22.2302 85.7479Z" fill="#DCDCDC"/>
<path d="M222.671 48.0238C222.564 49.2634 221.652 50.2463 220.64 50.8891C220.674 50.9475 89.0221 127.362 88.9303 127.45C87.2754 128.391 85.3492 128.781 83.4564 128.819C81.5741 131.98 13.9495 89.9571 11.2658 89.2392C9.87596 88.4379 8.92018 87.3673 8.8701 85.8898L8.84923 93.1542C8.84506 94.3645 9.64432 95.5791 11.2449 96.5015C15.0451 97.7327 80.4409 138.927 83.7862 136.072C85.3576 135.999 86.9394 135.682 88.3585 135C90.0154 133.961 220.035 58.792 221.433 57.5315C222.141 56.8888 222.654 56.0144 222.666 55.0482L222.687 47.7838C222.689 47.8673 222.677 47.9445 222.671 48.0238Z" fill="#1B1D4D"/>
<path d="M60.236 120.354V123.536L26.2703 103.928V100.746L27.5725 101.499L60.236 120.354Z" fill="#F2F2F2"/>
<path d="M26.9736 103.521V101.966L59.5327 120.761V122.317L26.9736 103.521Z" fill="#666666"/>
<path d="M61.5383 119.588V122.768L60.2361 123.536V120.354L61.5383 119.588Z" fill="#CCCCCC"/>
<path d="M61.5382 119.588L60.236 120.354L27.5725 101.499L26.2703 100.746L27.5725 99.9799L61.5382 119.588Z" fill="white"/>
<path d="M29.0813 135.997C28.0817 136.571 26.4999 136.707 25.4899 136.147L0.725125 122.005C0.266017 121.742 0.0635908 121.381 0.109502 121.009C0.0698514 121.729 -0.303695 122.539 0.604087 122.983L25.3709 137.128C26.9861 140.054 55.455 121.051 57.4125 120.688V119.778L29.0813 135.997Z" fill="#F7989B"/>
<path d="M0.979834 119.953C-0.0823759 120.563 -0.195066 121.477 0.725238 122.005L25.4921 136.149C27.1135 139.067 55.4259 120.162 57.3834 119.795L29.4383 103.659L0.979834 119.953Z" fill="#FF5887"/>
<g opacity="0.29">
<path opacity="0.0323" d="M28.712 104.074C26.3204 105.552 9.2061 115.185 2.58242 119.052C1.74976 119.661 0.257658 119.949 0.117839 121.132C0.45591 122.428 3.67593 123.424 4.86127 124.352C7.64931 125.945 10.5354 127.593 13.4904 129.279C16.4454 130.968 19.3315 132.616 22.1196 134.209C24.1313 135.216 26.1389 137.212 28.5262 136.237C35.5485 132.431 53.6228 121.854 56.6341 120.222C53.435 121.913 35.6862 132.414 28.5346 136.264C26.1389 137.243 24.123 135.248 22.105 134.234C19.3169 132.641 16.4308 130.993 13.4758 129.304C10.5208 127.616 7.6347 125.968 4.84666 124.375C3.62793 123.426 0.439215 122.462 0.088623 121.13C0.220095 119.928 1.73307 119.642 2.56781 119.025C9.10385 115.245 26.4164 105.412 28.712 104.074Z" fill="white"/>
<path opacity="0.0645" d="M27.9878 104.488C25.6422 105.938 8.80958 115.412 2.30067 119.21C1.51601 119.761 -0.111735 120.162 0.167903 121.387C4.2018 124.467 9.01826 126.475 13.4925 129.28C16.3995 130.939 19.2355 132.56 21.9756 134.125C23.9727 135.085 25.8905 137.091 28.257 136.325C35.2292 132.737 52.932 122.19 55.912 120.638C52.7421 122.247 35.3648 132.723 28.2633 136.352C25.8884 137.122 23.9643 135.114 21.961 134.15C19.2209 132.585 16.3828 130.966 13.4779 129.305C9.18104 126.85 5.13045 124.536 0.960908 122.155C0.464236 121.921 -0.078346 121.443 0.1366 120.838C6.29909 116.151 25.1601 106.476 27.9878 104.488Z" fill="white"/>
<path opacity="0.0968" d="M27.2616 104.903C24.9577 106.328 8.41308 115.638 2.01895 119.373C1.32403 119.834 0.192954 120.145 0.117827 121.116C0.126174 121.723 0.72719 121.992 1.18839 122.255C5.28697 124.595 9.26661 126.869 13.4904 129.28C16.3452 130.911 19.1354 132.504 21.8274 134.042C23.8057 134.964 25.6443 136.949 27.9774 136.394C34.9078 133.073 52.235 122.514 55.1858 121.051C52.0493 122.568 35.0372 133.059 27.9836 136.419C25.6463 136.978 23.7974 134.989 21.8149 134.065C19.1228 132.527 16.3327 130.934 13.4779 129.302C9.25409 126.89 5.27445 124.617 1.17586 122.276C0.712581 122.013 0.094872 121.729 0.0906982 121.114C0.161651 120.129 1.30525 119.816 2.00435 119.35C8.315 115.698 25.0474 106.195 27.2616 104.903Z" fill="white"/>
<path opacity="0.129" d="M26.5375 105.318C23.8892 107.215 6.05495 116.32 0.153319 120.859C-0.0845824 121.677 0.833634 122.046 1.40335 122.376C5.42889 124.676 9.33966 126.909 13.4904 129.277C16.2952 130.88 19.0352 132.445 21.6813 133.956C23.6743 134.866 25.4085 136.782 27.6957 136.442C34.5885 133.437 51.538 122.821 54.4617 121.464C51.3544 122.871 34.7179 133.424 27.6998 136.467C25.4085 136.811 23.6659 134.891 21.6688 133.979C19.0227 132.468 16.2826 130.903 13.4779 129.3C9.32923 126.93 5.41846 124.697 1.39291 122.397C0.810678 122.063 -0.113798 121.679 0.130364 120.851C5.93183 116.345 23.9894 107.155 26.5375 105.318Z" fill="white"/>
<path opacity="0.1613" d="M25.8133 105.734C23.6054 107.107 7.61381 116.093 1.45549 119.695C0.887866 120.014 0.126162 120.39 0.117815 121.139C0.18042 121.909 1.07359 122.128 1.62244 122.499C5.57703 124.757 9.41685 126.951 13.4925 129.277C16.2492 130.851 18.9392 132.389 21.5373 133.873C23.5052 134.766 25.1872 136.602 27.4139 136.473C34.2337 133.802 50.8743 123.134 53.7396 121.877C50.7345 123.226 34.3381 133.773 27.416 136.498C25.1872 136.632 23.4948 134.789 21.5248 133.896C18.9267 132.412 16.2367 130.874 13.48 129.3C9.40433 126.974 5.56242 124.778 1.60992 122.52C1.04855 122.14 0.157466 121.923 0.0927734 121.139C0.101121 120.375 0.873258 119.995 1.44297 119.672C7.52407 116.151 23.6805 106.979 25.8133 105.734Z" fill="white"/>
<path opacity="0.1935" d="M25.0871 106.149C22.9084 107.495 7.22774 116.322 1.17168 119.857C0.737614 120.095 0.270158 120.408 0.140773 120.915C-0.0407837 121.9 1.20298 122.178 1.8353 122.625C5.71686 124.841 9.48781 126.994 13.4904 129.28C16.1971 130.826 18.8369 132.335 21.3892 133.791C23.332 134.68 24.9639 136.404 27.1259 136.49C27.8146 136.475 28.4991 136.314 29.0855 135.983C33.7726 133.301 37.9922 130.884 41.5378 128.856C48.6268 124.803 52.9529 122.33 53.0134 122.295C52.9529 122.33 48.6289 124.809 41.5461 128.871C38.0026 130.901 33.783 133.318 29.098 136.001C28.5074 136.337 27.8188 136.496 27.128 136.513C24.9639 136.431 23.3237 134.701 21.3787 133.812C18.8265 132.356 16.1866 130.847 13.48 129.3C9.47946 127.015 5.70642 124.862 1.82487 122.643C1.17794 122.193 -0.0658261 121.907 0.117817 120.907C0.249289 120.394 0.725093 120.07 1.16125 119.832C7.13383 116.376 22.9939 107.37 25.0871 106.149Z" fill="white"/>
<path opacity="0.2258" d="M24.3629 106.564C22.2531 107.896 6.81246 116.541 0.892042 120.022C0.483018 120.271 0.0677347 120.69 0.121993 121.205C0.311897 122.076 1.4075 122.274 2.05025 122.748C5.86085 124.924 9.56293 127.038 13.4904 129.28C16.147 130.797 18.7388 132.276 21.2431 133.708C23.6576 134.835 25.999 137.429 28.7954 136.131C33.8581 133.318 50.5592 123.653 52.2872 122.71C50.3506 123.71 34.0105 133.293 28.8038 136.149C25.999 137.454 23.6513 134.86 21.2306 133.729C18.7263 132.299 16.1344 130.818 13.4779 129.3C9.55041 127.057 5.84833 124.943 2.03981 122.766C1.38454 122.286 0.293115 122.092 0.0990374 121.205C0.0426923 120.68 0.468411 120.252 0.879522 119.999C6.73107 116.6 22.3157 107.764 24.3629 106.564Z" fill="white"/>
<path opacity="0.2581" d="M23.6388 106.979C24.1772 106.629 11.0634 114.223 7.01488 116.51C5.48939 117.384 3.85329 118.321 2.2798 119.223C1.38662 119.73 -0.787882 120.659 0.526838 121.857C8.45689 126.452 16.7626 131.129 24.7156 135.695C28.2382 138.153 31.7921 133.958 34.9308 132.644C39.0064 130.321 52.0764 122.831 51.5651 123.13C52.1807 122.823 38.9334 130.34 34.9412 132.66C31.8047 133.985 28.232 138.18 24.7052 135.715C16.7501 131.149 8.44437 126.473 0.514318 121.875C-0.819184 120.665 1.36784 119.722 2.27145 119.206C3.84494 118.305 5.48312 117.368 7.00862 116.495C11.0613 114.158 24.1605 106.687 23.6388 106.979Z" fill="white"/>
<path opacity="0.2903" d="M22.9146 107.393C23.4426 107.048 10.5813 114.496 6.61002 116.74C5.11374 117.597 3.50895 118.515 1.96468 119.4C0.954637 119.832 -0.848408 121.089 0.762645 122.013C8.56958 126.471 16.6895 131.108 24.4986 135.569C27.9273 138.203 31.454 134.244 34.5238 132.873C38.5181 130.594 51.3418 123.246 50.8389 123.543C51.442 123.24 38.4513 130.615 34.5342 132.89C31.4624 134.271 27.921 138.228 24.4881 135.59C16.677 131.131 8.55914 126.494 0.75221 122.034C-0.863017 121.107 0.917073 119.818 1.95424 119.386C3.49643 118.501 5.10331 117.583 6.59958 116.727C10.575 114.436 23.4301 107.107 22.9146 107.393Z" fill="white"/>
<path opacity="0.3226" d="M22.1884 107.808C22.706 107.466 10.0972 114.774 6.20311 116.971C5.11585 117.998 -2.39683 120.511 1.011 122.155C8.6656 126.527 16.6249 131.072 24.2816 135.446C27.6226 138.199 31.1056 134.559 34.1169 133.105C38.0318 130.872 50.6073 123.666 50.1127 123.956C50.7074 123.66 37.9651 130.891 34.1273 133.119C31.1118 134.58 27.6184 138.222 24.2711 135.463C16.6144 131.091 8.65516 126.546 1.00057 122.172C-2.44274 120.5 5.10542 117.985 6.19267 116.955C10.0909 114.713 22.6976 107.524 22.1884 107.808Z" fill="white"/>
<path opacity="0.3548" d="M21.4643 108.223C21.9756 107.887 9.61302 115.051 5.79825 117.203C4.81534 118.115 -1.37011 120.21 0.468415 121.806C8.47777 126.487 16.8523 131.164 24.8972 135.795C27.944 137.909 31.0409 134.553 33.7141 133.334C37.5498 131.147 49.8789 124.081 49.3885 124.369C49.977 124.077 37.4809 131.166 33.7225 133.349C30.6924 134.912 27.4014 138.176 24.0562 135.338C16.291 130.868 8.18144 126.343 0.453807 121.821C-1.42436 120.202 4.81534 118.096 5.78781 117.186C9.60676 114.993 21.9651 107.943 21.4643 108.223Z" fill="white"/>
<path opacity="0.3871" d="M20.7402 108.638C20.2498 109.139 6.51406 116.637 2.5219 119.081C-1.45356 121.034 0.0948855 121.74 3.12918 123.365C6.58084 125.335 9.93233 127.251 13.4904 129.282C17.0464 131.314 20.4 133.228 23.8517 135.2C24.9222 135.782 25.949 136.617 27.2261 136.49C29.4924 136.285 31.3393 134.493 33.3093 133.568C37.0656 131.427 49.1465 124.501 48.6644 124.784C49.2466 124.501 36.9968 131.439 33.3176 133.583C31.3477 134.511 29.4945 136.302 27.2261 136.508C25.9469 136.636 24.9139 135.801 23.8412 135.217C20.3896 133.247 17.0381 131.331 13.48 129.3C9.92398 127.27 6.5704 125.354 3.11874 123.382C0.128276 121.775 -1.51825 121.032 2.51355 119.064C6.41389 116.802 20.3562 108.876 20.7402 108.638Z" fill="white"/>
<path opacity="0.4194" d="M20.0139 109.054C19.5652 109.563 6.0612 116.873 2.17547 119.279C-1.85008 121.201 0.917096 122.09 3.34411 123.491C6.72273 125.421 10.0054 127.295 13.4883 129.284C16.9713 131.272 20.2539 133.149 23.6325 135.079C24.6989 135.619 25.6547 136.492 26.8985 136.494C29.1585 136.529 30.9824 134.703 32.9003 133.804C36.5752 131.709 48.4119 124.924 47.9361 125.204C48.5058 124.92 36.5105 131.723 32.9086 133.818C30.9887 134.722 29.1606 136.548 26.8985 136.513C24.4777 136.131 22.5787 134.267 20.3541 133.23C18.1337 131.961 15.8339 130.649 13.4779 129.302C9.99492 127.314 6.7123 125.438 3.33368 123.507C0.937965 122.124 -1.90016 121.195 2.16712 119.265C5.9819 117.044 19.6445 109.287 20.0139 109.054Z" fill="white"/>
<path opacity="0.4516" d="M19.2898 109.469C18.8578 109.97 5.62919 117.119 1.82903 119.475C-2.02957 121.301 1.6266 122.41 3.55903 123.612C6.8667 125.5 10.0784 127.335 13.4883 129.282C16.8961 131.229 20.1099 133.063 23.4176 134.954C24.9034 135.822 26.4665 136.963 28.2591 136.327C32.4244 134.332 46.2561 126.022 47.2119 125.615C45.9932 126.057 32.606 134.317 28.2632 136.344C26.4623 136.98 24.8992 135.843 23.4071 134.97C20.0995 133.082 16.8857 131.247 13.4779 129.3C10.07 127.353 6.85627 125.519 3.5486 123.628C1.62869 122.435 -2.06922 121.291 1.82068 119.461C5.55407 117.291 18.9287 109.696 19.2898 109.469Z" fill="white"/>
<path opacity="0.4839" d="M18.5656 109.884C18.1566 110.358 5.19097 117.38 1.48471 119.674C0.489282 120.037 -0.589624 121.343 0.773094 122.024C4.68178 124.254 8.97862 126.709 13.4883 129.286C16.8231 131.191 19.9659 132.986 23.2026 134.835C25.0453 136.047 27.3638 137.299 29.4006 135.809C33.1048 133.72 46.0996 126.233 46.4899 126.034C45.8993 126.446 33.2467 133.576 29.4089 135.824C27.3617 137.312 25.0432 136.068 23.1943 134.849C19.9576 133.002 16.8148 131.208 13.48 129.302C8.79289 126.412 4.02233 124.323 0.17208 121.46C-0.272421 119.799 3.17089 119 4.16841 118.121C5.90468 117.128 7.52408 116.201 9.00157 115.356C14.9095 111.973 18.5239 109.907 18.5656 109.884Z" fill="white"/>
<path opacity="0.5161" d="M17.8394 110.297C17.7998 110.32 14.2667 112.347 8.49239 115.656C7.04829 116.483 5.46645 117.391 3.76775 118.363C2.84119 119.179 -0.804554 120.053 0.376607 121.729C4.42511 124.238 8.8096 126.55 13.4842 129.286C16.7438 131.147 19.8178 132.904 22.9814 134.712C24.8158 135.815 26.9235 137.289 29.05 136.005C32.6707 133.962 45.3797 126.642 45.7595 126.448C45.1793 126.848 32.8126 133.823 29.0584 136.018C26.9214 137.299 24.8158 135.832 22.9752 134.724C19.8115 132.917 16.7376 131.162 13.4758 129.3C8.79916 126.562 4.41467 124.254 0.366172 121.742C-0.846292 120.045 2.84119 119.173 3.7594 118.353C5.4581 117.38 7.03994 116.474 8.48405 115.648C14.2646 112.342 17.7998 110.32 17.8394 110.297Z" fill="white"/>
<path opacity="0.5484" d="M17.1153 110.713C17.5097 110.471 6.75404 116.664 3.36499 118.595C2.38834 119.325 -1.1781 120.379 0.643726 121.944C4.69014 124.273 8.8889 126.652 13.4883 129.286C17.7998 131.746 21.9067 134.088 25.6422 136.218C27.6748 137.136 29.5905 135.701 31.283 134.73C34.6845 132.787 45.4235 126.638 45.0395 126.861C45.484 126.627 34.6428 132.808 31.2892 134.743C29.5926 135.715 27.6727 137.153 25.6359 136.233C21.9005 134.102 17.7935 131.759 13.4821 129.3C8.88264 126.667 4.68597 124.288 0.639552 121.959C-1.21358 120.375 2.3946 119.329 3.36081 118.586C6.74778 116.637 17.5076 110.494 17.1153 110.713Z" fill="white"/>
<path opacity="0.5806" d="M16.3911 111.128C16.2158 111.132 5.19723 117.616 1.7247 119.534C0.57484 120.001 -0.779531 121.324 0.940039 122.12C4.90089 124.382 8.99322 126.717 13.4883 129.286C17.6975 131.69 21.7084 133.981 25.3563 136.064C27.2303 137.189 29.2629 135.962 30.8781 134.962C34.1962 133.061 44.6993 127.057 44.3154 127.276C44.762 127.024 34.1565 133.099 30.8844 134.975C29.267 135.976 27.2303 137.205 25.35 136.076C21.7022 133.994 17.6912 131.702 13.4821 129.298C8.98696 126.729 4.89672 124.394 0.933779 122.132C-0.77327 121.343 0.53519 119.989 1.71844 119.524C4.98854 117.631 16.4829 111.091 16.3911 111.128Z" fill="white"/>
<path opacity="0.6129" d="M15.667 111.543C16.0781 111.268 5.76486 117.251 2.55527 119.058C1.61827 119.624 -0.942299 120.621 0.589454 121.909C4.72769 124.3 8.84297 126.623 13.4883 129.286C17.5973 131.633 21.5123 133.868 25.0745 135.903C26.8025 137.13 28.9144 136.247 30.4732 135.196C33.6912 133.363 43.994 127.453 43.5912 127.691C44.0775 127.46 33.6327 133.368 30.4795 135.206C28.9164 136.26 26.8025 137.147 25.0683 135.916C21.5081 133.883 17.5911 131.646 13.4821 129.298C8.83463 126.633 4.72352 124.313 0.583194 121.919C-0.963167 120.621 1.61201 119.619 2.5511 119.048C5.75025 117.205 16.0802 111.314 15.667 111.543Z" fill="white"/>
<path opacity="0.6452" d="M14.9408 111.959C15.3477 111.687 5.27445 117.528 2.14833 119.29C1.04856 119.807 -1.04038 121.093 0.89622 122.097C4.94681 124.409 8.9494 126.696 13.4862 129.286C17.4951 131.575 21.3161 133.758 24.7886 135.743C26.4101 136.976 28.5199 136.533 30.0642 135.427C33.2008 133.643 43.2594 127.871 42.8629 128.107C43.345 127.879 33.1423 133.645 30.0705 135.438C28.5199 136.544 26.408 136.993 24.7824 135.753C21.3078 133.768 17.4888 131.588 13.4779 129.298C8.94105 126.706 4.94055 124.421 0.887872 122.107C-1.04456 121.105 1.01726 119.797 2.13999 119.281C5.26192 117.485 15.3519 111.729 14.9408 111.959Z" fill="white"/>
<path opacity="0.6774" d="M14.2166 112.374C14.6173 112.107 4.7903 117.806 1.74349 119.521C-1.1948 120.963 0.361993 121.932 2.46554 122.992C5.85251 124.926 9.57755 127.053 13.4862 129.286C17.3949 131.519 21.12 133.645 24.5069 135.58C26.0324 136.748 28.1088 136.78 29.6615 135.659C32.7166 133.921 42.5311 128.288 42.1388 128.52C42.6146 128.295 32.6582 133.921 29.6656 135.667C28.1068 136.788 26.0345 136.763 24.5007 135.59C21.1137 133.656 17.3887 131.529 13.48 129.296C9.57129 127.063 5.84625 124.937 2.45928 123.002C0.391209 121.961 -1.23863 120.959 1.73723 119.513C4.7757 117.762 14.6215 112.149 14.2166 112.374Z" fill="white"/>
<path opacity="0.7097" d="M13.4925 112.789C-3.15021 123.342 -5.36645 118.177 13.4883 129.288C31.9236 139.637 23.8767 138.017 41.4167 128.937C23.8829 138.036 31.9153 139.643 13.482 129.298C-5.37063 118.188 -3.17734 123.328 13.4925 112.789Z" fill="white"/>
<path opacity="0.7419" d="M12.7663 113.202C-2.88726 123.188 -5.40818 118.215 13.4862 129.286C31.5647 139.491 24.1563 137.99 40.6905 129.35C24.1876 138.009 31.5167 139.482 13.4821 129.296C-5.42696 118.223 -2.89143 123.171 12.7663 113.202Z" fill="white"/>
<path opacity="0.7742" d="M12.0421 113.618C-3.57801 123.188 -4.32302 118.678 13.4862 129.286C30.7612 138.996 24.2669 138.274 39.9664 129.764C24.2836 138.307 30.6986 138.969 13.4821 129.294C-4.32719 118.691 -3.59888 123.177 12.0421 113.618Z" fill="white"/>
<path opacity="0.8065" d="M11.318 114.033C-4.84683 123.49 -2.77458 119.139 13.4862 129.288C30.0266 138.397 24.0812 138.697 39.2422 130.181C24.0353 138.737 30.0308 138.384 13.482 129.296C-2.75371 119.171 -4.86144 123.465 11.318 114.033Z" fill="white"/>
<path opacity="0.8387" d="M10.5918 114.448C-5.0221 123.484 -2.32797 119.304 13.4841 129.288C29.5613 137.852 23.6617 139.111 38.5139 130.594C23.6388 139.138 29.5571 137.844 13.48 129.294C-2.33214 119.31 -5.03671 123.476 10.5918 114.448Z" fill="white"/>
<path opacity="0.871" d="M9.86762 114.863C-4.85933 123.342 -2.17355 119.427 13.4862 129.288C29.3109 137.508 23.4071 139.317 37.7918 131.009C23.4071 139.321 29.3234 137.522 13.4821 129.294C-2.17355 119.436 -4.87603 123.338 9.86762 114.863Z" fill="white"/>
<path opacity="0.9032" d="M9.14348 115.279C-4.63603 123.192 -2.09424 119.528 13.4862 129.29C29.1523 137.424 23.5699 139.242 37.0677 131.427C23.5845 139.242 29.1627 137.443 13.4821 129.296C-2.06085 119.548 -4.6736 123.19 9.14348 115.279Z" fill="white"/>
<path opacity="0.9355" d="M8.41931 115.694C-4.46286 123.046 -1.92733 119.665 13.4862 129.29C28.9102 137.32 23.8161 139.148 36.3435 131.842C23.8266 139.157 28.8976 137.322 13.4841 129.296C-1.92107 119.672 -4.47955 123.042 8.41931 115.694Z" fill="white"/>
<path opacity="0.9677" d="M7.69313 116.107C-4.28752 122.896 -1.74155 119.811 13.4842 129.288C17.8373 131.765 21.6292 133.958 25.6693 136.235C26.8359 136.713 28.2132 136.519 29.2378 135.903C33.1778 133.647 35.6048 132.26 35.6153 132.253C35.6048 132.26 33.1778 133.649 29.2378 135.907C28.2132 136.525 26.8338 136.719 25.6672 136.239C21.625 133.96 17.8353 131.769 13.48 129.292C-1.75407 119.814 -4.28752 122.892 7.69313 116.107Z" fill="white"/>
<path d="M6.96898 116.523C6.96063 116.527 4.615 117.875 0.808577 120.06C0.351555 120.346 -0.101293 120.943 0.205475 121.498C4.38128 124.453 8.81585 126.437 13.4862 129.288C16.3953 130.949 19.1646 132.531 21.6855 133.971C23.5658 134.849 25.0307 136.394 27.0383 136.5C29.626 136.381 32.9003 133.53 34.8953 132.669C32.8794 133.533 29.6343 136.379 27.0383 136.502C25.0328 136.396 23.5637 134.851 21.6834 133.973C19.1646 132.533 16.3932 130.951 13.4841 129.29C8.81376 126.437 4.3771 124.455 0.203388 121.498C-0.101293 120.94 0.349468 120.342 0.808577 120.056C4.615 117.875 6.96063 116.529 6.96898 116.523Z" fill="white"/>
</g>
<path d="M49.7746 117.174L51.1457 117.965C52.0472 118.67 50.0793 119.204 49.5158 118.57L49.9353 118.328L50.2254 118.495C50.4069 118.659 51.0601 118.453 50.7178 118.211L49.3468 117.42C49.1652 117.255 48.512 117.462 48.8543 117.704L49.207 117.908L48.7875 118.15C47.3371 117.587 49.0338 116.685 49.7746 117.174Z" fill="#1A1A1A"/>
<path d="M47.1974 118.659L47.6565 118.394L47.2015 118.025L47.6293 117.779L49.6348 119.478L49.063 119.807L46.1205 118.647L46.5567 118.394L47.1974 118.659ZM47.6147 118.835L48.823 119.331L47.9612 118.634L47.6147 118.835Z" fill="#1A1A1A"/>
<path d="M44.8308 119.392L46.1623 119.803L46.3835 119.676L45.363 119.085L45.7908 118.839L48.2658 120.266C47.7316 120.604 46.9281 121.093 46.3355 120.698C46.108 120.579 45.6739 120.348 45.8534 120.079L44.3884 119.647L44.8308 119.392ZM46.7382 119.878C46.5963 119.962 46.1956 120.137 46.4836 120.289C46.8071 120.542 47.1431 120.582 47.4832 120.308L46.7382 119.878Z" fill="#1A1A1A"/>
<path d="M46.5087 121.281C45.1 122.32 44.5595 121.704 43.2866 120.965C42.529 120.544 43.6872 120.068 44.0357 119.851L46.5087 121.281ZM43.7394 120.431C43.153 120.661 44.9498 121.337 45.0145 121.47C45.2336 121.619 45.5258 121.454 45.7282 121.324L43.9606 120.304L43.7394 120.431Z" fill="#1A1A1A"/>
<path d="M50.0459 117.174L51.417 117.965C52.3185 118.67 50.3506 119.204 49.7872 118.57L50.2066 118.328L50.4967 118.495C50.6782 118.659 51.3314 118.453 50.9892 118.211L49.6181 117.42C49.4366 117.255 48.7834 117.462 49.1256 117.704L49.4783 117.908L49.0588 118.15C47.6085 117.587 49.3051 116.685 50.0459 117.174Z" fill="#F7931E"/>
<path d="M47.4686 118.659L47.9277 118.394L47.4728 118.025L47.9006 117.779L49.9061 119.478L49.3343 119.807L46.3918 118.649L46.8279 118.397L47.4686 118.659ZM47.886 118.835L49.0943 119.331L48.2324 118.634L47.886 118.835Z" fill="#F7931E"/>
<path d="M45.1021 119.392L46.4336 119.803L46.6548 119.676L45.6343 119.085L46.0621 118.839L48.5371 120.266C48.0029 120.604 47.1994 121.093 46.6068 120.698C46.3793 120.579 45.9452 120.348 46.1247 120.079L44.6597 119.647L45.1021 119.392ZM47.0095 119.878C46.8676 119.962 46.4669 120.137 46.7549 120.289C47.0784 120.542 47.4144 120.582 47.7545 120.308L47.0095 119.878Z" fill="#F7931E"/>
<path d="M46.782 121.281C45.3734 122.32 44.8329 121.704 43.5599 120.965C42.8024 120.544 43.9606 120.068 44.3091 119.851L46.782 121.281ZM44.0107 120.431C43.4243 120.661 45.2211 121.337 45.2858 121.47C45.5049 121.619 45.797 121.454 45.9995 121.324L44.2319 120.304L44.0107 120.431Z" fill="#F7931E"/>
<path d="M30.6569 111.262L30.9512 111.093L31.1327 111.197C30.947 111.322 30.9073 111.437 30.9491 111.52L30.7675 111.625L29.0542 110.636L29.313 110.485L30.6569 111.262Z" fill="white"/>
<path d="M28.7808 111.078L28.2675 111.374L28.0233 111.233L28.8455 110.757L29.0709 110.886L29.2963 111.454C29.3652 112.019 30.4065 111.963 29.8013 111.596L30.0517 111.452C31.0576 111.965 29.1127 112.771 28.7808 111.078Z" fill="white"/>
<path d="M28.3644 112.172L27.7773 112.512L27.5224 112.366L28.1095 112.028L28.3644 112.172Z" fill="white"/>
<path d="M25.8884 113.107C24.9765 112.714 26.1555 112.155 26.6084 112.566L26.383 112.725C26.2348 112.556 25.7069 112.647 25.9844 112.862C26.1952 113.019 26.4373 113.092 26.6585 112.906L26.9026 113.048C26.6105 113.173 26.719 113.294 26.9485 113.401C27.1238 113.532 27.5099 113.34 27.1781 113.194L27.4285 113.05C28.1464 113.432 27.0362 113.864 26.6835 113.547C26.5353 113.476 26.3246 113.328 26.4268 113.186C26.2328 113.225 26.0491 113.198 25.8884 113.107Z" fill="white"/>
<path d="M24.6342 113.601L24.7741 113.52L24.4172 113.313L24.676 113.163L25.0328 113.369L25.5399 113.077C25.7591 113.098 26.3121 113.97 26.4373 114.125L26.1284 114.302L25.0182 113.662L24.8784 113.743L24.6342 113.601ZM25.277 113.513L25.949 113.902L25.5378 113.361L25.277 113.513Z" fill="white"/>
<path d="M40.7698 111.132L41.1934 110.888L41.4543 111.039C41.1851 111.218 41.1287 111.385 41.1892 111.506L40.9284 111.656L38.4534 110.229L38.829 110.012L40.7698 111.132Z" fill="white"/>
<path d="M38.059 110.865L37.3161 111.293L36.9634 111.089L38.1508 110.402L38.4764 110.59L38.8019 111.41C38.9459 112.27 40.4004 112.111 39.5302 111.615L39.8912 111.406C41.3312 112.072 38.6183 113.393 38.059 110.865Z" fill="white"/>
<path d="M36.354 112.368C35.0101 111.767 36.7359 111.018 37.3932 111.587L37.0677 111.817C36.8528 111.573 36.0911 111.706 36.4917 112.015C36.7964 112.241 37.147 112.345 37.4642 112.078L37.8169 112.282C37.3849 112.478 37.5477 112.624 37.8837 112.789C38.1362 112.979 38.6934 112.704 38.2155 112.491L38.5765 112.282C39.6137 112.833 38.011 113.457 37.5018 113C37.2889 112.898 36.9821 112.685 37.1303 112.48C36.8528 112.541 36.5877 112.501 36.354 112.368Z" fill="white"/>
<path d="M34.5426 113.084L34.745 112.967L34.2296 112.668L34.6052 112.451L35.1207 112.75L35.8532 112.328C36.1745 112.357 36.9655 113.616 37.1512 113.841L36.7067 114.098L35.1019 113.171L34.9016 113.288L34.5426 113.084ZM35.4713 112.954L36.4437 113.516L35.849 112.737L35.4713 112.954Z" fill="white"/>
<path d="M31.5313 116.466L31.9549 116.222L32.2158 116.372C31.9466 116.552 31.8902 116.719 31.9508 116.84L31.6899 116.99L29.217 115.563L29.5905 115.346L31.5313 116.466Z" fill="white"/>
<path d="M28.8205 116.199L28.0776 116.627L27.7249 116.423L28.9123 115.736L29.2379 115.924L29.5634 116.744C29.7074 117.604 31.1619 117.445 30.2917 116.948L30.6527 116.74C32.0927 117.405 29.3798 118.726 28.8205 116.199Z" fill="white"/>
<path d="M27.1176 117.7C25.7736 117.099 27.4995 116.35 28.1568 116.919L27.8313 117.149C27.6163 116.905 26.8546 117.038 27.2553 117.347C27.56 117.572 27.9106 117.677 28.2278 117.41L28.5805 117.614C28.1485 117.81 28.3113 117.956 28.6472 118.121C28.8998 118.311 29.4569 118.036 28.9791 117.823L29.3401 117.614C30.3772 118.165 28.7745 118.789 28.2653 118.332C28.0525 118.23 27.7457 118.017 27.8939 117.812C27.6163 117.873 27.3513 117.835 27.1176 117.7Z" fill="white"/>
<path d="M25.3041 118.415L25.5044 118.299L24.989 118L25.3646 117.783L25.8801 118.082L26.6126 117.66C26.9339 117.689 27.7249 118.948 27.9106 119.173L27.4661 119.43L25.8613 118.503L25.661 118.62L25.3041 118.415ZM26.2348 118.288L27.2073 118.85L26.6126 118.071L26.2348 118.288Z" fill="white"/>
<path d="M22.2928 121.798L22.7164 121.554L22.9773 121.704C22.708 121.884 22.6517 122.051 22.7122 122.172L22.4514 122.322L19.9763 120.894L20.3499 120.677L22.2928 121.798Z" fill="white"/>
<path d="M19.582 121.531L18.839 121.959L18.4864 121.754L19.6738 121.068L19.9993 121.256L20.3249 122.076C20.4689 122.935 21.9234 122.777 21.0532 122.28L21.4142 122.072C22.8562 122.737 20.1433 124.058 19.582 121.531Z" fill="white"/>
<path d="M17.8791 123.033C16.5351 122.432 18.261 121.683 18.9183 122.253L18.5928 122.483C18.3778 122.238 17.6161 122.372 18.0168 122.681C18.3215 122.906 18.6721 123.011 18.9893 122.743L19.342 122.948C18.91 123.144 19.0728 123.29 19.4087 123.455C19.6613 123.645 20.2184 123.369 19.7406 123.157L20.1016 122.948C21.1388 123.499 19.536 124.123 19.0269 123.666C18.814 123.564 18.5072 123.351 18.6554 123.146C18.3778 123.207 18.1128 123.169 17.8791 123.033Z" fill="white"/>
<path d="M16.0677 123.749L16.268 123.632L15.7526 123.334L16.1282 123.117L16.6437 123.415L17.3761 122.994C17.6975 123.023 18.4884 124.281 18.6742 124.507L18.2297 124.764L16.6249 123.837L16.4224 123.954L16.0677 123.749ZM16.9963 123.622L17.9688 124.183L17.3741 123.405L16.9963 123.622Z" fill="white"/>
<path d="M34.0648 106.902L33.8915 107.002L32.75 106.343L32.9232 106.243L34.0648 106.902Z" fill="white"/>
<path d="M33.7017 107.111C33.47 107.261 33.157 107.44 32.8878 107.265C32.604 107.146 32.5268 106.954 32.8502 106.819L32.3869 106.551L32.5601 106.451L33.7017 107.111ZM32.9253 106.965C32.773 107.046 33.0067 107.125 33.0652 107.167C33.1653 107.234 33.278 107.173 33.3678 107.115L33.0151 106.912L32.9253 106.965Z" fill="white"/>
<path d="M32.1782 106.977L32.22 107L32.0718 107.107C31.98 106.998 31.6106 107.046 31.7838 107.196C31.9299 107.292 32.6937 107.205 32.7834 107.336C33.2154 107.635 32.4412 107.841 32.2283 107.622L32.3765 107.516C32.4725 107.62 32.8043 107.578 32.6227 107.438C32.4725 107.347 31.7149 107.426 31.6231 107.299C31.2099 107.006 31.9633 106.787 32.1782 106.977Z" fill="white"/>
<path d="M31.4666 107.374L32.3577 107.887L32.1845 107.987C32.0447 107.948 31.2412 107.336 31.0931 107.468C30.8593 107.562 31.98 108.044 31.9904 108.098L31.8214 108.196L30.9303 107.683C30.538 107.405 31.26 107.19 31.4666 107.374Z" fill="white"/>
<path d="M30.8531 108.755L29.7115 108.096L29.8848 107.996L30.6673 108.446L30.0454 107.902L30.1665 107.833L31.1097 108.192L30.3272 107.741L30.4962 107.643L31.6377 108.302L31.3936 108.444L30.515 108.11L31.0993 108.613L30.8531 108.755Z" fill="white"/>
<path d="M33.2556 110.096L32.7793 109.711L32.8942 109.644L33.5606 109.92L33.4729 109.97L32.9589 109.749L33.3433 110.045L33.2556 110.096Z" fill="white"/>
<path d="M32.5917 109.966L32.6857 109.912L32.5771 109.828L32.6627 109.778L33.139 110.162L33.0241 110.229L32.3577 109.953L32.4454 109.903L32.5917 109.966ZM32.6857 110.006L32.9594 110.123L32.7546 109.964L32.6857 110.006Z" fill="white"/>
<path d="M32.8615 110.323L32.7759 110.373L32.287 110.091L32.1324 110.181L32.0509 110.133L32.2912 109.993L32.8615 110.323Z" fill="white"/>
<path d="M32.5546 110.5L32.4689 110.55L31.8986 110.22L31.9842 110.17L32.5546 110.5Z" fill="white"/>
<path d="M32.3732 110.605C32.1496 110.822 31.876 110.647 31.667 110.511C31.4957 110.417 31.7214 110.325 31.8028 110.277L32.3732 110.605ZM31.7527 110.398C31.6357 110.454 32.041 110.601 32.0556 110.634C32.1058 110.667 32.1622 110.636 32.206 110.609L31.7987 110.373L31.7527 110.398Z" fill="white"/>
<path d="M32.5818 109.355L32.306 109.513L32.2246 109.465L32.3186 109.411L31.8297 109.129L31.9154 109.079L32.4042 109.361L32.4982 109.307L32.5818 109.355Z" fill="white"/>
<path d="M31.6672 109.223L32.2376 109.553L32.1519 109.603L31.9117 109.463L31.8093 109.522L32.0495 109.662L31.9639 109.712L31.3936 109.382L31.4792 109.332L31.7278 109.476L31.8302 109.417L31.5816 109.273L31.6672 109.223Z" fill="white"/>
<path d="M31.1036 109.549L31.4023 109.649L31.4483 109.624L31.2122 109.488L31.2979 109.438L31.8682 109.768C31.7303 109.9 31.371 109.937 31.3418 109.707L31.0138 109.601L31.1036 109.549ZM31.5277 109.67C31.3459 109.741 31.6238 109.866 31.699 109.77L31.5277 109.67Z" fill="white"/>
<path d="M31.0726 109.711L31.5175 109.968L31.4319 110.018C30.9012 109.657 30.5565 109.669 31.3358 110.075L31.2501 110.123L30.8051 109.866C30.6067 109.728 30.9681 109.619 31.0726 109.711Z" fill="white"/>
<path d="M33.303 127.875L34.0418 128.301C34.528 128.728 33.3948 128.941 33.1653 128.626L33.3907 128.497C33.5034 128.643 34.0209 128.66 33.8122 128.434L33.0735 128.008C32.7312 127.902 32.6373 128.144 32.9983 128.271L32.773 128.401C31.9904 128.096 32.9044 127.61 33.303 127.875Z" fill="white"/>
<path d="M31.5584 128.539L32.2763 128.76L32.3953 128.691L31.8443 128.374L32.0739 128.24L33.4074 129.01C33.1194 129.192 32.6874 129.455 32.3681 129.242C32.2471 129.177 32.0113 129.052 32.1073 128.908L31.3185 128.676L31.5584 128.539ZM32.5852 128.801C32.3139 128.927 32.3702 129.002 32.6019 129.112C32.7208 129.192 32.8773 129.104 32.9858 129.033L32.5852 128.801Z" fill="white"/>
<path d="M32.4621 129.557L31.8089 129.935L31.619 129.824L32.0426 129.58L31.6711 129.365L31.3351 129.559L31.1452 129.449L31.4812 129.254L31.091 129.029L30.6674 129.273L30.4774 129.163L31.1306 128.785L32.4621 129.557Z" fill="white"/>
<path d="M31.6148 130.045C30.9094 130.596 30.5212 130.264 29.8785 129.876C29.4695 129.649 30.0934 129.394 30.2813 129.277L31.6148 130.045ZM30.1227 129.588C29.8055 129.73 30.7779 130.066 30.8092 130.148C30.9282 130.227 31.0847 130.139 31.1932 130.068L30.2416 129.519L30.1227 129.588Z" fill="white"/>
<path d="M30.6632 130.594L30.4336 130.728L29.1001 129.958L29.3297 129.824L30.6632 130.594Z" fill="white"/>
<path d="M30.2562 130.83L29.5217 131.254L29.3318 131.143L29.5843 130.997L28.4427 130.337L28.6723 130.204L29.8138 130.863L30.0663 130.717L30.2562 130.83Z" fill="white"/>
<path d="M27.4578 131.249L28.1965 131.675C28.6827 132.103 27.5496 132.316 27.32 132.001L27.5454 131.871C27.6581 132.017 28.1756 132.034 27.9669 131.809L27.2282 131.383C26.886 131.276 26.792 131.519 27.1531 131.646L26.9277 131.775C26.1451 131.471 27.0592 130.986 27.4578 131.249Z" fill="white"/>
<path d="M26.07 132.049L26.3183 131.907L26.0742 131.709L26.3037 131.575L27.3847 132.489L27.0759 132.666L25.4919 132.042L25.7257 131.907L26.07 132.049ZM26.2954 132.143L26.9465 132.41L26.4811 132.034L26.2954 132.143Z" fill="white"/>
<path d="M24.7949 132.443L25.5128 132.664L25.6318 132.596L25.0808 132.278L25.3104 132.145L26.6439 132.915C26.3559 133.096 25.9239 133.359 25.6046 133.146C25.4836 133.082 25.2478 132.957 25.3438 132.813L24.5549 132.581L24.7949 132.443ZM25.8237 132.706C25.5524 132.831 25.6088 132.906 25.8404 133.017C25.9594 133.096 26.1159 133.009 26.2244 132.938L25.8237 132.706Z" fill="white"/>
<path d="M25.7006 133.462C24.9953 134.012 24.6071 133.681 23.9643 133.293C23.5553 133.065 24.1793 132.81 24.3671 132.694L25.7006 133.462ZM24.2085 133.002C23.8913 133.144 24.8638 133.48 24.8951 133.562C25.014 133.641 25.1705 133.553 25.2791 133.482L24.3275 132.934L24.2085 133.002Z" fill="white"/>
<path d="M13.9224 116.685L14.6612 117.111C15.1474 117.538 14.0142 117.751 13.7847 117.436L14.0101 117.307C14.1227 117.453 14.6403 117.47 14.4316 117.244L13.6928 116.819C13.3506 116.712 13.2567 116.954 13.6177 117.081L13.3923 117.211C12.6098 116.906 13.5217 116.42 13.9224 116.685Z" fill="white"/>
<path d="M12.1757 117.349L12.8936 117.57L13.0125 117.501L12.4616 117.184L12.6911 117.05L14.0246 117.82C13.7367 118.002 13.3047 118.265 12.9854 118.052C12.8644 117.987 12.6285 117.862 12.7245 117.718L11.9357 117.487L12.1757 117.349ZM13.2045 117.612C12.9332 117.737 12.9896 117.812 13.2212 117.923C13.3402 118.002 13.4967 117.914 13.6052 117.843L13.2045 117.612Z" fill="white"/>
<path d="M13.0814 118.365L12.4282 118.743L12.2383 118.632L12.6619 118.388L12.2905 118.173L11.9545 118.367L11.7646 118.256L12.1006 118.062L11.7103 117.837L11.2867 118.081L11.0968 117.97L11.75 117.593L13.0814 118.365Z" fill="white"/>
<path d="M12.2341 118.855C11.5288 119.406 11.1406 119.074 10.4979 118.686C10.0889 118.459 10.7128 118.204 10.9006 118.087L12.2341 118.855ZM10.742 118.398C10.4248 118.54 11.3973 118.876 11.4286 118.958C11.5476 119.037 11.7041 118.949 11.8126 118.878L10.861 118.329L10.742 118.398Z" fill="white"/>
<path d="M11.2825 119.404L11.053 119.538L9.71948 118.768L9.94904 118.634L11.2825 119.404Z" fill="white"/>
<path d="M10.8735 119.64L10.1389 120.064L9.94903 119.953L10.2015 119.807L9.06003 119.148L9.28958 119.014L10.4311 119.673L10.6836 119.527L10.8735 119.64Z" fill="white"/>
<path d="M8.07709 120.059L8.81584 120.485C9.30208 120.913 8.16891 121.126 7.93936 120.811L8.16474 120.681C8.27743 120.827 8.79497 120.844 8.58629 120.619L7.84754 120.193C7.50529 120.087 7.41138 120.329 7.77241 120.456L7.54703 120.585C6.76237 120.281 7.67642 119.796 8.07709 120.059Z" fill="white"/>
<path d="M6.68936 120.859L6.93769 120.717L6.69353 120.519L6.92308 120.385L8.00408 121.299L7.69522 121.477L6.1113 120.853L6.34503 120.717L6.68936 120.859ZM6.91265 120.953L7.56375 121.22L7.09838 120.844L6.91265 120.953Z" fill="white"/>
<path d="M5.41431 121.253L6.13218 121.474L6.25113 121.406L5.7002 121.088L5.92976 120.955L7.26326 121.725C6.97527 121.906 6.54329 122.169 6.22401 121.957C6.10297 121.892 5.86715 121.767 5.96315 121.623L5.17432 121.391L5.41431 121.253ZM6.44104 121.516C6.16975 121.641 6.22609 121.717 6.45773 121.827C6.57668 121.906 6.7332 121.819 6.84171 121.748L6.44104 121.516Z" fill="white"/>
<path d="M6.31792 122.269C5.61256 122.82 5.22441 122.489 4.58165 122.1C4.17263 121.873 4.7966 121.618 4.98442 121.501L6.31792 122.269ZM4.82582 121.812C4.50861 121.954 5.48109 122.29 5.51239 122.372C5.63134 122.451 5.78786 122.363 5.89637 122.292L4.94477 121.744L4.82582 121.812Z" fill="white"/>
<path d="M84.1785 61.7489C85.2345 43.0486 95.0698 25.1204 109.144 12.9728C117.097 6.38254 128.887 0.305612 138.906 5.8483C135.747 4.22264 130.983 0.647855 127.389 0.274308C118.929 -1.14058 110.7 3.1333 104.164 8.15011C90.3222 19.3064 80.7081 35.9783 78.1726 53.5914C76.213 69.3743 80.9752 78.3269 93.4984 83.9823C87.3881 80.7101 83.6422 71.745 84.1785 61.7489Z" fill="url(#paint0_linear_36_8724)"/>
<path d="M116.099 8.08124C98.3963 18.3027 84.0909 43.0778 84.1493 63.4205C84.2077 83.7611 98.605 91.9666 116.308 81.7452C134.009 71.5259 148.314 46.7486 148.255 26.408C148.199 6.06534 133.802 -2.13809 116.099 8.08124Z" fill="#D2D2D2"/>
<path d="M140.327 33.7933L133.981 36.3831L138.228 38.8498L144.572 36.2621L140.327 33.7933Z" fill="#F0454C"/>
<path d="M137.99 40.4901C138.082 39.9413 138.161 39.3987 138.228 38.8498L133.981 36.3832C132.608 46.5608 127.04 56.225 118.991 62.5899C114.638 65.9185 108.371 68.7712 103.127 65.8287C106.245 67.7006 110.031 70.2842 113.868 69.3931C126.634 66.772 135.674 52.6064 137.99 40.4901Z" fill="#FF5887"/>
<path d="M100.585 74.4098C94.8152 68.5603 95.0698 59.3448 96.6496 51.8216C100.264 36.3789 111.98 18.5029 128.268 14.8175L124.021 12.3508C106.765 16.2324 94.0139 36.5834 91.7288 53.2595C90.9712 59.6432 91.493 67.0161 96.2239 71.8325C97.5511 73.381 101.147 75.0004 102.829 76.1085C102.017 75.6285 101.264 75.063 100.585 74.4098Z" fill="#FF5887"/>
<path d="M138.228 38.8497C136.582 52.5333 123.18 72.9949 108.257 68.7461C92.7242 61.1958 109.44 24.8824 126.177 22.9917L128.268 14.8175C105.629 17.3656 83.0078 66.511 104.025 76.7158C124.223 82.463 142.339 54.7871 144.574 36.2641L138.228 38.8497Z" fill="#FF5887"/>
<path d="M152.237 4.82983C136.273 13.0625 125.177 29.0416 117.259 44.789L121.506 47.2556C129.424 31.5124 140.522 15.525 156.484 7.2965L152.237 4.82983Z" fill="#00CC00"/>
<path d="M120.162 51.8739C119.63 50.3108 115.634 48.7436 114.409 47.8379C115.786 48.3659 116.285 50.4319 116.738 51.6631L120.984 54.1298L120.162 51.8739Z" fill="#008500"/>
<path d="M111.594 47.7669C114.747 46.8508 118.342 45.9826 121.504 47.2577C120.899 46.953 117.034 44.5365 116.445 44.4801C112.685 43.6036 108.755 44.7243 105.229 46.0599L109.475 48.5265C110.174 48.2469 110.88 47.9944 111.594 47.7669Z" fill="#00A300"/>
<path d="M153.713 8.73644C154.639 8.2022 155.564 7.72014 156.482 7.29651C142.235 20.2997 130.361 36.4144 120.982 54.1318L120.16 51.8739C117.979 48.5307 113.213 48.9898 109.473 48.5265C113.622 47.024 117.618 45.8178 121.504 47.2577C129.025 32.0258 139.662 17.3155 153.713 8.73644Z" fill="#00FF00"/>
<path opacity="0.35" d="M187.636 158.887L143.571 134.118L152.507 128.959L196.572 153.728L187.636 158.887Z" fill="#808080"/>
<path d="M146.966 134.148L187.28 157.428C186.585 150.097 182.636 108.242 181.859 99.9847C176.314 96.7829 157.58 85.9715 152.378 82.9629L146.966 134.148Z" fill="#ED1C24"/>
<path d="M170.911 87.5938C171.563 84.2118 168.301 69.7309 176.078 73.6751C182.121 76.5851 179.769 87.7913 180.194 92.9545L181.168 93.5167V95.8343L177.108 93.491V91.1733L178.082 91.7355C177.64 87.7097 179.774 77.7954 175.022 75.4992C173.761 74.7739 173.014 75.2031 173.014 76.658V88.8084L173.988 89.3707V91.6883L169.928 89.3449V87.0273L170.911 87.5938Z" fill="#004166"/>
<path d="M190.628 94.2292L181.864 99.9847L161.147 88.023V77.2031L190.628 94.2292Z" fill="#9A1F24"/>
<path d="M161.147 77.2031V88.023L152.383 82.9629L161.147 77.2031Z" fill="#74171B"/>
<path d="M183.593 95.0962L181.864 99.9847C182.662 108.435 186.572 149.913 187.284 157.428L190.422 155.368L183.752 95.079L183.593 95.0962Z" fill="#C1272D"/>
<path d="M190.628 94.2291L183.748 95.0789L190.422 155.368L196.049 151.672L190.628 94.2291Z" fill="#ED1C24"/>
<path d="M162.481 93.8515C163.134 90.4695 159.872 75.9885 167.649 79.9328C173.692 82.8427 171.34 94.0489 171.765 99.2121L172.739 99.7744V102.092L168.679 99.7486V97.431L169.653 97.9932C169.211 93.9674 171.344 84.0531 166.593 81.7569C165.331 81.0315 164.584 81.4607 164.584 82.9157V95.0661L165.559 95.6284V97.946L161.499 95.6026V93.285L162.481 93.8515Z" fill="#004166"/>
<path opacity="0.21" d="M163.134 108.435C165.632 127.938 186.164 122.006 171.417 105.714C171.46 105.521 171.439 104.959 171.443 104.753C171.125 104.5 170.67 104.161 170.138 103.83C170.155 103.633 170.181 103.414 170.211 103.182C170.297 103.418 170.37 103.706 170.421 104.01L170.585 104.122C170.512 103.624 170.391 103.195 170.25 102.89C170.275 100.744 172.185 97.4008 171.769 95.375C171.988 97.5167 170.151 100.341 170.095 102.615C169.962 102.418 169.726 102.238 169.516 102.358C169.314 99.4009 168.044 97.9459 169.649 94.8471V94.2892C167.645 96.8686 169.233 99.8043 169.353 102.538C169.267 102.68 169.177 102.976 169.147 103.264L169.301 103.345C169.318 103.264 169.344 103.199 169.366 103.131C169.366 103.221 169.366 103.307 169.361 103.388C168.984 103.195 168.593 103.019 168.194 102.894C168.198 103.131 168.177 103.646 168.22 103.873C165.181 102.817 162.962 105.414 163.134 108.435ZM169.958 103.719C169.825 103.637 169.688 103.56 169.55 103.487C169.554 103.276 169.554 103.036 169.542 102.761C169.761 102.44 169.919 102.568 170.065 102.839C170.014 103.165 169.984 103.452 169.958 103.719Z" fill="#999999"/>
<path d="M164.147 107.83C164.378 102.585 169.207 102.59 172.374 105.525C180.636 111.835 178.456 128.389 167.477 116.912C165.473 114.35 164.031 111.126 164.147 107.83Z" fill="white"/>
<path d="M170.451 119.311C170.237 119.032 171.125 119.603 170.829 119.543C170.705 119.47 170.576 119.388 170.451 119.311ZM171.211 119.702C171.306 119.659 171.615 119.826 171.688 119.925C171.606 119.985 171.276 119.809 171.211 119.702ZM170.048 119.036C169.559 118.727 169.494 118.491 170.057 118.951C170.1 118.972 170.112 119.075 170.048 119.036ZM172.005 120.049C172.074 119.985 172.404 120.109 172.473 120.195C172.413 120.277 172.065 120.144 172.005 120.049ZM169.258 118.41C169.181 118.307 168.73 118.032 168.898 117.985C168.962 118.097 169.417 118.35 169.258 118.41ZM172.778 120.268C172.816 120.187 173.168 120.26 173.228 120.337C173.203 120.436 172.834 120.358 172.778 120.268ZM168.494 117.685C168.027 117.242 168.022 117.036 168.524 117.616C168.567 117.654 168.55 117.74 168.494 117.685ZM173.52 120.358C173.533 120.268 173.889 120.277 173.945 120.35C173.945 120.453 173.572 120.449 173.52 120.358ZM167.765 116.873C167.7 116.762 167.284 116.375 167.46 116.384C167.516 116.504 167.937 116.865 167.765 116.873ZM174.224 120.32C174.198 120.234 174.585 120.161 174.619 120.234C174.636 120.337 174.276 120.406 174.224 120.32ZM166.791 115.547C166.692 115.234 167.087 115.878 167.134 115.933L167.087 115.981C166.992 115.852 166.898 115.71 166.791 115.547ZM174.868 120.152C174.846 120.062 175.168 119.925 175.224 119.989C175.263 120.088 174.928 120.238 174.868 120.152ZM166.464 115.036C166.383 114.852 166.185 114.663 166.181 114.483C166.336 114.586 166.396 114.843 166.52 115.002C166.563 115.062 166.499 115.096 166.464 115.036ZM175.452 119.861C175.422 119.775 175.701 119.564 175.769 119.624C175.812 119.719 175.52 119.938 175.452 119.861ZM165.911 114.045C165.881 113.963 165.524 113.371 165.726 113.521C165.748 113.607 166.112 114.178 165.911 114.045ZM175.967 119.449C175.932 119.363 176.16 119.097 176.233 119.144C176.284 119.234 176.044 119.513 175.967 119.449ZM165.434 113.019C165.125 112.333 165.28 112.354 165.503 113.006C165.533 113.088 165.451 113.075 165.434 113.019ZM176.396 118.921C176.357 118.835 176.525 118.521 176.61 118.551C176.662 118.637 176.486 118.964 176.396 118.921ZM165.048 111.985C164.992 111.813 164.936 111.642 164.885 111.466C164.928 111.225 165.233 112.247 165.048 111.985ZM176.735 118.281C176.671 118.17 176.812 118.024 176.825 117.916C176.838 117.886 176.846 117.8 176.898 117.852C176.962 117.908 176.821 118.333 176.735 118.281ZM164.748 110.951C164.73 110.839 164.55 110.285 164.709 110.461C164.718 110.581 164.911 111.114 164.748 110.951ZM176.988 117.551C176.945 117.448 177.001 117.101 177.091 117.071C177.143 117.17 177.087 117.543 176.988 117.551ZM164.546 109.933C164.537 109.822 164.413 109.277 164.559 109.47C164.554 109.59 164.696 110.122 164.546 109.933ZM177.138 116.732C177.087 116.616 177.095 116.268 177.181 116.204C177.241 116.315 177.233 116.689 177.138 116.732ZM164.443 108.955C164.443 108.839 164.378 108.307 164.507 108.53C164.49 108.633 164.576 109.165 164.443 108.955ZM177.151 115.775C177.168 115.676 177.083 115.131 177.216 115.35C177.216 115.448 177.284 116.002 177.151 115.775ZM164.477 108.092C164.417 107.98 164.426 107.607 164.52 107.56C164.567 107.676 164.559 108.036 164.477 108.092ZM177.1 114.826C177.104 114.715 176.962 114.174 177.117 114.367C177.121 114.483 177.246 115.028 177.1 114.826ZM164.567 107.225C164.511 107.122 164.572 106.753 164.67 106.744C164.713 106.843 164.657 107.195 164.567 107.225ZM176.945 113.843C176.941 113.727 176.743 113.187 176.911 113.354C176.928 113.474 177.108 114.015 176.945 113.843ZM164.76 106.44C164.709 106.345 164.825 105.989 164.924 106.01C164.958 106.101 164.851 106.44 164.76 106.44ZM176.701 112.826C176.688 112.706 176.443 112.178 176.615 112.315C176.64 112.44 176.868 112.976 176.701 112.826ZM165.048 105.744C165.001 105.654 165.172 105.328 165.263 105.375C165.301 105.461 165.134 105.774 165.048 105.744ZM176.357 111.805C176.319 111.624 176.143 111.405 176.168 111.238C176.314 111.363 176.34 111.629 176.43 111.8C176.456 111.878 176.37 111.856 176.357 111.805ZM165.426 105.148C165.378 105.058 165.615 104.779 165.692 104.843C165.726 104.929 165.499 105.199 165.426 105.148ZM175.932 110.783C175.876 110.599 175.688 110.397 175.692 110.221C175.821 110.341 175.98 110.654 175.988 110.826C175.962 110.83 175.945 110.809 175.932 110.783ZM165.889 104.667C165.846 104.573 166.138 104.358 166.207 104.435C166.25 104.504 165.936 104.74 165.889 104.667ZM175.422 109.787C175.349 109.603 175.151 109.418 175.138 109.234C175.297 109.328 175.366 109.599 175.482 109.757C175.52 109.826 175.452 109.847 175.422 109.787ZM166.43 104.302C166.396 104.204 166.73 104.058 166.791 104.143C166.812 104.229 166.49 104.371 166.43 104.302ZM174.842 108.826C174.795 108.697 174.4 108.294 174.576 108.315C174.632 108.435 175.018 108.856 174.842 108.826ZM167.044 104.062C167.027 103.959 167.383 103.89 167.439 103.976C167.464 104.058 167.078 104.135 167.044 104.062ZM174.198 107.916C174.143 107.796 173.722 107.431 173.894 107.427C173.958 107.543 174.374 107.925 174.198 107.916ZM167.713 103.946C167.718 103.843 168.087 103.852 168.138 103.937C168.125 104.028 167.765 104.019 167.713 103.946ZM173.503 107.075C173.439 106.955 173.001 106.646 173.168 106.616C173.233 106.723 173.675 107.053 173.503 107.075ZM168.43 103.959C168.46 103.865 168.825 103.938 168.881 104.028C168.842 104.109 168.49 104.036 168.43 103.959ZM172.765 106.315C172.276 105.92 172.271 105.723 172.791 106.242C172.829 106.272 172.821 106.362 172.765 106.315ZM169.19 104.101C169.25 104.019 169.597 104.152 169.658 104.251C169.606 104.319 169.237 104.186 169.19 104.101ZM171.992 105.646C171.494 105.319 171.464 105.109 172.005 105.564C172.048 105.586 172.057 105.689 171.992 105.646ZM169.971 104.375C170.057 104.315 170.383 104.491 170.447 104.598C170.353 104.641 170.044 104.474 169.971 104.375ZM171.207 105.079C171.112 104.976 170.683 104.856 170.808 104.744C170.894 104.826 171.348 104.98 171.207 105.079Z" fill="#E6E6E6"/>
<path d="M172.447 104.603C172.602 105.702 172.1 106.959 170.829 106.199C169.7 105.543 169.069 104.019 169.211 102.749C170.512 103.161 171.782 104.071 172.447 104.603Z" fill="#006DA8"/>
<path d="M169.924 104.319C169.924 104.899 170.331 105.603 170.829 105.89C173.147 106.637 170.434 101.937 169.924 104.319Z" fill="#ED1C24"/>
<path d="M170.091 104.414C169.962 105.143 171.4 106.568 171.572 105.268C171.696 104.538 170.258 103.113 170.091 104.414Z" fill="#333333"/>
<path d="M171.876 99.7143C171.194 102.208 171.185 103.963 171.048 104.766C170.537 103.105 172.572 97.461 171.769 95.0017C172.207 96.3022 172.258 98.1048 171.876 99.7143Z" fill="white"/>
<path d="M169.662 93.7269C169.554 95.1218 169.34 96.4737 169.924 98.6712C170.743 102.444 170.658 103.487 170.447 104.482C170.138 103.302 170.748 102.478 169.752 98.6326C169.211 96.4351 169.194 94.5124 169.662 93.7269Z" fill="white"/>
<path d="M170.164 103.053C170.533 101.182 171.469 102.641 171.597 103.972L171.434 103.86C171.245 102.749 170.748 101.624 170.314 103.204L170.16 103.122C170.151 103.096 170.16 103.071 170.164 103.053Z" fill="#E6E6E6"/>
<path d="M166.717 110.809V110.65L167.275 110.903C167.112 111.354 167.872 112.341 168.022 111.594C168.061 111.011 166.52 108.938 166.752 108.453C166.893 106.701 168.795 108.603 168.516 109.59L167.958 109.337C168.1 108.882 167.421 107.993 167.323 108.749C167.306 109.341 168.808 111.414 168.593 111.89C168.43 113.573 166.524 111.753 166.717 110.809Z" fill="#F65841"/>
<path d="M170.228 112.882L169.606 112.521L169.482 113.427L168.902 113.092L169.537 109.032L170.314 109.483L170.949 114.272L170.357 113.933L170.228 112.882ZM170.151 112.191L169.915 110.204L169.679 111.92L170.151 112.191Z" fill="#F65841"/>
<path d="M171.391 110.109L171.971 110.444V114.238L173.005 114.835V115.466L171.391 114.534V110.109Z" fill="#F65841"/>
<path d="M173.456 111.298L175.104 112.251V112.882L174.035 112.268V113.5L174.885 113.989V114.62L174.035 114.131V115.427L175.104 116.045V116.676L173.456 115.723V111.298Z" fill="#F65841"/>
<path opacity="0.35" d="M150.936 157.149L125 141.912L133.936 136.754L159.872 151.99L150.936 157.149Z" fill="#808080"/>
<path d="M128.588 141.981L149.79 155.479C149.91 150.445 150.369 131.642 150.498 126.281C144.528 122.788 136.215 117.908 130.266 114.427L128.588 141.981Z" fill="#8CC1E3"/>
<path d="M135.996 111.298V117.779C135.747 117.633 134.597 116.959 134.326 116.8V113.968L135.996 111.298Z" fill="#7EAECC"/>
<path d="M145.266 116.736L156.228 123.152L152.086 123.474L150.498 126.277C146.889 124.165 139.58 119.882 135.996 117.779V111.298L145.266 116.736Z" fill="#62879F"/>
<path d="M134.326 113.968V116.8L130.266 114.423L134.326 113.968Z" fill="#62879F"/>
<path d="M144.322 128.483C142.254 127.577 142.975 130.839 144.125 131.436C143.58 139.449 133.065 131.762 133.717 125.74C136.841 126.26 132.82 119.968 132.18 123.328C132.18 124.101 132.674 125.028 133.318 125.509C132.468 131.925 143.657 140.153 144.52 131.663C146.537 132.161 145.468 128.921 144.322 128.483Z" fill="white"/>
<path d="M156.228 123.152L157.674 152.35L152.086 154.569V123.474L156.228 123.152Z" fill="#8CC1E3"/>
<path d="M149.97 147.9L150.498 126.277L152.086 123.474V154.569L149.79 155.479L149.97 147.9Z" fill="#7EAECC"/>
<defs>
<linearGradient id="paint0_linear_36_8724" x1="77.7481" y1="41.9894" x2="138.906" y2="41.9894" gradientUnits="userSpaceOnUse">
<stop stop-color="#B3B3B3"/>
<stop offset="0.1752" stop-color="#C4C4C4"/>
<stop offset="0.4868" stop-color="#DDDDDD"/>
<stop offset="0.7708" stop-color="#EDEDED"/>
<stop offset="1" stop-color="#F2F2F2"/>
</linearGradient>
</defs>
</svg>
