<svg width="151" height="217" viewBox="0 0 151 217" fill="none" xmlns="http://www.w3.org/2000/svg">
<path opacity="0.35" d="M133.573 193.766L68.9862 156.346C67.1863 155.304 67.2154 152.698 69.0373 151.695L82.0548 144.524C82.8758 144.072 83.8717 144.082 84.683 144.553L149.27 181.973C151.07 183.015 151.041 185.622 149.219 186.625L136.202 193.796C135.383 194.247 134.385 194.235 133.573 193.766Z" fill="#4C4C60"/>
<path d="M146.144 46.3543V180.912C146.139 188.177 138.206 192.503 132.15 188.867L81.8749 158.945C77.59 156.395 74.9593 151.775 74.9593 146.785V10.3964C74.9593 8.06205 75.6929 5.9876 76.9147 4.31882C79.8855 0.211216 85.7445 -1.45271 90.6658 1.48892L136.112 28.6656C142.33 32.3894 146.144 39.1035 146.144 46.3543Z" fill="#161966"/>
<path d="M141.125 56.5785L74.9593 18.2036V138.769L141.125 176.809V56.5785Z" fill="#1B1D4D"/>
<path d="M138.876 175.602L77.2062 139.996V19.5833L138.876 55.1889V175.602Z" fill="#D5E8F5"/>
<path d="M141.125 176.809C141.155 177.45 141.147 185.299 141.067 185.707C140.584 190.123 135.449 191.182 132.152 188.867L81.8749 158.945C74.4273 154.932 74.6848 146.081 74.9593 138.769C94.1273 149.79 121.877 165.742 141.125 176.809Z" fill="#1B1D4D"/>
<path d="M141.125 50.083C141.125 42.8322 137.309 36.1133 131.093 32.3944L85.6449 5.21766C81.4936 2.29546 75.2654 4.27031 74.9787 9.7042C74.7285 9.42 75.1148 18.104 74.9569 18.2012L141.123 56.576V50.083H141.125Z" fill="#1B1D4D"/>
<path d="M131.091 32.3944L85.6449 5.21767C84.6489 4.62254 83.6166 4.21688 82.5769 3.98126C78.5131 3.03634 74.799 6.25732 74.9593 10.3965C74.9593 20.2999 74.9593 136.921 74.9593 146.783C74.9593 151.772 77.5876 156.395 81.8749 158.943L132.15 188.865C133.143 189.455 134.178 189.836 135.215 190.028C138.5 190.66 141.344 187.915 141.123 184.635V176.809V56.5784C141.905 47.4038 139.802 37.1821 131.091 32.3944ZM139.746 184.635C139.957 187.009 137.89 189.178 135.468 188.673C134.557 188.505 133.68 188.17 132.857 187.682L82.5818 157.76C78.7317 155.469 76.3414 151.265 76.3414 146.785V10.3965C76.22 7.59575 78.3552 5.16666 81.1559 5.20066C82.4409 3.35455 128.494 33.2033 130.386 33.5773C133.233 35.2801 135.604 37.7068 137.241 40.5926C142.913 41.2096 138.337 179.896 139.746 184.635Z" fill="white"/>
<path d="M117.182 70.5869L82.0474 50.3016V30.1304L117.182 50.4157V70.5869Z" fill="white"/>
<path d="M107.516 85.9195L81.6927 71.0097V55.0262L107.516 69.936V85.9195ZM82.4021 70.4194L106.81 84.5106V70.5287L82.4021 56.4375V70.4194Z" fill="white"/>
<path d="M134.062 63.9871L125.346 58.9564C124.974 58.7427 124.673 58.1403 124.673 57.6156C124.673 57.0885 124.974 56.8383 125.346 57.052L134.062 62.0827C134.688 62.2819 135.174 64.4122 134.062 63.9871Z" fill="#1B1D4D"/>
<path d="M134.062 71.0656C133.483 70.3296 118.115 62.8723 118.977 61.4051C118.977 60.878 119.278 60.6278 119.652 60.8416L134.062 69.1612C134.688 69.3604 135.174 71.4907 134.062 71.0656Z" fill="#1B1D4D"/>
<path d="M133.753 86.0651C133.299 85.4166 115.659 76.6087 116.747 75.2945C116.747 74.7674 117.048 74.5172 117.422 74.731L133.753 84.1607C134.38 84.3599 134.866 86.4902 133.753 86.0651Z" fill="#1B1D4D"/>
<path d="M134.062 78.1439C133.483 77.4079 118.115 69.9506 118.977 68.4834C118.977 67.9563 119.278 67.7061 119.652 67.9198L134.062 76.2395C134.688 76.4411 135.174 78.5714 134.062 78.1439Z" fill="#1B1D4D"/>
<path d="M103.526 72.0104L88.47 63.3167C88.2441 63.1855 88.0595 62.8187 88.0595 62.4981C87.6708 60.89 103.39 71.1335 103.526 70.8469C103.907 70.9707 104.203 72.2703 103.526 72.0104Z" fill="#1B1D4D"/>
<path d="M103.526 76.3268L84.9964 65.6291C84.7705 65.4979 84.5859 65.1311 84.5859 64.8105C84.1389 63.149 103.426 75.4864 103.526 75.1633C103.907 75.2872 104.203 76.5843 103.526 76.3268Z" fill="#1B1D4D"/>
<path d="M103.526 80.6409L84.9964 69.9432C84.7705 69.812 84.5859 69.4452 84.5859 69.1246C84.1365 67.4631 103.426 79.8005 103.526 79.4774C103.907 79.6013 104.203 80.9008 103.526 80.6409Z" fill="#1B1D4D"/>
<path d="M100.438 95.0698L86.8206 87.2093V86.2061L100.438 94.069V95.0698Z" fill="#F9E9F0"/>
<path d="M100.438 98.9175L83.6797 89.2424V88.2416L100.438 97.9167V98.9175Z" fill="#F9E9F0"/>
<path d="M100.438 102.763L83.6797 93.0877V92.0869L100.438 101.762V102.763Z" fill="#F9E9F0"/>
<path d="M133.651 142.466L81.7583 112.506V111.505L133.651 141.466V142.466Z" fill="#F9E9F0"/>
<path d="M133.651 146.975L81.7583 117.014V116.014L133.651 145.974V146.975Z" fill="#F9E9F0"/>
<path d="M133.651 151.486L81.7583 121.525V120.524L133.651 150.485V151.486Z" fill="#F9E9F0"/>
<path d="M133.651 155.994L81.7583 126.034V125.033L133.651 154.993V155.994Z" fill="#F9E9F0"/>
<path d="M133.858 90.8239C133.639 90.304 109.525 77.7772 110.988 76.6695C109.919 73.8566 133.884 89.4854 133.858 88.9195C134.482 89.1186 134.968 91.249 133.858 90.8239Z" fill="#1B1D4D"/>
<path d="M133.858 95.7598C133.639 95.2424 109.525 82.7131 110.988 81.6054C109.919 78.795 133.884 94.4213 133.858 93.8553C134.482 94.0545 134.968 96.1873 133.858 95.7598Z" fill="#1B1D4D"/>
<path d="M133.858 100.698C133.639 100.178 109.525 87.6513 110.988 86.5437C109.919 83.7332 133.884 99.3596 133.858 98.7936C134.482 98.9928 134.968 101.123 133.858 100.698Z" fill="#1B1D4D"/>
<path d="M102.772 109.159L81.3478 96.7897V78.0006L102.772 90.3696V109.159ZM81.9235 96.3063L102.192 108.01V90.8529L81.9235 79.1496V96.3063Z" fill="#1B1D4D"/>
<path d="M134.042 136.199L102.194 117.811V90.0343L134.042 108.423V136.199ZM102.772 117.328L133.466 135.048V108.906L102.772 91.1857V117.328Z" fill="#1B1D4D"/>
<path d="M102.772 118.144L81.3478 105.775V95.9709L102.772 108.34V118.144ZM81.9235 105.291L102.192 116.995V108.823L81.9235 97.1199V105.291Z" fill="#1B1D4D"/>
<path d="M92.0601 111.959C91.4698 112.095 91.8901 102.649 91.771 102.398C91.771 102.172 91.8998 102.066 92.0601 102.158C92.6503 102.022 92.2301 111.469 92.3492 111.719C92.3492 111.945 92.218 112.052 92.0601 111.959Z" fill="#1B1D4D"/>
<path d="M84.6297 44.1755V40.493C84.7365 37.9764 86.5559 39.927 86.3689 41.4962V45.1787C86.2644 47.6977 84.445 45.7471 84.6297 44.1755ZM85.8272 44.8678C85.7033 44.2556 86.1454 40.6727 85.4993 40.3302C84.8386 39.9148 85.3025 44.2775 85.1713 44.4888C85.1009 45.1593 85.8005 45.8953 85.8272 44.8678Z" fill="#FF5887"/>
<path d="M86.9178 40.2816L87.5154 40.6265L88.2052 45.5576V41.0249L88.7372 41.331V48.079L88.1639 47.7487L87.4473 43.0168V47.3357L86.9154 47.0296V40.2816H86.9178Z" fill="#FF5887"/>
<path d="M89.3347 41.6759L89.8764 41.9893V47.7729L90.8432 48.3316V49.296L89.3347 48.4239V41.6759Z" fill="#FF5887"/>
<path d="M91.2635 42.7885L91.8052 43.1018V49.8498L91.2635 49.5365V42.7885Z" fill="#FF5887"/>
<path d="M92.4003 43.4442L92.9979 43.7891L93.6877 48.7178V44.1875L94.2197 44.4936V51.2416L93.6464 50.9112L92.9298 46.1794V50.4983L92.3979 50.1922V43.4442H92.4003Z" fill="#FF5887"/>
<path d="M94.8148 44.8386L96.3549 45.7277V46.692L95.3565 46.1163V47.9964L96.1508 48.4531V49.4175L95.3565 48.9608V50.9381L96.3549 51.5138V52.4781L94.8148 51.5891V44.8386Z" fill="#FF5887"/>
<path d="M97.7127 51.6983V51.4578L98.235 51.6521C98.0674 52.3031 98.7888 53.6853 98.9321 52.4489C98.9613 51.521 97.5232 48.917 97.7443 48.0911C97.856 45.3899 99.673 47.6247 99.3912 49.2255L98.869 49.0311C98.7475 46.6822 97.703 48.1567 98.7718 50.0927C100.596 53.5395 98.2714 55.9589 97.7127 51.6983Z" fill="#FF5887"/>
<path d="M99.9232 54.5379V47.7899L100.465 48.1033V50.9477L101.109 51.3194V48.4749L101.65 48.7883V55.5363L101.109 55.2229V52.2837L100.465 51.9121V54.8513L99.9232 54.5379Z" fill="#FF5887"/>
<path d="M102.199 54.3193V50.6368C102.306 48.1202 104.126 50.0708 103.938 51.64V55.3225C103.834 57.8415 102.015 55.8885 102.199 54.3193ZM103.397 55.0091C103.273 54.397 103.715 50.8141 103.069 50.4716C102.408 50.0562 102.872 54.4189 102.741 54.6302C102.671 55.3031 103.37 56.0391 103.397 55.0091Z" fill="#FF5887"/>
<path d="M104.487 50.4255C105.539 50.9235 106.205 51.5016 106.185 53.0174C106.241 54.0206 106.168 55.6724 105.029 54.7493V57.4869L104.487 57.1736V50.4255ZM105.311 53.9453C105.809 54.2222 105.602 52.9348 105.644 52.6822C105.649 52.1065 105.423 51.8879 105.029 51.7008V53.7825L105.311 53.9453Z" fill="#FF5887"/>
<path d="M106.642 51.6692C107.694 52.1672 108.359 52.7429 108.34 54.261C108.396 55.2643 108.323 56.916 107.184 55.993V58.7306L106.642 58.4172V51.6692ZM107.465 55.1914C107.963 55.4683 107.757 54.1809 107.798 53.9283C107.803 53.3526 107.577 53.1339 107.184 52.9469V55.0286L107.465 55.1914Z" fill="#FF5887"/>
<path d="M108.797 52.9128L109.338 53.2262V59.9742L108.797 59.6609V52.9128Z" fill="#FF5887"/>
<path d="M109.933 53.5688L110.531 53.9138L111.221 58.8424V54.3122L111.753 54.6182V61.3662L111.18 61.0359L110.463 56.304V60.6229L109.931 60.3169V53.5688H109.933Z" fill="#FF5887"/>
<path d="M113.499 57.7298V57.1614C113.572 56.491 112.87 55.755 112.844 56.7825C112.967 57.3946 112.525 60.9775 113.171 61.32C113.716 61.5848 113.431 59.9136 113.499 59.6488L113.171 59.4594V58.495L114.041 58.9978C113.939 59.6585 114.459 62.9451 113.171 62.2844C111.811 61.5727 112.433 57.7833 112.302 56.4691C112.501 53.6562 114.386 56.2432 114.041 58.0432L113.499 57.7298Z" fill="#FF5887"/>
<path d="M110.582 112.972C109.929 110.847 109.647 108.644 109.793 106.764C108.493 104.082 109.53 112.176 110.045 112.929C109.917 113.281 113.395 120.894 113.174 118.455C112.023 116.662 111.15 114.818 110.582 112.972Z" fill="#FF5887"/>
<path d="M107.378 103.55L108.556 104.23V104.83L106.737 103.778V103.219L107.526 102.352C108.508 101.628 107.23 100.076 107.257 101.376L106.737 101.075C106.766 98.8325 109.55 101.733 107.971 102.896C107.968 102.899 107.378 103.55 107.378 103.55Z" fill="#FF5887"/>
<path d="M110.636 105.43L110.376 105.279V105.879L109.856 105.578V104.978L108.816 104.378V103.562L109.749 101.614L110.378 101.976V104.677L110.638 104.827V105.43H110.636ZM109.856 104.381V102.857L109.29 104.053L109.856 104.381Z" fill="#FF5887"/>
<path d="M112.083 102.964L112.535 103.224L111.318 106.725L110.866 106.465L112.083 102.964Z" fill="#FF5887"/>
<path d="M114.534 104.381C114.702 104.721 113.737 107.397 113.648 107.772L113.067 107.436L113.99 104.667L112.715 103.931V103.331L114.534 104.381Z" fill="#FF5887"/>
<path opacity="0.35" d="M62.6342 166.395L18.5728 141.628L27.507 136.469L71.5708 161.236L62.6342 166.395Z" fill="#4C4C60"/>
<path d="M21.9687 141.66L62.2819 164.938C61.5872 157.607 57.6399 115.758 56.8602 107.499C51.317 104.3 32.5838 93.486 27.3831 90.4788L21.9687 141.66Z" fill="#FF5887"/>
<path d="M45.9098 95.1062V84.1728C45.849 81.1462 48.487 79.6207 51.0789 81.1899C57.1759 84.3744 54.7468 95.06 55.1938 100.467L56.1703 101.031V103.348L52.1113 101.004V98.6866L53.0878 99.2502V88.3168C53.0878 86.4003 51.6862 83.9736 50.0271 83.0141C48.7664 82.2903 48.0182 82.7202 48.0182 84.1728V96.3231L48.9947 96.8867V99.204L44.9357 96.86V94.5426L45.9098 95.1062Z" fill="#004166"/>
<path d="M65.6219 101.74L56.8602 107.499L36.1448 95.5385V84.7194L65.6219 101.74Z" fill="#9A1F24"/>
<path d="M36.1449 84.7194V95.5385L27.3807 90.4787L36.1449 84.7194Z" fill="#74171B"/>
<path d="M58.5897 102.612L56.8577 107.499C57.6545 115.948 61.5653 157.422 62.2795 164.938L65.4179 162.875L58.7476 102.593L58.5897 102.612Z" fill="#C1272D"/>
<path d="M65.6219 101.74L58.7476 102.593L65.4178 162.875L71.0436 159.178L65.6219 101.74Z" fill="#FF5887"/>
<path d="M37.4833 101.363V90.4301C37.4226 87.4035 40.0606 85.878 42.6524 87.4472C48.7494 90.6317 46.3203 101.317 46.7673 106.724L47.7438 107.288V109.605L43.6848 107.261V104.944L44.6613 105.508V94.5742C44.6613 92.6576 43.2597 90.2309 41.6006 89.2715C40.3399 88.5476 39.5917 88.9775 39.5917 90.4301V102.58L40.5682 103.144V105.461L36.5092 103.117V100.8L37.4833 101.363Z" fill="#004166"/>
<path opacity="0.21" d="M38.132 115.948C40.6291 135.451 61.1598 129.517 46.4128 113.225C46.4565 113.03 46.4371 112.472 46.4395 112.263C46.1237 112.01 45.667 111.673 45.1375 111.342C45.1545 111.143 45.1788 110.927 45.2128 110.691C45.2978 110.927 45.3707 111.213 45.4241 111.522L45.5869 111.636C45.514 111.138 45.3925 110.708 45.2517 110.407C45.2759 108.262 47.1852 104.92 46.7698 102.894C46.9909 105.036 45.1521 107.861 45.0962 110.135C44.9602 109.938 44.727 109.758 44.5156 109.875C44.314 106.916 43.0436 105.461 44.6492 102.364V101.808C42.6452 104.388 44.2339 107.324 44.3529 110.055C44.2679 110.198 44.178 110.492 44.1464 110.781L44.3019 110.864C44.3213 110.781 44.3456 110.72 44.3675 110.65C44.3675 110.74 44.3675 110.825 44.365 110.905C43.9885 110.711 43.5975 110.536 43.1991 110.409C43.2039 110.645 43.1845 111.16 43.2258 111.386C40.1773 110.327 37.962 112.926 38.132 115.948ZM44.9577 111.233C44.8241 111.153 44.6881 111.075 44.5496 111C44.5545 110.791 44.5521 110.548 44.5423 110.273C44.761 109.953 44.9189 110.081 45.0646 110.351C45.0136 110.677 44.9796 110.966 44.9577 111.233Z" fill="#999999"/>
<path d="M39.1473 115.341C41.4671 103.042 56.1947 119.638 51.8102 126.57C49.3957 130.386 44.4573 127.085 42.48 124.421C40.4736 121.863 39.0307 118.637 39.1473 115.341Z" fill="white"/>
<path d="M45.4484 126.82C45.2759 126.59 45.8856 126.956 45.8905 127.041C45.7788 127.1 45.5844 126.871 45.4484 126.82ZM46.2087 127.214C46.3035 127.17 46.6119 127.338 46.6872 127.435C46.6047 127.496 46.2743 127.321 46.2087 127.214ZM45.0476 126.548C44.9674 126.459 44.5083 126.237 44.6638 126.167C44.7415 126.271 45.1958 126.466 45.0476 126.548ZM47.003 127.559C47.0492 127.488 47.4208 127.624 47.4694 127.707C47.4135 127.787 47.0613 127.656 47.003 127.559ZM44.2581 125.922C44.1926 125.837 43.7116 125.514 43.8962 125.497C43.9497 125.589 44.433 125.893 44.2581 125.922ZM47.7779 127.78C47.7949 127.697 48.186 127.773 48.2273 127.85C48.1981 127.945 47.8289 127.87 47.7779 127.78ZM43.493 125.198C43.4274 125.093 42.9829 124.756 43.1578 124.736C43.2185 124.855 43.6582 125.164 43.493 125.198ZM48.5212 127.87C48.5139 127.785 48.9123 127.787 48.9463 127.863C48.9439 127.965 48.5698 127.957 48.5212 127.87ZM42.7642 124.384C42.706 124.277 42.2784 123.884 42.4606 123.896C42.5116 124.012 42.9391 124.382 42.7642 124.384ZM49.2208 127.831C49.1673 127.756 49.607 127.668 49.6167 127.746C49.6532 127.841 49.2548 127.921 49.2208 127.831ZM41.7877 123.058C41.6736 122.725 42.0938 123.398 42.1303 123.446L42.0817 123.493C41.9918 123.364 41.8946 123.221 41.7877 123.058ZM49.8669 127.666C49.8475 127.576 50.1657 127.437 50.224 127.505C50.2604 127.6 49.9252 127.748 49.8669 127.666ZM41.4647 122.548C41.4185 122.433 41.0493 121.953 41.2363 122.025C41.2703 122.14 41.6493 122.606 41.4647 122.548ZM50.4523 127.372C50.4062 127.299 50.7195 127.066 50.7681 127.139C50.8118 127.231 50.5179 127.45 50.4523 127.372ZM40.9108 121.554C40.8866 121.486 40.5198 120.855 40.7262 121.029C40.7408 121.102 41.1149 121.714 40.9108 121.554ZM50.9649 126.961C50.9187 126.893 51.1713 126.595 51.2321 126.658C51.2807 126.745 51.0426 127.024 50.9649 126.961ZM40.4348 120.532C40.4032 120.422 40.1165 119.873 40.2987 120.009C40.3157 120.123 40.6169 120.655 40.4348 120.532ZM51.3924 126.429C51.3462 126.361 51.5357 126.012 51.6086 126.058C51.6596 126.148 51.4823 126.475 51.3924 126.429ZM40.0461 119.494C40.017 119.319 39.8542 119.076 39.9076 118.928C39.9756 118.95 40.2137 119.718 40.0461 119.494ZM51.7349 125.793C51.6645 125.749 51.9001 125.135 51.9219 125.438C51.8709 125.511 51.8442 125.832 51.7349 125.793ZM39.7449 118.462C39.7303 118.357 39.5433 117.784 39.7085 117.971C39.7109 118.078 39.9125 118.639 39.7449 118.462ZM51.9851 125.062C51.9414 124.96 51.9972 124.61 52.0871 124.581C52.143 124.68 52.0822 125.052 51.9851 125.062ZM39.5433 117.447C39.5481 117.294 39.4242 117.019 39.5141 116.919C39.5846 116.963 39.6769 117.692 39.5433 117.447ZM52.1357 124.243C52.0847 124.129 52.0944 123.779 52.1794 123.716C52.2401 123.828 52.2304 124.202 52.1357 124.243ZM39.4388 116.465C39.4388 116.358 39.3732 115.809 39.5044 116.038C39.4898 116.137 39.5773 116.686 39.4388 116.465ZM52.1478 123.284C52.1794 123.145 52.075 122.868 52.1721 122.791C52.2547 122.839 52.262 123.556 52.1478 123.284ZM39.4728 115.603C39.3902 115.53 39.4558 114.891 39.5506 115.144C39.5068 115.268 39.5797 115.559 39.4728 115.603ZM52.0944 122.339C52.1017 122.237 51.9559 121.676 52.109 121.877C52.1187 121.987 52.245 122.55 52.0944 122.339ZM39.5676 114.736C39.5117 114.636 39.5724 114.264 39.6696 114.255C39.7133 114.357 39.6574 114.707 39.5676 114.736ZM51.9438 121.353C51.9414 121.187 51.7956 120.937 51.8564 120.804C51.9438 120.845 52.0968 121.588 51.9438 121.353ZM39.757 113.951C39.706 113.859 39.8226 113.502 39.9174 113.524C39.9587 113.613 39.8493 113.954 39.757 113.951ZM51.696 120.34C51.6863 120.23 51.4337 119.679 51.6086 119.829C51.6329 119.941 51.8709 120.497 51.696 120.34ZM40.0461 113.256C39.9975 113.169 40.1724 112.841 40.2623 112.887C40.3084 112.955 40.1166 113.305 40.0461 113.256ZM51.356 119.315C51.2928 119.147 51.2248 118.974 51.1544 118.804C51.1641 118.532 51.5649 119.567 51.356 119.315ZM40.4226 112.661C40.374 112.571 40.6121 112.292 40.6898 112.358C40.7384 112.426 40.4833 112.727 40.4226 112.661ZM50.9284 118.297C50.9041 118.185 50.5592 117.677 50.7438 117.77C50.7827 117.879 51.1179 118.401 50.9284 118.297ZM40.8866 112.178C40.821 112.107 41.1635 111.852 41.2023 111.945C41.2679 112.001 40.9133 112.265 40.8866 112.178ZM50.4208 117.298C50.3868 117.182 50.0078 116.715 50.1924 116.776C50.2386 116.888 50.6078 117.371 50.4208 117.298ZM41.4307 111.816C41.3991 111.719 41.7295 111.573 41.7902 111.656C41.829 111.733 41.4671 111.891 41.4307 111.816ZM49.8402 116.339C49.7965 116.22 49.3908 115.8 49.573 115.829C49.624 115.938 50.0248 116.38 49.8402 116.339ZM42.0404 111.573C41.9894 111.483 42.4145 111.398 42.4363 111.488C42.4776 111.566 42.0598 111.651 42.0404 111.573ZM49.1965 115.43C49.1455 115.311 48.7155 114.942 48.8928 114.942C48.9511 115.049 49.3762 115.44 49.1965 115.43ZM42.7108 111.456C42.7132 111.354 43.0849 111.362 43.1359 111.449C43.1456 111.537 42.7448 111.532 42.7108 111.456ZM48.4993 114.588C48.4386 114.471 47.9965 114.158 48.1641 114.126C48.2297 114.23 48.6742 114.57 48.4993 114.588ZM43.4298 111.471C43.4565 111.376 43.8258 111.452 43.8792 111.541C43.8622 111.624 43.4687 111.546 43.4298 111.471ZM47.7609 113.827C47.6904 113.713 47.2411 113.46 47.399 113.402C47.4718 113.499 47.9261 113.779 47.7609 113.827ZM44.1853 111.614C44.1998 111.524 44.6298 111.677 44.6541 111.762C44.6614 111.845 44.1926 111.682 44.1853 111.614ZM46.9909 113.157C46.9156 113.052 46.4613 112.858 46.6071 112.775C46.6897 112.868 47.1463 113.084 46.9909 113.157ZM44.9699 111.886C45.0524 111.826 45.3804 112.001 45.4484 112.11C45.3537 112.151 45.0427 111.986 44.9699 111.886ZM46.2039 112.591C46.0703 112.474 45.8443 112.433 45.7666 112.28C45.7788 112.19 46.3982 112.581 46.2039 112.591Z" fill="#E6E6E6"/>
<path d="M47.4451 112.112C47.6006 113.213 47.0978 114.469 45.8273 113.708C44.6978 113.052 44.0662 111.527 44.2096 110.259C45.5091 110.672 46.7796 111.583 47.4451 112.112Z" fill="#006DA8"/>
<path d="M44.9189 111.831C44.7634 112.724 46.5269 114.473 46.7334 112.878C46.8889 111.984 45.1253 110.235 44.9189 111.831Z" fill="#FF5887"/>
<path d="M45.0865 111.928C45.0865 112.399 45.4168 112.972 45.8249 113.208C47.037 113.713 46.5196 111.755 45.8249 111.5C45.4193 111.264 45.0865 111.456 45.0865 111.928Z" fill="#333333"/>
<path d="M46.8742 107.227C46.1941 109.722 46.1819 111.476 46.0483 112.28C45.684 111.34 46.1601 109.693 46.6993 107.099C47.1803 105.308 46.8256 103.955 46.7673 102.517C47.207 103.814 47.258 105.617 46.8742 107.227Z" fill="white"/>
<path d="M44.659 101.237C44.5497 102.631 44.3359 103.984 44.9189 106.18C45.7399 109.95 45.65 110.997 45.4411 111.991C45.1326 110.808 45.7423 109.989 44.7464 106.144C44.212 103.95 44.1926 102.027 44.659 101.237Z" fill="white"/>
<path d="M45.1617 110.567C45.5309 108.697 46.4686 110.154 46.5925 111.486L46.4297 111.371C46.2402 110.261 45.7423 109.137 45.3099 110.713L45.152 110.631C45.1471 110.609 45.1569 110.584 45.1617 110.567Z" fill="#E6E6E6"/>
<path d="M41.7173 118.321V118.163L42.276 118.416C42.1157 118.863 42.8809 119.871 43.0217 119.106C43.0582 118.523 41.5181 116.448 41.7513 115.962C41.8922 114.211 43.7942 116.113 43.5148 117.099L42.9562 116.847C43.097 116.39 42.4218 115.501 42.3222 116.259C42.3027 116.849 43.8088 118.921 43.5926 119.402C43.4274 121.085 41.5254 119.264 41.7173 118.321Z" fill="#F65841"/>
<path d="M45.225 120.391L44.6008 120.031L44.4744 120.937L43.8939 120.602L44.5279 116.543L45.3052 116.992L45.9392 121.783L45.3489 121.442L45.225 120.391ZM45.1497 119.703L44.9141 117.716L44.6785 119.434L45.1497 119.703Z" fill="#F65841"/>
<path d="M46.3909 117.619L46.9715 117.954V121.746L48.0063 122.344V122.975L46.3909 122.042V117.619Z" fill="#F65841"/>
<path d="M48.4557 118.812L50.1026 119.764V120.395L49.0338 119.781V121.012L49.8815 121.503V122.135L49.0338 121.644V122.941L50.1026 123.558V124.19L48.4557 123.237V118.812Z" fill="#F65841"/>
<path opacity="0.35" d="M25.9378 164.654L-0.00012207 149.421L8.93653 144.261L34.872 159.497L25.9378 164.654Z" fill="#4C4C60"/>
<path d="M3.59009 149.489L24.7888 162.985C24.9078 157.952 25.3669 139.151 25.4981 133.787C19.5298 130.294 11.215 125.414 5.2686 121.936L3.59009 149.489Z" fill="#8CC1E3"/>
<path d="M10.9989 118.812V125.29C10.7487 125.142 9.60215 124.472 9.32767 124.311V121.479L10.9989 118.812Z" fill="#7EAECC"/>
<path d="M20.2659 124.246L31.226 130.663L27.0819 130.986L25.4958 133.787C21.8886 131.674 14.577 127.391 10.9965 125.288V118.809L20.2659 124.246Z" fill="#62879F"/>
<path d="M9.32768 121.479V124.311L5.26868 121.936L9.32768 121.479Z" fill="#62879F"/>
<path d="M19.3233 135.995C17.2538 135.092 17.9776 138.351 19.1242 138.949C18.7647 147.011 8.02076 139.226 8.71791 133.255C10.7341 133.748 9.66284 130.51 8.51874 130.073C7.7803 129.646 7.18274 129.993 7.18274 130.845C7.18274 131.62 7.67826 132.546 8.32197 133.027C7.43049 139.471 18.8351 147.643 19.5225 139.18C21.5387 139.67 20.4675 136.432 19.3233 135.995Z" fill="white"/>
<path d="M31.2283 130.663L32.6736 159.861L27.0842 162.074V130.987L31.2283 130.663Z" fill="#8CC1E3"/>
<path d="M24.9709 155.409L25.498 133.787L27.0842 130.986V162.074L24.7887 162.985L24.9709 155.409Z" fill="#7EAECC"/>
<path opacity="0.35" d="M51.0596 210.238L30.0455 198.18C29.2949 197.75 29.2925 196.667 30.0407 196.232L67.5046 174.448L90.2093 187.475L51.0596 210.238Z" fill="#4C4C60"/>
<path d="M31.1046 196.817C31.0731 197.029 33.4341 198.234 33.5823 198.365L33.5847 199.13C33.5192 199.084 31.1192 197.736 31.1654 197.689C31.0342 197.58 31.1119 196.885 31.0925 196.737C31.0901 196.761 31.0949 196.788 31.1046 196.817Z" fill="#8CC1E3"/>
<path d="M31.2964 196.438C30.2932 196.927 33.4 198.105 33.5797 198.362L70.6064 177.083C69.8874 176.826 68.0972 175.191 67.2786 175.762C67.2761 175.762 31.2964 196.438 31.2964 196.438Z" fill="#3992D8"/>
<path d="M64.6723 193.198C63.0982 194.391 66.0277 195.19 66.8828 194.478L81.2727 186.21C81.8873 185.855 81.8897 185.284 81.28 184.929C79.944 183.171 66.0496 192.88 64.6723 193.198Z" fill="#004166"/>
<path d="M33.5798 198.362L36.7862 200.218L73.8129 178.939L70.6065 177.086L33.5798 198.362Z" fill="#8CC1E3"/>
<path d="M33.5798 198.362L33.5823 199.127L36.7887 200.983L36.7863 200.218L33.5798 198.362Z" fill="#D5E8F5"/>
<path d="M87.4596 187.439L51.4799 208.115C51.1908 208.28 50.7098 208.273 50.4038 208.096L36.7863 200.218L73.813 178.939L87.4305 186.817C87.7341 186.994 87.7487 187.271 87.4596 187.439ZM79.0623 184.927C79.0623 184.927 75.8825 186.754 72.5134 188.69C68.7143 190.873 64.6723 193.196 64.6723 193.196C63.0982 194.388 66.0277 195.187 66.8828 194.476L81.2727 186.207C82.8468 185.014 79.9173 184.215 79.0623 184.927Z" fill="#3992D8"/>
<path d="M50.4037 208.096C50.7268 208.266 51.1519 208.288 51.4798 208.115C51.6887 207.824 87.7146 187.623 87.666 187.145C87.5786 187.451 87.8385 188.031 87.4596 188.204C87.0588 188.32 51.5187 209.077 51.079 208.994C50.8483 209.014 50.6053 208.973 50.4037 208.861L36.7862 200.983L36.7838 200.221L50.4037 208.096Z" fill="#8CC1E3"/>
<path opacity="0.35" d="M53.2603 216.6L37.5004 201.104C36.9368 200.551 37.1846 199.596 37.9449 199.385L76.038 188.816L93.0635 205.557L53.2603 216.6Z" fill="#4C4C60"/>
<path d="M36.8907 197.888C36.8057 198.085 38.7854 199.849 38.8947 200.011L38.7028 200.75C38.6518 200.687 36.6721 198.777 36.7279 198.743C36.6284 198.605 36.881 197.952 36.898 197.803C36.8907 197.832 36.8882 197.859 36.8907 197.888Z" fill="#F8ACAF"/>
<path d="M37.1725 197.573C36.0745 197.784 38.7854 199.718 38.8947 200.012L80.1018 188.804C79.4703 188.371 78.1537 186.338 77.2161 186.681C77.2161 186.683 37.1725 197.573 37.1725 197.573Z" fill="#FF5887"/>
<path d="M70.2811 202.887C68.4568 203.643 71.0875 205.156 72.0956 204.685L88.1106 200.33C88.7956 200.143 88.9414 199.589 88.441 199.093C87.5932 197.058 71.6948 202.931 70.2811 202.887Z" fill="#F58388"/>
<path d="M38.8947 200.011L41.5279 202.618L82.735 191.41L80.1019 188.804L38.8947 200.011Z" fill="#F58388"/>
<path d="M38.8947 200.011L38.7028 200.752L41.336 203.359L41.5279 202.618L38.8947 200.011Z" fill="#F46F74"/>
<path d="M93.785 203.087L53.7413 213.979C53.4207 214.066 52.9568 213.935 52.7042 213.687L41.5255 202.618L82.7326 191.41L93.9113 202.479C94.1639 202.727 94.1056 203.002 93.785 203.087ZM86.2961 198.532C86.2961 198.532 82.7593 199.494 79.0088 200.514C74.7797 201.663 70.2811 202.888 70.2811 202.888C68.4568 203.643 71.0875 205.156 72.0956 204.685L88.1106 200.33C89.9349 199.574 87.3042 198.061 86.2961 198.532Z" fill="#FF5887"/>
<path d="M52.7066 213.687C52.9762 213.935 53.3818 214.064 53.7438 213.979C54.0183 213.75 93.9866 203.33 94.0619 202.856C93.8992 203.13 94.0036 203.76 93.5955 203.828C93.1801 203.84 53.5422 214.919 53.1365 214.727C52.9082 214.686 52.6847 214.584 52.5171 214.426L41.3384 203.356L41.5303 202.618L52.7066 213.687Z" fill="#F8ACAF"/>
</svg>
