<svg width="24" height="24" viewBox="0 0 24 24" fill="none" xmlns="http://www.w3.org/2000/svg">
<path d="M18.4545 22H5.72727C4.18182 22 3 20.8182 3 19.2727V6.54545C3 6.36364 3.09091 6.18182 3.18182 6L5.90909 2.36364C6.09091 2.09091 6.36364 2 6.63636 2H17.5455C17.8182 2 18.0909 2.09091 18.2727 2.36364L21 6C21.0909 6.18182 21.1818 6.36364 21.1818 6.54545V19.2727C21.1818 20.8182 20 22 18.4545 22ZM4.81818 6.81818V19.2727C4.81818 19.8182 5.18182 20.1818 5.72727 20.1818H18.4545C19 20.1818 19.3636 19.8182 19.3636 19.2727V6.81818L17.0909 3.81818H7.09091L4.81818 6.81818Z" fill="#FF5887"/>
<path d="M20.2727 7.45455H3.90909C3.36364 7.45455 3 7.09091 3 6.54545C3 6 3.36364 5.63636 3.90909 5.63636H20.2727C20.8182 5.63636 21.1818 6 21.1818 6.54545C21.1818 7.09091 20.8182 7.45455 20.2727 7.45455Z" fill="#FF5887"/>
<path d="M12.0909 14.7273C9.54545 14.7273 7.54545 12.7273 7.54545 10.1818C7.54545 9.63636 7.90909 9.27273 8.45455 9.27273C9 9.27273 9.36364 9.63636 9.36364 10.1818C9.36364 11.7273 10.5455 12.9091 12.0909 12.9091C13.6364 12.9091 14.8182 11.7273 14.8182 10.1818C14.8182 9.63636 15.1818 9.27273 15.7273 9.27273C16.2727 9.27273 16.6364 9.63636 16.6364 10.1818C16.6364 12.7273 14.6364 14.7273 12.0909 14.7273Z" fill="#FF5887"/>
</svg>
