<svg width="158" height="217" viewBox="0 0 158 217" fill="none" xmlns="http://www.w3.org/2000/svg">
<path opacity="0.35" d="M140.573 193.766L75.9862 156.346C74.1863 155.304 74.2154 152.698 76.0373 151.695L89.0548 144.524C89.8758 144.072 90.8717 144.082 91.683 144.553L156.27 181.973C158.07 183.015 158.041 185.622 156.219 186.625L143.202 193.796C142.383 194.247 141.385 194.235 140.573 193.766Z" fill="#4C4C60"/>
<path d="M153.144 46.3543V180.912C153.139 188.177 145.206 192.503 139.15 188.867L88.8749 158.945C84.59 156.395 81.9593 151.775 81.9593 146.785V10.3964C81.9593 8.06205 82.6929 5.9876 83.9147 4.31882C86.8855 0.211216 92.7444 -1.45271 97.6658 1.48892L143.112 28.6656C149.33 32.3894 153.144 39.1035 153.144 46.3543Z" fill="#161966"/>
<path d="M148.125 56.5785L81.9593 18.2036V138.769L148.125 176.809V56.5785Z" fill="#19255B"/>
<path d="M145.876 175.602L84.2062 139.996V19.5833L145.876 55.1889V175.602Z" fill="#D5E8F5"/>
<path d="M148.125 176.809C148.155 177.45 148.147 185.299 148.067 185.707C147.584 190.123 142.449 191.182 139.152 188.867L88.8749 158.945C81.4273 154.932 81.6848 146.081 81.9593 138.769C101.127 149.79 128.877 165.742 148.125 176.809Z" fill="#19255B"/>
<path d="M148.125 50.083C148.125 42.8322 144.309 36.1133 138.093 32.3944L92.6449 5.21766C88.4936 2.29546 82.2653 4.27031 81.9787 9.7042C81.7285 9.42 82.1148 18.104 81.9569 18.2012L148.123 56.576V50.083H148.125Z" fill="#19255B"/>
<path d="M138.091 32.3944L92.6448 5.21767C91.6489 4.62254 90.6166 4.21688 89.5769 3.98126C85.513 3.03634 81.7989 6.25732 81.9593 10.3965C81.9593 20.2999 81.9593 136.921 81.9593 146.783C81.9593 151.772 84.5875 156.395 88.8749 158.943L139.15 188.865C140.143 189.455 141.178 189.836 142.215 190.028C145.5 190.66 148.344 187.915 148.123 184.635V176.809V56.5784C148.905 47.4038 146.802 37.1821 138.091 32.3944ZM146.746 184.635C146.957 187.009 144.89 189.178 142.468 188.673C141.557 188.505 140.68 188.17 139.857 187.682L89.5818 157.76C85.7316 155.469 83.3414 151.265 83.3414 146.785V10.3965C83.2199 7.59575 85.3551 5.16666 88.1559 5.20066C89.4409 3.35455 135.494 33.2033 137.386 33.5773C140.233 35.2801 142.604 37.7068 144.241 40.5926C149.913 41.2096 145.337 179.896 146.746 184.635Z" fill="white"/>
<path d="M124.182 70.5869L89.0473 50.3016V30.1304L124.182 50.4157V70.5869Z" fill="white"/>
<path d="M114.516 85.9193L88.6927 71.0096V55.0261L114.516 69.9359V85.9193ZM89.402 70.4193L113.81 84.5105V70.5286L89.402 56.4374V70.4193Z" fill="white"/>
<path d="M141.062 63.9872L132.346 58.9566C131.974 58.7428 131.673 58.1404 131.673 57.6157C131.673 57.0886 131.974 56.8384 132.346 57.0522L141.062 62.0828C141.688 62.282 142.174 64.4123 141.062 63.9872Z" fill="#19255B"/>
<path d="M141.062 71.0655C140.483 70.3295 125.115 62.8722 125.977 61.405C125.977 60.8779 126.278 60.6277 126.652 60.8415L141.062 69.1611C141.688 69.3603 142.174 71.4906 141.062 71.0655Z" fill="#19255B"/>
<path d="M140.753 86.0653C140.299 85.4167 122.659 76.6088 123.747 75.2947C123.747 74.7676 124.048 74.5174 124.422 74.7311L140.753 84.1609C141.38 84.36 141.866 86.4904 140.753 86.0653Z" fill="#19255B"/>
<path d="M141.062 78.1439C140.483 77.4079 125.115 69.9506 125.977 68.4834C125.977 67.9563 126.278 67.7061 126.652 67.9198L141.062 76.2395C141.688 76.4411 142.174 78.5714 141.062 78.1439Z" fill="#19255B"/>
<path d="M110.526 72.0104L95.47 63.3167C95.2441 63.1855 95.0595 62.8187 95.0595 62.4981C94.6708 60.89 110.389 71.1335 110.526 70.8469C110.907 70.9707 111.203 72.2703 110.526 72.0104Z" fill="#19255B"/>
<path d="M110.526 76.3268L91.9964 65.6291C91.7705 65.4979 91.5859 65.1311 91.5859 64.8105C91.1389 63.149 110.426 75.4864 110.526 75.1633C110.907 75.2872 111.203 76.5843 110.526 76.3268Z" fill="#19255B"/>
<path d="M110.526 80.641L91.9964 69.9433C91.7705 69.8121 91.5859 69.4453 91.5859 69.1247C91.1365 67.4632 110.426 79.8006 110.526 79.4775C110.907 79.6014 111.203 80.901 110.526 80.641Z" fill="#19255B"/>
<path d="M107.438 95.0698L93.8206 87.2093V86.2061L107.438 94.069V95.0698Z" fill="#E9D8B1"/>
<path d="M107.438 98.9176L90.6797 89.2425V88.2417L107.438 97.9168V98.9176Z" fill="#E9D8B1"/>
<path d="M107.438 102.763L90.6797 93.0877V92.0869L107.438 101.762V102.763Z" fill="#E9D8B1"/>
<path d="M140.651 142.466L88.7583 112.506V111.505L140.651 141.466V142.466Z" fill="#E9D8B1"/>
<path d="M140.651 146.975L88.7583 117.014V116.013L140.651 145.974V146.975Z" fill="#E9D8B1"/>
<path d="M140.651 151.486L88.7583 121.525V120.524L140.651 150.485V151.486Z" fill="#E9D8B1"/>
<path d="M140.651 155.994L88.7583 126.034V125.033L140.651 154.993V155.994Z" fill="#E9D8B1"/>
<path d="M140.857 90.8237C140.639 90.3039 116.525 77.7771 117.988 76.6694C116.919 73.8565 140.884 89.4853 140.857 88.9193C141.482 89.1185 141.968 91.2488 140.857 90.8237Z" fill="#19255B"/>
<path d="M140.857 95.7598C140.639 95.2424 116.525 82.7131 117.988 81.6054C116.919 78.795 140.884 94.4213 140.857 93.8553C141.482 94.0545 141.968 96.1873 140.857 95.7598Z" fill="#19255B"/>
<path d="M140.857 100.698C140.639 100.178 116.525 87.6513 117.988 86.5437C116.919 83.7332 140.884 99.3596 140.857 98.7936C141.482 98.9928 141.968 101.123 140.857 100.698Z" fill="#19255B"/>
<path d="M109.772 109.158L88.3478 96.7895V78.0005L109.772 90.3694V109.158ZM88.9235 96.3061L109.192 108.01V90.8528L88.9235 79.1494V96.3061Z" fill="#19255B"/>
<path d="M141.042 136.199L109.194 117.811V90.0342L141.042 108.422V136.199ZM109.772 117.327L140.466 135.048V108.906L109.772 91.1856V117.327Z" fill="#19255B"/>
<path d="M109.772 118.144L88.3477 105.775V95.9709L109.772 108.34V118.144ZM88.9234 105.291L109.192 116.995V108.823L88.9234 97.1199V105.291Z" fill="#19255B"/>
<path d="M99.06 111.959C98.4698 112.095 98.89 102.648 98.771 102.398C98.771 102.172 98.8997 102.065 99.06 102.158C99.6503 102.022 99.2301 111.468 99.3491 111.719C99.3491 111.944 99.2179 112.051 99.06 111.959Z" fill="#19255B"/>
<path d="M91.6297 44.1753V40.4928C91.7365 37.9763 93.5559 39.9269 93.3689 41.4961V45.1786C93.2644 47.6975 91.445 45.747 91.6297 44.1753ZM92.8272 44.8676C92.7033 44.2555 93.1454 40.6726 92.4993 40.3301C91.8386 39.9147 92.3025 44.2774 92.1713 44.4887C92.1009 45.1591 92.8005 45.8951 92.8272 44.8676Z" fill="#C4A140"/>
<path d="M93.9178 40.2815L94.5154 40.6264L95.2052 45.5575V41.0248L95.7372 41.3309V48.0789L95.1639 47.7485L94.4473 43.0167V47.3356L93.9154 47.0295V40.2815H93.9178Z" fill="#C4A140"/>
<path d="M96.3347 41.6758L96.8764 41.9891V47.7728L97.8432 48.3315V49.2958L96.3347 48.4238V41.6758Z" fill="#C4A140"/>
<path d="M98.2635 42.7883L98.8052 43.1017V49.8497L98.2635 49.5364V42.7883Z" fill="#C4A140"/>
<path d="M99.4003 43.4441L99.9979 43.789L100.688 48.7177V44.1874L101.22 44.4935V51.2415L100.646 50.9111L99.9298 46.1793V50.4982L99.3979 50.1921V43.4441H99.4003Z" fill="#C4A140"/>
<path d="M101.815 44.8384L103.355 45.7274V46.6918L102.357 46.1161V47.9962L103.151 48.4529V49.4172L102.357 48.9606V50.9378L103.355 51.5135V52.4779L101.815 51.5888V44.8384Z" fill="#C4A140"/>
<path d="M104.713 51.6982V51.4577L105.235 51.652C105.067 52.303 105.789 53.6852 105.932 52.4488C105.961 51.5208 104.523 48.9169 104.744 48.091C104.856 45.3898 106.673 47.6246 106.391 49.2253L105.869 49.031C105.748 46.6821 104.703 48.1565 105.772 50.0925C107.596 53.5394 105.271 55.9588 104.713 51.6982Z" fill="#C4A140"/>
<path d="M106.923 54.5378V47.7898L107.465 48.1032V50.9476L108.109 51.3193V48.4748L108.65 48.7882V55.5362L108.109 55.2228V52.2836L107.465 51.912V54.8512L106.923 54.5378Z" fill="#C4A140"/>
<path d="M109.199 54.3191V50.6366C109.306 48.1201 111.126 50.0707 110.938 51.6399V55.3224C110.834 57.8413 109.015 55.8883 109.199 54.3191ZM110.397 55.009C110.273 54.3969 110.715 50.814 110.069 50.4715C109.408 50.0561 109.872 54.4187 109.741 54.6301C109.671 55.3029 110.37 56.0389 110.397 55.009Z" fill="#C4A140"/>
<path d="M111.487 50.4253C112.539 50.9233 113.205 51.5014 113.185 53.0171C113.241 54.0204 113.168 55.6721 112.029 54.7491V57.4867L111.487 57.1733V50.4253ZM112.311 53.9451C112.809 54.222 112.602 52.9345 112.644 52.6819C112.649 52.1062 112.423 51.8876 112.029 51.7006V53.7823L112.311 53.9451Z" fill="#C4A140"/>
<path d="M113.642 51.6692C114.694 52.1672 115.359 52.7429 115.34 54.261C115.396 55.2643 115.323 56.916 114.184 55.993V58.7306L113.642 58.4172V51.6692ZM114.465 55.1914C114.963 55.4683 114.757 54.1809 114.798 53.9283C114.803 53.3526 114.577 53.1339 114.184 52.9469V55.0286L114.465 55.1914Z" fill="#C4A140"/>
<path d="M115.797 52.9128L116.338 53.2262V59.9742L115.797 59.6609V52.9128Z" fill="#C4A140"/>
<path d="M116.933 53.5686L117.531 53.9135L118.221 58.8422V54.3119L118.753 54.618V61.366L118.18 61.0356L117.463 56.3038V60.6227L116.931 60.3166V53.5686H116.933Z" fill="#C4A140"/>
<path d="M120.499 57.7296V57.1612C120.572 56.4908 119.87 55.7547 119.844 56.7822C119.967 57.3944 119.525 60.9773 120.171 61.3198C120.716 61.5846 120.431 59.9133 120.499 59.6486L120.171 59.4591V58.4948L121.041 58.9976C120.939 59.6583 121.459 62.9449 120.171 62.2841C118.811 61.5724 119.433 57.783 119.302 56.4689C119.501 53.656 121.386 56.243 121.041 58.043L120.499 57.7296Z" fill="#C4A140"/>
<path opacity="0.35" d="M62.6363 159.887L18.5712 135.118L27.507 129.959L71.5721 154.728L62.6363 159.887Z" fill="#808080"/>
<path d="M21.9661 135.148L62.2802 158.428C61.5849 151.097 57.6363 109.242 56.8594 100.985C51.3143 97.7829 32.58 86.9715 27.3782 83.9629L21.9661 135.148Z" fill="#ED1C24"/>
<path d="M45.9107 88.5938C46.5631 85.2118 43.3013 70.7309 51.0782 74.6751C57.1212 77.5851 54.7693 88.7913 55.1942 93.9545L56.1685 94.5167V96.8343L52.1082 94.491V92.1733L53.0825 92.7355C52.6404 88.7097 54.7736 78.7954 50.0224 76.4992C48.7606 75.7739 48.0138 76.2031 48.0138 77.658V89.8084L48.9881 90.3707V92.6883L44.9279 90.3449V88.0273L45.9107 88.5938Z" fill="#004166"/>
<path d="M65.6278 95.2292L56.8637 100.985L36.1466 89.023V78.2031L65.6278 95.2292Z" fill="#9A1F24"/>
<path d="M36.1466 78.2031V89.023L27.3825 83.9629L36.1466 78.2031Z" fill="#74171B"/>
<path d="M58.5934 96.0963L56.8637 100.985C57.662 109.436 61.572 150.913 62.2845 158.428L65.4218 156.368L58.7522 96.0791L58.5934 96.0963Z" fill="#C1272D"/>
<path d="M65.6278 95.2292L58.7479 96.079L65.4218 156.368L71.0485 152.672L65.6278 95.2292Z" fill="#ED1C24"/>
<path d="M37.4814 94.8514C38.1338 91.4694 34.8719 76.9884 42.6489 80.9327C48.6919 83.8426 46.3399 95.0488 46.7648 100.212L47.7391 100.774V103.092L43.6789 100.748V98.4309L44.6532 98.9931C44.2111 94.9673 46.3442 85.0529 41.593 82.7568C40.3312 82.0314 39.5844 82.4606 39.5844 83.9156V96.066L40.5587 96.6283V98.9459L36.4985 96.6025V94.2849L37.4814 94.8514Z" fill="#004166"/>
<path opacity="0.21" d="M38.1338 109.435C40.6317 128.938 61.1641 123.007 46.4171 106.714C46.46 106.521 46.4386 105.959 46.4429 105.753C46.1253 105.5 45.6703 105.161 45.1381 104.83C45.1553 104.633 45.1811 104.414 45.2111 104.182C45.297 104.418 45.3699 104.706 45.4214 105.01L45.5845 105.122C45.5115 104.624 45.3913 104.195 45.2497 103.89C45.2755 101.744 47.1854 98.4009 46.7691 96.3751C46.988 98.5168 45.1511 101.341 45.0953 103.616C44.9622 103.418 44.7261 103.238 44.5158 103.358C44.3141 100.401 43.0437 98.946 44.6489 95.8473V95.2893C42.6446 97.8688 44.2326 100.804 44.3528 103.538C44.2669 103.68 44.1768 103.976 44.1468 104.264L44.3012 104.345C44.3184 104.264 44.3442 104.199 44.3657 104.131C44.3657 104.221 44.3656 104.307 44.3614 104.388C43.9837 104.195 43.5931 104.019 43.194 103.895C43.1983 104.131 43.1767 104.646 43.2196 104.873C40.181 103.817 37.9621 106.414 38.1338 109.435ZM44.9579 104.719C44.8248 104.637 44.6875 104.56 44.5502 104.487C44.5545 104.277 44.5545 104.036 44.5416 103.762C44.7605 103.44 44.9193 103.568 45.0652 103.839C45.0137 104.165 44.9836 104.453 44.9579 104.719Z" fill="#999999"/>
<path d="M39.1466 108.83C39.3784 103.586 44.2068 103.59 47.3743 106.526C55.6362 112.835 53.4559 129.389 42.4771 117.912C40.4728 115.35 39.0307 112.127 39.1466 108.83Z" fill="white"/>
<path d="M45.4515 120.311C45.2369 120.032 46.1253 120.603 45.8292 120.543C45.7047 120.47 45.5759 120.389 45.4515 120.311ZM46.2111 120.702C46.3056 120.659 46.6146 120.826 46.6876 120.925C46.606 120.985 46.2755 120.809 46.2111 120.702ZM45.048 120.037C44.5588 119.728 44.4944 119.492 45.0566 119.951C45.0995 119.972 45.1124 120.075 45.048 120.037ZM47.0052 121.05C47.0738 120.985 47.4044 121.11 47.473 121.195C47.4129 121.277 47.0653 121.144 47.0052 121.05ZM44.2584 119.41C44.1811 119.307 43.7304 119.032 43.8978 118.985C43.9622 119.097 44.4172 119.35 44.2584 119.41ZM47.7777 121.268C47.8164 121.187 48.1683 121.26 48.2284 121.337C48.2027 121.436 47.8335 121.359 47.7777 121.268ZM43.4944 118.685C43.0266 118.243 43.0222 118.037 43.5244 118.616C43.5673 118.655 43.5502 118.74 43.4944 118.685ZM48.5202 121.359C48.5331 121.268 48.8893 121.277 48.9451 121.35C48.9451 121.453 48.5717 121.449 48.5202 121.359ZM42.7648 117.873C42.7004 117.762 42.284 117.376 42.46 117.384C42.5158 117.504 42.9365 117.865 42.7648 117.873ZM49.2241 121.32C49.1983 121.234 49.5847 121.161 49.619 121.234C49.6362 121.337 49.2756 121.406 49.2241 121.32ZM41.7905 116.547C41.6918 116.234 42.0866 116.878 42.1338 116.934L42.0867 116.981C41.9922 116.852 41.8978 116.71 41.7905 116.547ZM49.8679 121.153C49.8464 121.062 50.1683 120.925 50.2241 120.989C50.2627 121.088 49.9279 121.238 49.8679 121.153ZM41.4643 116.037C41.3828 115.852 41.1853 115.663 41.181 115.483C41.3355 115.586 41.3956 115.843 41.5201 116.002C41.563 116.062 41.4987 116.097 41.4643 116.037ZM50.4516 120.861C50.4216 120.775 50.7005 120.564 50.7692 120.625C50.8121 120.719 50.5203 120.938 50.4516 120.861ZM40.9107 115.045C40.8806 114.964 40.5244 114.371 40.7261 114.521C40.7476 114.607 41.1124 115.178 40.9107 115.045ZM50.9666 120.449C50.9323 120.363 51.1598 120.097 51.2328 120.144C51.2843 120.234 51.0439 120.513 50.9666 120.449ZM40.4342 114.019C40.1252 113.333 40.2798 113.354 40.503 114.006C40.533 114.088 40.4514 114.075 40.4342 114.019ZM51.3958 119.921C51.3572 119.835 51.5246 119.522 51.6104 119.552C51.6619 119.637 51.4859 119.964 51.3958 119.921ZM40.048 112.985C39.9922 112.813 39.9363 112.642 39.8848 112.466C39.9278 112.225 40.2325 113.247 40.048 112.985ZM51.7349 119.281C51.6705 119.17 51.8121 119.024 51.825 118.916C51.8379 118.886 51.8464 118.801 51.8979 118.852C51.9623 118.908 51.8207 119.333 51.7349 119.281ZM39.7476 111.951C39.7304 111.839 39.5501 111.285 39.7089 111.461C39.7175 111.582 39.9107 112.114 39.7476 111.951ZM51.9881 118.552C51.9452 118.449 52.001 118.101 52.0911 118.071C52.1427 118.17 52.0869 118.543 51.9881 118.552ZM39.5459 110.933C39.5373 110.822 39.4127 110.277 39.5587 110.47C39.5544 110.59 39.6961 111.122 39.5459 110.933ZM52.1383 117.732C52.0868 117.616 52.0954 117.268 52.1813 117.204C52.2413 117.316 52.2327 117.689 52.1383 117.732ZM39.4428 109.955C39.4428 109.839 39.3784 109.307 39.5072 109.53C39.49 109.633 39.5758 110.165 39.4428 109.955ZM52.1512 116.775C52.1684 116.676 52.0825 116.131 52.2155 116.35C52.2155 116.449 52.2842 117.002 52.1512 116.775ZM39.4771 109.092C39.417 108.981 39.4257 108.607 39.5201 108.56C39.5673 108.676 39.5587 109.036 39.4771 109.092ZM52.0997 115.826C52.104 115.715 51.9623 115.174 52.1168 115.367C52.1211 115.483 52.2457 116.028 52.0997 115.826ZM39.5672 108.225C39.5114 108.122 39.5715 107.753 39.6702 107.745C39.7132 107.843 39.6574 108.195 39.5672 108.225ZM51.9452 114.843C51.9409 114.727 51.7434 114.187 51.9108 114.354C51.928 114.474 52.1083 115.015 51.9452 114.843ZM39.7605 107.44C39.709 107.345 39.8248 106.989 39.9235 107.011C39.9578 107.101 39.8506 107.44 39.7605 107.44ZM51.7005 113.826C51.6876 113.706 51.443 113.178 51.6147 113.315C51.6404 113.44 51.8679 113.976 51.7005 113.826ZM40.048 106.745C40.0008 106.654 40.1725 106.328 40.2626 106.375C40.3012 106.461 40.1338 106.775 40.048 106.745ZM51.3571 112.805C51.3185 112.624 51.1426 112.406 51.1683 112.238C51.3142 112.363 51.34 112.629 51.4302 112.8C51.4559 112.878 51.37 112.856 51.3571 112.805ZM40.4256 106.148C40.3784 106.058 40.6145 105.779 40.6918 105.843C40.7261 105.929 40.4986 106.199 40.4256 106.148ZM50.9322 111.783C50.8764 111.599 50.6877 111.397 50.692 111.221C50.8207 111.341 50.9795 111.654 50.9881 111.826C50.9623 111.83 50.9451 111.809 50.9322 111.783ZM40.8892 105.667C40.8463 105.573 41.1381 105.358 41.2068 105.435C41.2497 105.504 40.9364 105.74 40.8892 105.667ZM50.4215 110.788C50.3486 110.603 50.1512 110.418 50.1383 110.234C50.2971 110.328 50.3658 110.599 50.4817 110.757C50.5203 110.826 50.4516 110.848 50.4215 110.788ZM41.43 105.302C41.3956 105.204 41.7304 105.058 41.7905 105.144C41.812 105.229 41.4901 105.371 41.43 105.302ZM49.8422 109.826C49.795 109.697 49.4001 109.294 49.576 109.315C49.6318 109.436 50.0182 109.856 49.8422 109.826ZM42.0437 105.062C42.0265 104.959 42.3828 104.89 42.4386 104.976C42.4644 105.058 42.078 105.135 42.0437 105.062ZM49.1984 108.916C49.1426 108.796 48.7219 108.431 48.8936 108.427C48.958 108.543 49.3744 108.925 49.1984 108.916ZM42.7133 104.946C42.7175 104.843 43.0866 104.852 43.1382 104.938C43.1253 105.028 42.7648 105.019 42.7133 104.946ZM48.5031 108.075C48.4387 107.955 48.0009 107.646 48.1683 107.616C48.2327 107.723 48.6747 108.054 48.5031 108.075ZM43.43 104.959C43.46 104.865 43.8249 104.938 43.8806 105.028C43.842 105.109 43.4901 105.036 43.43 104.959ZM47.7649 107.315C47.2756 106.92 47.2713 106.723 47.7906 107.242C47.8293 107.272 47.8207 107.363 47.7649 107.315ZM44.1897 105.101C44.2497 105.019 44.5974 105.152 44.6575 105.251C44.606 105.32 44.2369 105.187 44.1897 105.101ZM46.9923 106.646C46.4944 106.32 46.4644 106.109 47.0052 106.564C47.0481 106.586 47.0567 106.689 46.9923 106.646ZM44.9708 105.375C45.0566 105.315 45.3829 105.491 45.4473 105.599C45.3528 105.642 45.0438 105.474 44.9708 105.375ZM46.2068 106.079C46.1124 105.976 45.6832 105.856 45.8077 105.744C45.8936 105.826 46.3485 105.981 46.2068 106.079Z" fill="#E6E6E6"/>
<path d="M47.4472 105.603C47.6017 106.702 47.0996 107.959 45.8292 107.2C44.7004 106.543 44.0695 105.019 44.2111 103.749C45.5116 104.161 46.782 105.071 47.4472 105.603Z" fill="#006DA8"/>
<path d="M44.9235 105.319C44.9235 105.899 45.3313 106.603 45.8292 106.89C48.1468 107.637 45.4343 102.937 44.9235 105.319Z" fill="#ED1C24"/>
<path d="M45.0909 105.414C44.9622 106.144 46.3999 107.569 46.5716 106.268C46.6961 105.538 45.2583 104.113 45.0909 105.414Z" fill="#333333"/>
<path d="M46.8764 100.714C46.194 103.208 46.1854 104.963 46.0481 105.766C45.5373 104.105 47.5717 98.461 46.7691 96.0017C47.2069 97.3022 47.2584 99.1048 46.8764 100.714Z" fill="white"/>
<path d="M44.6618 94.7271C44.5545 96.1219 44.3398 97.4739 44.9235 99.6713C45.7433 103.444 45.6575 104.487 45.4472 105.483C45.1382 104.302 45.7476 103.478 44.7519 99.6327C44.2111 97.4353 44.1939 95.5125 44.6618 94.7271Z" fill="white"/>
<path d="M45.1639 104.053C45.533 102.182 46.4687 103.641 46.5975 104.972L46.4343 104.86C46.2455 103.749 45.7477 102.624 45.3142 104.204L45.1596 104.122C45.151 104.096 45.1596 104.071 45.1639 104.053Z" fill="#E6E6E6"/>
<path d="M41.7175 111.809V111.65L42.2754 111.903C42.1123 112.354 42.872 113.341 43.0222 112.594C43.0609 112.011 41.5201 109.938 41.7518 109.453C41.8935 107.702 43.7948 109.603 43.5159 110.59L42.9579 110.337C43.0995 109.882 42.4214 108.993 42.3227 109.749C42.3055 110.341 43.8077 112.414 43.5931 112.891C43.43 114.573 41.5243 112.753 41.7175 111.809Z" fill="#F65841"/>
<path d="M45.2283 113.882L44.6059 113.521L44.4816 114.427L43.9021 114.092L44.5373 110.032L45.3142 110.483L45.9494 115.272L45.357 114.933L45.2283 113.882ZM45.151 113.191L44.9149 111.204L44.679 112.92L45.151 113.191Z" fill="#F65841"/>
<path d="M46.3914 111.109L46.9708 111.444V115.238L48.0052 115.835V116.466L46.3914 115.534V111.109Z" fill="#F65841"/>
<path d="M48.4557 112.298L50.1039 113.251V113.882L49.0352 113.268V114.5L49.885 114.989V115.62L49.0352 115.131V116.427L50.1039 117.045V117.676L48.4557 116.723V112.298Z" fill="#F65841"/>
<path opacity="0.35" d="M25.9361 158.149L0 142.912L8.93581 137.753L34.8719 152.99L25.9361 158.149Z" fill="#808080"/>
<path d="M3.58807 142.981L24.7901 156.479C24.9103 151.445 25.3695 132.642 25.4983 127.281C19.5282 123.788 11.2148 118.908 5.26618 115.427L3.58807 142.981Z" fill="#8CC1E3"/>
<path d="M10.996 112.298V118.779C10.747 118.633 9.59675 117.959 9.32635 117.8V114.968L10.996 112.298Z" fill="#7EAECC"/>
<path d="M20.2665 117.736L31.228 124.152L27.0864 124.474L25.4983 127.277C21.8888 125.165 14.5797 120.882 10.996 118.779V112.298L20.2665 117.736Z" fill="#62879F"/>
<path d="M9.32632 114.968V117.8L5.26617 115.423L9.32632 114.968Z" fill="#62879F"/>
<path d="M19.3222 129.483C17.2535 128.577 17.9746 131.839 19.1248 132.436C18.5797 140.449 8.06453 132.762 8.7169 126.74C11.8414 127.26 7.81986 120.968 7.18036 124.328C7.18036 125.101 7.67399 126.028 8.31778 126.509C7.46798 132.925 18.657 141.153 19.5196 132.663C21.5368 133.161 20.4682 129.921 19.3222 129.483Z" fill="white"/>
<path d="M31.228 124.152L32.6745 153.35L27.0864 155.569V124.474L31.228 124.152Z" fill="#8CC1E3"/>
<path d="M24.9704 148.899L25.4983 127.277L27.0864 124.474V155.569L24.7902 156.479L24.9704 148.899Z" fill="#7EAECC"/>
<path d="M117.582 112.972C116.929 110.847 116.647 108.644 116.793 106.763C115.493 104.082 116.53 112.175 117.045 112.928C116.917 113.281 120.395 120.893 120.174 118.455C119.023 116.662 118.15 114.818 117.582 112.972Z" fill="#C4A140"/>
<path d="M114.378 103.55L115.556 104.23V104.83L113.737 103.778V103.219L114.526 102.352C115.508 101.628 114.23 100.076 114.257 101.376L113.737 101.074C113.766 98.8323 116.55 101.733 114.971 102.896C114.968 102.899 114.378 103.55 114.378 103.55Z" fill="#C4A140"/>
<path d="M117.636 105.43L117.376 105.279V105.879L116.856 105.578V104.978L115.816 104.378V103.562L116.749 101.614L117.378 101.976V104.677L117.638 104.827V105.43H117.636ZM116.856 104.381V102.857L116.29 104.053L116.856 104.381Z" fill="#C4A140"/>
<path d="M119.083 102.964L119.535 103.224L118.318 106.725L117.866 106.465L119.083 102.964Z" fill="#C4A140"/>
<path d="M121.534 104.38C121.702 104.72 120.737 107.397 120.648 107.771L120.067 107.436L120.99 104.667L119.715 103.931V103.331L121.534 104.38Z" fill="#C4A140"/>
<path opacity="0.35" d="M58.0596 210.238L37.0455 198.18C36.2949 197.75 36.2925 196.667 37.0406 196.232L74.5045 174.448L97.2093 187.475L58.0596 210.238Z" fill="#4C4C60"/>
<path d="M38.1046 196.817C38.073 197.029 40.4341 198.234 40.5823 198.365L40.5847 199.13C40.5191 199.084 38.1192 197.736 38.1653 197.69C38.0342 197.58 38.1119 196.885 38.0925 196.737C38.09 196.762 38.0949 196.788 38.1046 196.817Z" fill="#9092B7"/>
<path d="M38.2964 196.438C37.2931 196.927 40.3999 198.105 40.5797 198.362L77.6064 177.083C76.8874 176.826 75.0971 175.191 74.2785 175.762C74.2761 175.762 38.2964 196.438 38.2964 196.438Z" fill="#9092B7"/>
<path d="M71.6722 193.198C70.0982 194.391 73.0277 195.19 73.8827 194.478L88.2727 186.21C88.8872 185.855 88.8897 185.284 88.28 184.929C86.944 183.171 73.0495 192.88 71.6722 193.198Z" fill="#283367"/>
<path d="M40.5798 198.362L43.7862 200.218L80.8129 178.939L77.6065 177.086L40.5798 198.362Z" fill="#9092B7"/>
<path d="M40.5798 198.362L40.5822 199.127L43.7886 200.983L43.7862 200.218L40.5798 198.362Z" fill="#D5E8F5"/>
<path d="M94.4596 187.439L58.4798 208.115C58.1908 208.28 57.7098 208.273 57.4037 208.096L43.7863 200.218L80.8129 178.939L94.4304 186.817C94.7341 186.994 94.7486 187.271 94.4596 187.439ZM86.0622 184.927C86.0622 184.927 82.8825 186.754 79.5134 188.69C75.7143 190.873 71.6722 193.196 71.6722 193.196C70.0982 194.388 73.0277 195.187 73.8827 194.476L88.2727 186.207C89.8467 185.014 86.9173 184.215 86.0622 184.927Z" fill="#9092B7"/>
<path d="M57.4037 208.096C57.7267 208.266 58.1518 208.288 58.4798 208.115C58.6887 207.824 94.7146 187.623 94.666 187.145C94.5785 187.451 94.8385 188.031 94.4595 188.204C94.0587 188.32 58.5186 209.077 58.079 208.994C57.8482 209.014 57.6053 208.973 57.4037 208.861L43.7862 200.983L43.7838 200.221L57.4037 208.096Z" fill="#9092B7"/>
<path opacity="0.35" d="M60.2603 216.6L44.5003 201.104C43.9368 200.551 44.1846 199.596 44.9449 199.385L83.0379 188.816L100.063 205.557L60.2603 216.6Z" fill="#4C4C60"/>
<path d="M43.8907 197.888C43.8057 198.085 45.7854 199.849 45.8947 200.011L45.7028 200.75C45.6518 200.687 43.6721 198.777 43.7279 198.743C43.6284 198.605 43.881 197.951 43.898 197.803C43.8907 197.832 43.8882 197.859 43.8907 197.888Z" fill="#D8BC79"/>
<path d="M44.1725 197.573C43.0745 197.784 45.7854 199.717 45.8947 200.011L87.1018 188.804C86.4703 188.371 85.1537 186.338 84.2161 186.681C84.2161 186.683 44.1725 197.573 44.1725 197.573Z" fill="#C4A140"/>
<path d="M77.281 202.887C75.4568 203.643 78.0875 205.156 79.0956 204.685L95.1106 200.329C95.7956 200.142 95.9413 199.588 95.4409 199.093C94.5932 197.057 78.6948 202.931 77.281 202.887Z" fill="#DEC58C"/>
<path d="M45.8947 200.011L48.5279 202.618L89.735 191.41L87.1019 188.803L45.8947 200.011Z" fill="#DEC58C"/>
<path d="M45.8947 200.011L45.7028 200.752L48.336 203.359L48.5279 202.618L45.8947 200.011Z" fill="#C4A140"/>
<path d="M100.785 203.087L60.7413 213.979C60.4207 214.066 59.9568 213.935 59.7042 213.687L48.5255 202.618L89.7326 191.41L100.911 202.479C101.164 202.727 101.106 203.002 100.785 203.087ZM93.2961 198.532C93.2961 198.532 89.7593 199.494 86.0088 200.514C81.7797 201.663 77.2811 202.887 77.2811 202.887C75.4568 203.643 78.0875 205.156 79.0956 204.685L95.1106 200.33C96.9349 199.574 94.3042 198.061 93.2961 198.532Z" fill="#C4A140"/>
<path d="M59.7066 213.687C59.9762 213.935 60.3818 214.064 60.7438 213.979C61.0182 213.75 100.987 203.329 101.062 202.856C100.899 203.13 101.004 203.759 100.595 203.827C100.18 203.84 60.5421 214.919 60.1365 214.727C59.9081 214.685 59.6847 214.583 59.5171 214.426L48.3384 203.356L48.5303 202.618L59.7066 213.687Z" fill="#D8BC79"/>
</svg>
