<svg width="32" height="32" viewBox="0 0 32 32" fill="none" xmlns="http://www.w3.org/2000/svg">
<rect width="32" height="32" rx="16" fill="#E34401" fill-opacity="0.1"/>
<g clip-path="url(#clip0_333_18629)">
<path fill-rule="evenodd" clip-rule="evenodd" d="M6 16C6 17.9778 6.58649 19.9112 7.6853 21.5557C8.78412 23.2002 10.3459 24.4819 12.1732 25.2388C14.0004 25.9956 16.0111 26.1937 17.9509 25.8079C19.8907 25.422 21.6725 24.4696 23.0711 23.071C24.4696 21.6725 25.422 19.8907 25.8079 17.9509C26.1937 16.0111 25.9957 14.0005 25.2388 12.1732C24.4819 10.346 23.2002 8.78412 21.5557 7.6853C19.9112 6.58649 17.9778 6 16 6C13.3478 6 10.8043 7.05359 8.92893 8.92896C7.05357 10.8043 6 13.3478 6 16V16ZM13.172 11.757L16 14.59L18.828 11.761L20.243 13.176L17.414 16L20.243 18.828L18.828 20.243L16 17.41L13.172 20.239L11.757 18.824L14.586 16L11.757 13.172L13.172 11.757Z" fill="#E34401"/>
</g>
<defs>
<clipPath id="clip0_333_18629">
<rect width="24" height="24" fill="white" transform="translate(4 4)"/>
</clipPath>
</defs>
</svg>
