<svg width="80" height="70" viewBox="0 0 80 70" fill="none" xmlns="http://www.w3.org/2000/svg">
<path d="M1.42459 2.43015C1.15184 3.21618 0.914063 4.04997 1.03016 4.87653C1.12387 5.5482 1.45117 6.1721 1.89316 6.6744C2.34494 7.18973 2.96597 7.60229 3.63875 7.59071C3.92269 6.8843 4.04018 6.10551 3.97444 5.34264C4.18705 5.7552 4.39965 6.16775 4.61365 6.58031C4.86822 7.07248 5.16474 7.60518 5.67388 7.79192C6.18161 7.97865 6.88796 7.52412 6.72431 6.99142C6.64318 6.72651 6.37463 6.50504 6.43757 6.23579C6.5131 5.91154 6.97188 5.90575 7.25162 6.07222C7.52996 6.23868 7.78733 6.50648 8.10903 6.49346C8.5748 6.47319 8.80839 5.82902 8.62795 5.38462C8.44752 4.94022 8.01951 4.66663 7.61668 4.42344C6.79005 3.92259 5.76199 3.48542 5.02487 2.85429C4.60946 2.49819 4.20942 1.65281 3.8066 1.39659C2.69043 0.685839 1.91414 0.872575 1.42459 2.43015Z" fill="#FF97B4"/>
<path d="M75.9916 3.7875C75.2832 3.35121 74.5205 2.93873 73.6884 2.87332C73.0124 2.81955 72.3325 3.00417 71.7465 3.32707C71.1456 3.65671 70.6085 4.17382 70.4743 4.83318C71.1026 5.26318 71.8376 5.54631 72.5966 5.64712C72.1478 5.76546 71.699 5.88381 71.25 6.00353C70.7144 6.14563 70.1302 6.31993 69.8377 6.77663C69.5456 7.23196 69.8366 8.01989 70.3921 7.97532C70.6683 7.95341 70.9426 7.73911 71.1919 7.85879C71.4921 8.00266 71.3986 8.45183 71.1755 8.68895C70.9528 8.9247 70.6357 9.11806 70.5788 9.43497C70.4979 9.8941 71.0763 10.2615 71.5492 10.1814C72.0221 10.1014 72.3818 9.74266 72.7063 9.40196C73.3741 8.7032 74.0233 7.79402 74.7989 7.21084C75.2364 6.88227 76.1483 6.67454 76.4855 6.33665C77.4209 5.40061 77.4064 4.60232 75.9916 3.7875Z" fill="#FF97B4"/>
<path d="M24.7797 6.59647C24.8953 6.75898 25.0457 6.91084 25.2435 6.96279C25.5736 7.04804 25.919 6.8096 26.0569 6.50989C26.1948 6.21017 26.1781 5.86917 26.1572 5.54281C26.6823 6.01436 27.4011 6.39533 28.1003 6.22882C28.7995 6.06232 29.241 5.10856 28.7076 4.645C29.2146 4.77155 29.7606 4.89676 30.2522 4.72093C30.7439 4.5451 31.0921 3.93235 30.7871 3.52474C30.6339 3.3196 30.3678 3.22636 30.1185 3.14377C28.9917 2.77213 27.8663 2.39915 26.7394 2.02751C26.4483 1.9316 26.1461 1.83302 25.8383 1.85833C23.5359 2.04216 23.8172 5.2471 24.7797 6.59647Z" fill="#1B1D4D" fill-opacity="0.3"/>
<path d="M66.8729 25.6888C66.6892 25.7666 66.5084 25.8806 66.4149 26.0625C66.2603 26.3663 66.4184 26.7551 66.6812 26.9546C66.944 27.154 67.2805 27.2115 67.6037 27.2617C67.0297 27.6724 66.5023 28.2917 66.5137 29.0104C66.525 29.729 67.3607 30.3664 67.9287 29.9458C67.6955 30.4134 67.4551 30.9194 67.5205 31.4375C67.5858 31.9556 68.1087 32.4281 68.5727 32.2184C68.8061 32.1132 68.9547 31.8736 69.0892 31.648C69.6958 30.6283 70.3033 29.6101 70.9099 28.5904C71.0665 28.3269 71.2281 28.0531 71.2699 27.7471C71.5884 25.4594 68.3985 25.041 66.8729 25.6888Z" fill="#1B1D4D" fill-opacity="0.3"/>
<path d="M41.8234 45.3314C41.9456 45.3987 42.0853 45.4486 42.2187 45.4136C42.442 45.3556 42.5642 45.0768 42.5442 44.8303C42.5243 44.5837 42.3996 44.3628 42.2786 44.154C42.7463 44.2847 43.2963 44.2874 43.6518 43.9344C44.0072 43.5802 43.9448 42.7934 43.4759 42.6722C43.8164 42.5793 44.1793 42.4728 44.4088 42.1859C44.6383 41.899 44.637 41.3709 44.3202 41.2066C44.1606 41.1244 43.9735 41.154 43.7989 41.1863C43.0119 41.3305 42.225 41.476 41.438 41.6201C41.2347 41.6578 41.0239 41.6982 40.8518 41.8208C39.5597 42.7409 40.8044 44.7696 41.8234 45.3314Z" fill="#1B1D4D" fill-opacity="0.3"/>
<path d="M34.4357 22.2487C35.526 22.4618 36.6495 22.3366 37.7361 22.1062C36.6213 21.7038 35.6206 21.0071 34.556 20.4676C33.9286 20.1492 31.7099 19.0622 31.7566 20.5915C31.7848 21.4814 33.839 22.1328 34.4357 22.2487Z" fill="#E3E5FC"/>
<path d="M49.5028 31.7312C49.0589 32.7496 48.9381 33.8736 48.9281 34.9844C49.5621 33.9829 50.4587 33.1566 51.2157 32.2339C51.6622 31.6902 53.2034 29.7591 51.7002 29.4739C50.8252 29.309 49.745 31.1737 49.5028 31.7312Z" fill="#E3E5FC"/>
<path d="M63.526 55.0591C64.3243 54.7309 65.2213 53.9938 65.0544 53.0264C61.9762 52.7341 56.853 51.5521 53.9684 52.8709C55.4688 56.0948 60.9818 56.1041 63.526 55.0591Z" fill="#FF97B4"/>
<path d="M11.1775 53.0372C11.3253 53.8875 11.851 54.9227 12.8315 54.969C13.7827 52.0269 16.0446 47.2806 15.3809 44.179C11.9088 44.9466 10.7074 50.3271 11.1775 53.0372Z" fill="#FF97B4"/>
<path d="M58.5393 64.9817C60.3636 65.3737 62.387 64.498 63.366 62.8919C62.1544 62.9553 60.9331 62.8228 59.762 62.5013C58.808 62.239 56.183 60.7908 55.7165 62.4195C55.3502 63.6985 57.6313 64.7857 58.5393 64.9817Z" fill="#1B1D4D" fill-opacity="0.3"/>
<path d="M2.5683 46.0224C1.79102 47.7188 2.20837 49.8837 3.56475 51.1869C3.76482 49.9903 4.15836 48.8266 4.72555 47.7526C5.18793 46.878 7.16955 44.6283 5.68031 43.8206C4.51082 43.1864 2.95603 45.1784 2.5683 46.0224Z" fill="#1B1D4D" fill-opacity="0.3"/>
<path d="M75.0024 60.8067C75.1109 60.7623 75.2262 60.7099 75.2858 60.609C75.4797 60.2808 74.9401 60.0199 74.5564 60.0145C73.7415 60.0024 69.606 59.5854 70.2731 61.0125C70.9145 62.3845 74.0398 61.2008 75.0024 60.8067Z" fill="#1B1D4D" fill-opacity="0.3"/>
<path d="M3.0839 62.9989C3.10378 63.1144 3.13007 63.2383 3.21566 63.3184C3.49415 63.5786 3.86562 63.1082 3.95386 62.7347C4.14191 61.9418 5.44338 57.9944 3.90579 58.337C2.42762 58.6665 2.90733 61.9738 3.0839 62.9989Z" fill="#1B1D4D" fill-opacity="0.3"/>
<path fill-rule="evenodd" clip-rule="evenodd" d="M40 29.5C44.5563 29.5 48.25 25.8063 48.25 21.25C48.25 16.6937 44.5563 13 40 13C35.4437 13 31.75 16.6937 31.75 21.25C31.75 25.8063 35.4437 29.5 40 29.5Z" fill="#FF5887"/>
<path fill-rule="evenodd" clip-rule="evenodd" d="M53.75 32.25C56.7876 32.25 59.25 29.7876 59.25 26.75C59.25 23.7124 56.7876 21.25 53.75 21.25C50.7124 21.25 48.25 23.7124 48.25 26.75C48.25 29.7876 50.7124 32.25 53.75 32.25Z" fill="#FF5887"/>
<path fill-rule="evenodd" clip-rule="evenodd" d="M26.25 32.25C29.2876 32.25 31.75 29.7876 31.75 26.75C31.75 23.7124 29.2876 21.25 26.25 21.25C23.2124 21.25 20.75 23.7124 20.75 26.75C20.75 29.7876 23.2124 32.25 26.25 32.25Z" fill="#FF5887"/>
<path fill-rule="evenodd" clip-rule="evenodd" d="M40 29.5C33.9249 29.5 29 34.4249 29 40.5V54.25C29 55.7688 30.2312 57 31.75 57H48.25C49.7688 57 51 55.7688 51 54.25V40.5C51 34.4249 46.0751 29.5 40 29.5Z" fill="#1B1D4D"/>
<path fill-rule="evenodd" clip-rule="evenodd" d="M48.4095 34.2116C47.9563 34.5969 47.5453 35.0302 47.1843 35.5038C48.1713 36.9204 48.75 38.6426 48.75 40.5V51.5H50.5V40.5C50.5 38.1414 49.7224 35.9645 48.4095 34.2116ZM49.2091 33.611C50.6478 35.5312 51.5 37.9161 51.5 40.5V51.5H59.25C60.7688 51.5 62 50.2688 62 48.75V40.5C62 35.9437 58.3063 32.25 53.75 32.25C52.0723 32.25 50.5116 32.7508 49.2091 33.611ZM47.75 51.4547V40.5C47.75 38.9985 47.323 37.5968 46.5838 36.4095C45.8942 37.6152 45.5 39.0115 45.5 40.5V48.75C45.5 50.098 46.4699 51.2195 47.75 51.4547Z" fill="#1B1D4D"/>
<path fill-rule="evenodd" clip-rule="evenodd" d="M29.5 51.5H31.25V40.5C31.25 38.6426 31.8287 36.9204 32.8157 35.5038C32.4547 35.0302 32.0437 34.5969 31.5905 34.2116C30.2776 35.9645 29.5 38.1414 29.5 40.5V51.5ZM28.5 51.5V40.5C28.5 37.9161 29.3522 35.5312 30.7909 33.611C29.4884 32.7508 27.9277 32.25 26.25 32.25C21.6937 32.25 18 35.9437 18 40.5V48.75C18 50.2688 19.2312 51.5 20.75 51.5H28.5ZM33.4162 36.4095C32.677 37.5968 32.25 38.9985 32.25 40.5V51.4547C33.5301 51.2195 34.5 50.098 34.5 48.75V40.5C34.5 39.0115 34.1058 37.6152 33.4162 36.4095Z" fill="#1B1D4D"/>
</svg>
